<?xml version="1.0" encoding="utf-8"?>
<!-- Generator: Adobe Illustrator 21.0.2, SVG Export Plug-In . SVG Version: 6.00 Build 0)  -->
<svg version="1.1" id="Capa_1" xmlns="http://www.w3.org/2000/svg" xmlns:xlink="http://www.w3.org/1999/xlink" x="0px" y="0px"
	 viewBox="0 0 512 512" style="enable-background:new 0 0 512 512;" xml:space="preserve">
<style type="text/css">
	.color{fill:#D12028;}
</style>
<g>
	<g>
		<circle class="color" cx="255.2" cy="43.1" r="43.1"/>
		<path class="color" d="M270.2,106.7c-10.7-2.2-22.4-2.1-33,0.4c-71.6,8.4-94.9,91.3-88.3,154.6c2.8,27.3,45.9,27.6,43.1,0
			c-2.4-23-1.4-57.8,10.9-82.5c0,30,0,60.1,0,90.1c0,1.1,0.1,2.1,0.2,3.1c0,0.5-0.1,0.9-0.1,1.4c0,71.5-0.1,143-3.1,214.5
			c-1.3,31.8,47.9,31.6,49.2,0c2.3-56,2.9-112,3-168.1c2.3,0.2,4.7,0.2,7,0c0.1,56,0.7,112.1,3,168.1c1.3,31.6,50.6,31.8,49.2,0
			c-3-71.5-3.1-142.9-3.1-214.5c0-2.2-0.3-4.2-0.7-6.2c-0.1-31-1.3-62.1-0.9-93.2c14.7,24.8,16,62.7,13.5,87.3
			c-2.9,27.6,40.2,27.3,43.1,0C369.8,197.1,345.5,112.1,270.2,106.7z"/>
	</g>
</g>
</svg>
