<?xml version="1.0" encoding="utf-8"?>
<!-- Generator: Adobe Illustrator 21.0.2, SVG Export Plug-In . SVG Version: 6.00 Build 0)  -->
<svg version="1.1" id="Layer_1" xmlns="http://www.w3.org/2000/svg" xmlns:xlink="http://www.w3.org/1999/xlink" x="0px" y="0px"
	 viewBox="0 0 1920 1080" style="enable-background:new 0 0 1920 1080;" xml:space="preserve">
<style type="text/css">
	.st0{fill:#C54C31;}
	.st1{fill:#FFFFFF;}
</style>
<g id="FlagTop_1_">
	<path class="st0" d="M1613,494.9c0,0,87.1-11.9,112-7.9c25,4,74.8-1.3,74.8-1.3v94c0,0-61.8,2.3-87.8-0.7c-29,0-96.9,7.6-96.9,7.6
		L1613,494.9z"/>
	<path class="st1" d="M1734,574c-8.5,0-16-1-19-2c-7,0-10.3-1-20-1c-13.9,0-58.6,0.2-70.9,3.3l-1.6-72.9c11.8-4.2,59.8-3.4,78.5-3.4
		c10,0,16.3,0.3,17,1c12.2,1.8,20,0.3,39,0c14.9-0.2,22.9,0.5,32.9-1.4v74.3C1777.1,574.4,1753.2,574,1734,574z"/>
</g>
</svg>
