<?xml version="1.0" encoding="utf-8"?>
<!-- Generator: Adobe Illustrator 21.0.2, SVG Export Plug-In . SVG Version: 6.00 Build 0)  -->
<svg version="1.1" id="Layer_1" xmlns="http://www.w3.org/2000/svg" xmlns:xlink="http://www.w3.org/1999/xlink" x="0px" y="0px"
	 viewBox="0 0 1920 1080" style="enable-background:new 0 0 1920 1080;" xml:space="preserve">
<style type="text/css">
	.st0{fill:#C54C31;}
	.st1{fill:#FFFFFF;}
</style>
<g id="FlagTop">
	<path class="st0" d="M1065,617.9c0,0,71.2-28.1,87.4-8.8c16.3,19.2,76.4,3.6,76.4,3.6v94c0,0-92.8,20.6-92.3,0
		c0.3-17-69.4,2.9-69.4,2.9L1065,617.9z"/>
	<path class="st1" d="M1160,706.2c-8.5,0-12.5-0.9-14.2-1.6c-0.3-3.1-1.7-6.1-4-8.3c-4.2-4.2-10.6-6.1-20.3-6.1
		c-13.9,0-33.1,4-45.4,7.1l-1.6-72.9c11.8-4.2,37.9-12.5,56.6-12.5c10,0,13,2.6,13.7,3.3c7.4,8.7,20.3,12.8,39.3,13
		c11.9,0.2,24.8-1.7,34.8-3.6v74.3C1206.1,701.4,1179.2,706.2,1160,706.2z"/>
</g>
<g id="FlagTop_1_">
	<path class="st0" d="M1613,494.9l120-0.9l55-1v90.7l-71,0.3l-101.8,2.6L1613,494.9z"/>
	<path class="st1" d="M1741,576h-15h-4h-22l-75,1l-1.9-75.6l87.9-0.4h15l41,1.2l10.5-0.6v74.3L1741,576z"/>
</g>
</svg>
