<?xml version="1.0" encoding="utf-8"?>
<!-- Generator: Adobe Illustrator 21.0.2, SVG Export Plug-In . SVG Version: 6.00 Build 0)  -->
<svg version="1.1" id="Projects" xmlns="http://www.w3.org/2000/svg" xmlns:xlink="http://www.w3.org/1999/xlink" x="0px" y="0px"
	 viewBox="0 0 1920 1080" style="enable-background:new 0 0 1920 1080;" xml:space="preserve">
<style type="text/css">
	.st0{fill:#F2F2F2;}
	.st1{fill:none;}
	.st2{fill:#1F1F1F;}
	.st3{font-family:'ComicSansMS';}
	.st4{font-size:24.0483px;}
	.st5{fill:#FDC56F;}
	.st6{fill:#F6931E;}
	.st7{fill:#807433;}
	.st8{fill:#CC6632;}
	.st9{fill:#F1F1F1;}
	.st10{opacity:0.7;fill:#F1F1F1;enable-background:new    ;}
	.st11{fill:#333333;}
	.st12{fill:#343432;}
	.st13{fill:#CBCBCB;}
	.st14{fill:#C54C31;}
	.st15{fill:#7D7175;}
	.st16{fill:#B2B2B2;}
	.st17{fill:#1A1A1A;}
	.st18{fill:#808080;}
	.st19{fill:#BBD6E1;}
	.st20{fill:none;stroke:#6E6351;stroke-width:0.7344;stroke-linecap:round;stroke-miterlimit:10;}
	.st21{fill:#E5E5E5;}
	.st22{fill:none;stroke:#6E6351;stroke-width:0.7344;stroke-miterlimit:10;}
	.st23{opacity:0.5;fill:none;stroke:#FFFFFF;stroke-miterlimit:10;enable-background:new    ;}
	.st24{fill:#FFFFFF;}
	.st25{font-family:'Lato', Fallback, sans-serif; font-weight: 300;}
	.st26{font-family:'Lato', Fallback, sans-serif; font-weight: 100;font-size:10em;}
	.st27{font-size:2.5em;}
	@media only screen and (min-width: 800px) {
	.st26{font-size:100px;}
	.st27{font-size:30px;}
	}


</style>
<g id="Projects">
	<g id="prSaturnPlanet">
		<circle class="st5" cx="2063.2" cy="448.4" r="441.3"/>
		<path class="st5" d="M2247,47c99.2,76.3,163.1,195.9,163.1,330.7c0,230.5-186.9,417.1-417.1,417.1
			c-134.8,0-254.4-63.9-330.7-163.1c69.7,152.1,223,257.8,401.4,257.8c243.7,0,441.3-197.6,441.3-441.3
			C2504.7,270.2,2398.9,116.6,2247,47z"/>
		<path class="st5" d="M1878.9,47c-99.2,76.3-163.1,195.9-163.1,330.7c0,230.5,186.9,417.1,417.1,417.1
			c134.8,0,254.4-63.9,330.7-163.1c-69.7,152.1-223,257.8-401.4,257.8c-243.7,0-441.3-197.6-441.3-441.3
			C1621.1,270.2,1726.7,116.6,1878.9,47z"/>
		<path class="st6" d="M1638.3,329.3c-7.6,27.3-12.6,55.4-14.9,84.5c168-69.5,309.2-224.5,375.6-402c-29.1,4.3-57.3,11.4-84.1,21.1
			C1856.9,158.8,1756.9,268.1,1638.3,329.3z"/>
		<path class="st7" d="M1639.3,570.9c13.6,47.3,35.1,91.6,62.8,131C1981,627,2218,362.2,2289.8,69.5
			c-40.5-24.2-85.4-42.2-132.9-52.5C2091.5,273.3,1883.6,504.6,1639.3,570.9z"/>
		<path class="st8" d="M2254.6,50.5c0,0,39.3,20.7,53.9,30.8c65.9-31.8,116.2-39.5,139.3-16.5c56,56-69.9,272.8-281.1,484.3
			c-211.5,211.5-428.3,337.3-484.3,281.3c-22.5-22.5-15.7-71.3,14.7-135.4c0,0-21.3-34.5-31.6-55.2
			c-107.7,165.2-149.2,302.8-94.7,357.4c87.8,87.8,392.3-73.8,679.8-361.3S2700.1,44.1,2612-44C2557.4-98.6,2419.8-57.2,2254.6,50.5
			z"/>
	</g>
	<g>
		<g id="prSmoke">
			<g>
				<g id="prWhiteSmoke">
					<path class="st9" d="M1016.2,1145.9c35.3-5.2,43.2-17,45.5-23.3c4.5-12.3-9.3-34-37.1-76.9c-22.5-34.7-27.5-38.1-27.8-50.4
						c-0.3-9.9,2.3-28.2-6.6-42.4c-0.9-1.5-2.2-3.6-3.9-6.9c-1.5-3.1-2.6-8.5-3.4-26.3c-1.3-29.3,3.6-50.6,2.8-66.6
						c-10.7-0.1-21.3-0.1-32-0.2c2.4,38,15.8,97.9,2,123.1c-10.6,19.4-2.8,58.1-5.3,84.8c-22,11.1-28.2,21.2-28.5,29.2
						c-0.3,7.2,4.2,11,2.6,16.8c-2.7,9.4-19.1,13.4-35.7,15c-21.3,8.7-25.6,14.7-25.2,18.6c1.2,12.8,53.8,21.3,98.1,17.2
						C984.8,1155.6,1003.6,1150.3,1016.2,1145.9z"/>
					<path class="st9" d="M1057.4,1071.7c-13.7,20.9-13.6,45.7-0.8,61c8.9,10.7,21.5,13.6,26.8,14.5c-0.1,0-0.2-0.1-0.2-0.1
						c0-0.7,16.7,1.4,32.2,0.1c6.2-0.5,14.7-1.8,24.8-5.2c6.8-5,15.1-13,17.3-24.2c3-15.2-7.4-25.4-17.3-44.2
						c-7-13.4-11.6-36.4-20.6-82.3c-5.6-28.5-8.4-42.7-9.3-59.1c-1.7-30.2,2.1-55.2,5.8-72.1c-10.7-0.1-21.3-0.1-32-0.2
						c6.1,30.4,11,76.6-0.8,130.1c-4.7,21.4-11.3,40-18.1,55.7C1062.6,1054.4,1060,1063,1057.4,1071.7z"/>

						<ellipse transform="matrix(5.733179e-03 -1 1 5.733179e-03 158.5197 2265.3137)" class="st9" cx="1218.4" cy="1052.9" rx="5.4" ry="5.4"/>

						<ellipse transform="matrix(5.733179e-03 -1 1 5.733179e-03 140.281 2148.1929)" class="st9" cx="1150.4" cy="1003.6" rx="7.4" ry="7.4"/>

						<ellipse transform="matrix(5.733179e-03 -1 1 5.733179e-03 167.1581 2151.9841)" class="st9" cx="1165.8" cy="991.9" rx="4.3" ry="4.3"/>

						<ellipse transform="matrix(5.733179e-03 -1 1 5.733179e-03 -133.2929 1930.0889)" class="st9" cx="903.9" cy="1032.1" rx="3.1" ry="3.1"/>
				</g>
			</g>
			<g id="SmokeOne">
				<path class="st10" d="M1180.3,1109.2c0.2-1.1,0-4.9-1.7-5.6c-0.7-0.3-1.8-0.1-3.2,0c-0.5,0.1-1.1,0.2-1.6,0.3
					c0.1-0.2,0.1-0.5,0.1-0.7c0.5-5.1-3.1-9.6-8.2-10.1c-1.2-0.1-2.4,0-3.5,0.3c0-0.2,0.1-0.4,0.1-0.7c0.9-8.8-5.4-16.6-14.2-17.5
					c-0.6-0.1-1.2-0.1-1.8-0.1c-1.7-7.9-8.3-14.1-16.8-14.9c-6.2-0.6-12.1,1.8-16,6l-12.8-3.3l-9.2,6.8c-0.3,0.3-0.6,0.6-0.9,0.9
					c-0.3-0.1-0.7-0.2-1.1-0.3c0.5-6.9-4.5-13-11.4-13.7c-5.5-0.6-10.6,2.4-12.8,7.2c-2.7-5.4-8-9.4-14.5-10
					c-0.8-0.1-1.7-0.1-2.6-0.1c0-0.1,0-0.1,0-0.2c0.5-4.8-3-9.1-7.8-9.6s-9.1,3-9.6,7.8c-0.4,3.5,1.4,6.7,4.2,8.4
					c-0.9,1.1-1.6,2.1-2.2,3.3c-1.4-2.7-3.5-4.9-6.1-6.4l-8.3-7.8l-12.1-4.7c-1.9-1-4-1.7-6.2-1.9c-5.6-0.6-10.7,1.5-14.3,5.3
					c-0.4-0.1-0.8-0.2-1.3-0.3c-4.4-0.5-8.4,2.8-8.8,7.2c-0.2,2.1,0.4,4.1,1.6,5.6c-4.9,1.9-8.7,5.9-10.4,10.9c-1.6-0.6-3.2-1-5-1.2
					c-0.6-0.1-1.1-0.1-1.6-0.1c-0.9-3.3-3.6-5.9-7.1-6.2c-4.5-0.5-8.6,2.8-9.1,7.4c-0.2,1.9,0.3,3.7,1.1,5.1c-2,2.2-3.6,4.8-4.6,7.8
					c-1.4,0.3-2.8,0.7-4.1,1.2c0.3-0.5,0.5-1.1,0.6-1.7c0.2-2.4-1.4-4.4-3.8-4.6s-4.4,1.4-4.6,3.8s1.4,4.4,3.8,4.6h0.1
					c-4.5,0.1-7.3,3.7-6.8,6.6c0.4,2.1,2.6,3.9,5.4,4.3c6,1.6,14.7,4,25.3,6.8c19.5,5.2,29.3,7.8,33.1,8.7
					c12.4,2.8,30.5,5.1,54.7,2.4c23.9,0.5,44,0.8,59,0.9C1129.1,1117.3,1179,1117.5,1180.3,1109.2z"/>
				<path class="st10" d="M1260.8,1201c0.2-1.1,0-4.9-1.7-5.6c-0.7-0.3-1.8-0.1-3.2,0c-0.5,0.1-1.1,0.2-1.6,0.3
					c0.1-0.2,0.1-0.5,0.1-0.7c0.5-5.1-3.1-9.6-8.2-10.1c-1.2-0.1-2.4,0-3.5,0.3c0-0.2,0.1-0.4,0.1-0.7c0.9-8.8-5.4-16.6-14.2-17.5
					c-0.6-0.1-1.2-0.1-1.8-0.1c-1.7-7.9-8.3-14.1-16.8-14.9c-6.2-0.6-12.1,1.8-16,6l-12.8-3.3l-9.2,6.8c-0.3,0.3-0.6,0.6-0.9,0.9
					c-0.3-0.1-0.7-0.2-1.1-0.3c0.5-6.9-4.5-13-11.4-13.7c-5.5-0.6-10.6,2.4-12.8,7.2c-2.7-5.4-8-9.4-14.5-10
					c-0.8-0.1-1.7-0.1-2.6-0.1c0-0.1,0-0.1,0-0.2c0.5-4.8-3-9.1-7.8-9.6s-9.1,3-9.6,7.8c-0.4,3.5,1.4,6.7,4.2,8.4
					c-0.9,1.1-1.6,2.1-2.2,3.3c-1.4-2.7-3.5-4.9-6.1-6.4l-8.3-7.8l-12.1-4.7c-1.9-1-4-1.7-6.2-1.9c-5.6-0.6-10.7,1.5-14.3,5.3
					c-0.4-0.1-0.8-0.2-1.3-0.3c-4.4-0.5-8.4,2.8-8.8,7.2c-0.2,2.1,0.4,4.1,1.6,5.6c-4.9,1.9-8.7,5.9-10.4,10.9c-1.6-0.6-3.2-1-5-1.2
					c-0.6-0.1-1.1-0.1-1.6-0.1c-0.9-3.3-3.6-5.9-7.1-6.2c-4.5-0.5-8.6,2.8-9.1,7.4c-0.2,1.9,0.3,3.7,1.1,5.1c-2,2.2-3.6,4.8-4.6,7.8
					c-1.4,0.3-2.8,0.7-4.1,1.2c0.3-0.5,0.5-1.1,0.6-1.7c0.2-2.4-1.4-4.4-3.8-4.6s-4.4,1.4-4.6,3.8s1.4,4.4,3.8,4.6h0.1
					c-4.5,0.1-7.3,3.7-6.8,6.6c0.4,2.1,2.6,3.9,5.4,4.3c6,1.6,14.7,4,25.3,6.8c19.5,5.2,29.3,7.8,33.1,8.7
					c12.4,2.8,30.5,5.1,54.7,2.4c23.9,0.5,44,0.8,59,0.9C1209.6,1209.1,1259.5,1209.3,1260.8,1201z"/>
				<path class="st10" d="M1326.8,1238.4c0.2-1.1,0-4.9-1.7-5.6c-0.7-0.3-1.8-0.1-3.2,0c-0.5,0.1-1.1,0.2-1.6,0.3
					c0.1-0.2,0.1-0.5,0.1-0.7c0.5-5.1-3.1-9.6-8.2-10.1c-1.2-0.1-2.4,0-3.5,0.3c0-0.2,0.1-0.4,0.1-0.7c0.9-8.8-5.4-16.6-14.2-17.5
					c-0.6-0.1-1.2-0.1-1.8-0.1c-1.7-7.9-8.3-14.1-16.8-14.9c-6.2-0.6-12.1,1.8-16,6l-12.8-3.3l-9.2,6.8c-0.3,0.3-0.6,0.6-0.9,0.9
					c-0.3-0.1-0.7-0.2-1.1-0.3c0.5-6.9-4.5-13-11.4-13.7c-5.5-0.6-10.6,2.4-12.8,7.2c-2.7-5.4-8-9.4-14.5-10
					c-0.8-0.1-1.7-0.1-2.6-0.1c0-0.1,0-0.1,0-0.2c0.5-4.8-3-9.1-7.8-9.6s-9.1,3-9.6,7.8c-0.4,3.5,1.4,6.7,4.2,8.4
					c-0.9,1.1-1.6,2.1-2.2,3.3c-1.4-2.7-3.5-4.9-6.1-6.4l-8.3-7.8l-12.1-4.7c-1.9-1-4-1.7-6.2-1.9c-5.6-0.6-10.7,1.5-14.3,5.3
					c-0.4-0.1-0.8-0.2-1.3-0.3c-4.4-0.5-8.4,2.8-8.8,7.2c-0.2,2.1,0.4,4.1,1.6,5.6c-4.9,1.9-8.7,5.9-10.4,10.9c-1.6-0.6-3.2-1-5-1.2
					c-0.6-0.1-1.1-0.1-1.6-0.1c-0.9-3.3-3.6-5.9-7.1-6.2c-4.5-0.5-8.6,2.8-9.1,7.4c-0.2,1.9,0.3,3.7,1.1,5.1c-2,2.2-3.6,4.8-4.6,7.8
					c-1.4,0.3-2.8,0.7-4.1,1.2c0.3-0.5,0.5-1.1,0.6-1.7c0.2-2.4-1.4-4.4-3.8-4.6s-4.4,1.4-4.6,3.8s1.4,4.4,3.8,4.6h0.1
					c-4.5,0.1-7.3,3.7-6.8,6.6c0.4,2.1,2.6,3.9,5.4,4.3c6,1.6,14.7,4,25.3,6.8c19.5,5.2,29.3,7.8,33.1,8.7
					c12.4,2.8,30.5,5.1,54.7,2.4c23.9,0.5,44,0.8,59,0.9C1275.6,1246.5,1325.5,1246.7,1326.8,1238.4z"/>
				<path class="st10" d="M1066.9,1201c0.2-1.1,0-4.9-1.7-5.6c-0.7-0.3-1.8-0.1-3.2,0c-0.5,0.1-1.1,0.2-1.6,0.3
					c0.1-0.2,0.1-0.5,0.1-0.7c0.5-5.1-3.1-9.6-8.2-10.1c-1.2-0.1-2.4,0-3.5,0.3c0-0.2,0.1-0.4,0.1-0.7c0.9-8.8-5.4-16.6-14.2-17.5
					c-0.6-0.1-1.2-0.1-1.8-0.1c-1.7-7.9-8.3-14.1-16.8-14.9c-6.2-0.6-12.1,1.8-16,6l-12.8-3.3l-9.2,6.8c-0.3,0.3-0.6,0.6-0.9,0.9
					c-0.3-0.1-0.7-0.2-1.1-0.3c0.5-6.9-4.5-13-11.4-13.7c-5.5-0.6-10.6,2.4-12.8,7.2c-2.7-5.4-8-9.4-14.5-10
					c-0.8-0.1-1.7-0.1-2.6-0.1c0-0.1,0-0.1,0-0.2c0.5-4.8-3-9.1-7.8-9.6s-9.1,3-9.6,7.8c-0.4,3.5,1.4,6.7,4.2,8.4
					c-0.9,1.1-1.6,2.1-2.2,3.3c-1.4-2.7-3.5-4.9-6.1-6.4l-8.3-7.8l-12.1-4.7c-1.9-1-4-1.7-6.2-1.9c-5.6-0.6-10.7,1.5-14.3,5.3
					c-0.4-0.1-0.8-0.2-1.3-0.3c-4.4-0.5-8.4,2.8-8.8,7.2c-0.2,2.1,0.4,4.1,1.6,5.6c-4.9,1.9-8.7,5.9-10.4,10.9c-1.6-0.6-3.2-1-5-1.2
					c-0.6-0.1-1.1-0.1-1.6-0.1c-0.9-3.3-3.6-5.9-7.1-6.2c-4.5-0.5-8.6,2.8-9.1,7.4c-0.2,1.9,0.3,3.7,1.1,5.1c-2,2.2-3.6,4.8-4.6,7.8
					c-1.4,0.3-2.8,0.7-4.1,1.2c0.3-0.5,0.5-1.1,0.6-1.7c0.2-2.4-1.4-4.4-3.8-4.6s-4.4,1.4-4.6,3.8s1.4,4.4,3.8,4.6h0.1
					c-4.5,0.1-7.3,3.7-6.8,6.6c0.4,2.1,2.6,3.9,5.4,4.3c6,1.6,14.7,4,25.3,6.8c19.5,5.2,29.3,7.8,33.1,8.7
					c12.4,2.8,30.5,5.1,54.7,2.4c23.9,0.5,44,0.8,59,0.9C1015.7,1209.1,1065.6,1209.3,1066.9,1201z"/>
				<path class="st10" d="M1150.5,1248.4c0.2-1.1,0-4.9-1.7-5.6c-0.7-0.3-1.8-0.1-3.2,0c-0.5,0.1-1.1,0.2-1.6,0.3
					c0.1-0.2,0.1-0.5,0.1-0.7c0.5-5.1-3.1-9.6-8.2-10.1c-1.2-0.1-2.4,0-3.5,0.3c0-0.2,0.1-0.4,0.1-0.7c0.9-8.8-5.4-16.6-14.2-17.5
					c-0.6-0.1-1.2-0.1-1.8-0.1c-1.7-7.9-8.3-14.1-16.8-14.9c-6.2-0.6-12.1,1.8-16,6l-12.8-3.3l-9.2,6.8c-0.3,0.3-0.6,0.6-0.9,0.9
					c-0.3-0.1-0.7-0.2-1.1-0.3c0.5-6.9-4.5-13-11.4-13.7c-5.5-0.6-10.6,2.4-12.8,7.2c-2.7-5.4-8-9.4-14.5-10
					c-0.8-0.1-1.7-0.1-2.6-0.1c0-0.1,0-0.1,0-0.2c0.5-4.8-3-9.1-7.8-9.6s-9.1,3-9.6,7.8c-0.4,3.5,1.4,6.7,4.2,8.4
					c-0.9,1.1-1.6,2.1-2.2,3.3c-1.4-2.7-3.5-4.9-6.1-6.4l-8.3-7.8l-12.1-4.7c-1.9-1-4-1.7-6.2-1.9c-5.6-0.6-10.7,1.5-14.3,5.3
					c-0.4-0.1-0.8-0.2-1.3-0.3c-4.4-0.5-8.4,2.8-8.8,7.2c-0.2,2.1,0.4,4.1,1.6,5.6c-4.9,1.9-8.7,5.9-10.4,10.9c-1.6-0.6-3.2-1-5-1.2
					c-0.6-0.1-1.1-0.1-1.6-0.1c-0.9-3.3-3.6-5.9-7.1-6.2c-4.5-0.5-8.6,2.8-9.1,7.4c-0.2,1.9,0.3,3.7,1.1,5.1c-2,2.2-3.6,4.8-4.6,7.8
					c-1.4,0.3-2.8,0.7-4.1,1.2c0.3-0.5,0.5-1.1,0.6-1.7c0.2-2.4-1.4-4.4-3.8-4.6s-4.4,1.4-4.6,3.8s1.4,4.4,3.8,4.6h0.1
					c-4.5,0.1-7.3,3.7-6.8,6.6c0.4,2.1,2.6,3.9,5.4,4.3c6,1.6,14.7,4,25.3,6.8c19.5,5.2,29.3,7.8,33.1,8.7
					c12.4,2.8,30.5,5.1,54.7,2.4c23.9,0.5,44,0.8,59,0.9C1099.3,1256.5,1149.2,1256.7,1150.5,1248.4z"/>
				<path class="st10" d="M1277.7,1302.8c0.2-1.1,0-4.9-1.7-5.6c-0.7-0.3-1.8-0.1-3.2,0c-0.5,0.1-1.1,0.2-1.6,0.3
					c0.1-0.2,0.1-0.5,0.1-0.7c0.5-5.1-3.1-9.6-8.2-10.1c-1.2-0.1-2.4,0-3.5,0.3c0-0.2,0.1-0.4,0.1-0.7c0.9-8.8-5.4-16.6-14.2-17.5
					c-0.6-0.1-1.2-0.1-1.8-0.1c-1.7-7.9-8.3-14.1-16.8-14.9c-6.2-0.6-12.1,1.8-16,6l-12.8-3.3l-9.2,6.8c-0.3,0.3-0.6,0.6-0.9,0.9
					c-0.3-0.1-0.7-0.2-1.1-0.3c0.5-6.9-4.5-13-11.4-13.7c-5.5-0.6-10.6,2.4-12.8,7.2c-2.7-5.4-8-9.4-14.5-10
					c-0.8-0.1-1.7-0.1-2.6-0.1c0-0.1,0-0.1,0-0.2c0.5-4.8-3-9.1-7.8-9.6s-9.1,3-9.6,7.8c-0.4,3.5,1.4,6.7,4.2,8.4
					c-0.9,1.1-1.6,2.1-2.2,3.3c-1.4-2.7-3.5-4.9-6.1-6.4l-8.3-7.8l-12.1-4.7c-1.9-1-4-1.7-6.2-1.9c-5.6-0.6-10.7,1.5-14.3,5.3
					c-0.4-0.1-0.8-0.2-1.3-0.3c-4.4-0.5-8.4,2.8-8.8,7.2c-0.2,2.1,0.4,4.1,1.6,5.6c-4.9,1.9-8.7,5.9-10.4,10.9c-1.6-0.6-3.2-1-5-1.2
					c-0.6-0.1-1.1-0.1-1.6-0.1c-0.9-3.3-3.6-5.9-7.1-6.2c-4.5-0.5-8.6,2.8-9.1,7.4c-0.2,1.9,0.3,3.7,1.1,5.1c-2,2.2-3.6,4.8-4.6,7.8
					c-1.4,0.3-2.8,0.7-4.1,1.2c0.3-0.5,0.5-1.1,0.6-1.7c0.2-2.4-1.4-4.4-3.8-4.6s-4.4,1.4-4.6,3.8s1.4,4.4,3.8,4.6h0.1
					c-4.5,0.1-7.3,3.7-6.8,6.6c0.4,2.1,2.6,3.9,5.4,4.3c6,1.6,14.7,4,25.3,6.8c19.5,5.2,29.3,7.8,33.1,8.7
					c12.4,2.8,30.5,5.1,54.7,2.4c23.9,0.5,44,0.8,59,0.9C1226.5,1310.9,1276.4,1311.1,1277.7,1302.8z"/>
				<path class="st10" d="M1284.8,1321.1c0.2-1.1,0-4.9-1.7-5.6c-0.7-0.3-1.8-0.1-3.2,0c-0.5,0.1-1.1,0.2-1.6,0.3
					c0.1-0.2,0.1-0.5,0.1-0.7c0.5-5.1-3.1-9.6-8.2-10.1c-1.2-0.1-2.4,0-3.5,0.3c0-0.2,0.1-0.4,0.1-0.7c0.9-8.8-5.4-16.6-14.2-17.5
					c-0.6-0.1-1.2-0.1-1.8-0.1c-1.7-7.9-8.3-14.1-16.8-14.9c-6.2-0.6-12.1,1.8-16,6l-12.8-3.3l-9.2,6.8c-0.3,0.3-0.6,0.6-0.9,0.9
					c-0.3-0.1-0.7-0.2-1.1-0.3c0.5-6.9-4.5-13-11.4-13.7c-5.5-0.6-10.6,2.4-12.8,7.2c-2.7-5.4-8-9.4-14.5-10
					c-0.8-0.1-1.7-0.1-2.6-0.1c0-0.1,0-0.1,0-0.2c0.5-4.8-3-9.1-7.8-9.6s-9.1,3-9.6,7.8c-0.4,3.5,1.4,6.7,4.2,8.4
					c-0.9,1.1-1.6,2.1-2.2,3.3c-1.4-2.7-3.5-4.9-6.1-6.4l-8.3-7.8l-12.1-4.7c-1.9-1-4-1.7-6.2-1.9c-5.6-0.6-10.7,1.5-14.3,5.3
					c-0.4-0.1-0.8-0.2-1.3-0.3c-4.4-0.5-8.4,2.8-8.8,7.2c-0.2,2.1,0.4,4.1,1.6,5.6c-4.9,1.9-8.7,5.9-10.4,10.9c-1.6-0.6-3.2-1-5-1.2
					c-0.6-0.1-1.1-0.1-1.6-0.1c-0.9-3.3-3.6-5.9-7.1-6.2c-4.5-0.5-8.6,2.8-9.1,7.4c-0.2,1.9,0.3,3.7,1.1,5.1c-2,2.2-3.6,4.8-4.6,7.8
					c-1.4,0.3-2.8,0.7-4.1,1.2c0.3-0.5,0.5-1.1,0.6-1.7c0.2-2.4-1.4-4.4-3.8-4.6s-4.4,1.4-4.6,3.8s1.4,4.4,3.8,4.6h0.1
					c-4.5,0.1-7.3,3.7-6.8,6.6c0.4,2.1,2.6,3.9,5.4,4.3c6,1.6,14.7,4,25.3,6.8c19.5,5.2,29.3,7.8,33.1,8.7
					c12.4,2.8,30.5,5.1,54.7,2.4c23.9,0.5,44,0.8,59,0.9C1233.6,1329.2,1283.5,1329.4,1284.8,1321.1z"/>
				<path class="st10" d="M1123.5,1308.4c0.2-1.1,0-4.9-1.7-5.6c-0.7-0.3-1.8-0.1-3.2,0c-0.5,0.1-1.1,0.2-1.6,0.3
					c0.1-0.2,0.1-0.5,0.1-0.7c0.5-5.1-3.1-9.6-8.2-10.1c-1.2-0.1-2.4,0-3.5,0.3c0-0.2,0.1-0.4,0.1-0.7c0.9-8.8-5.4-16.6-14.2-17.5
					c-0.6-0.1-1.2-0.1-1.8-0.1c-1.7-7.9-8.3-14.1-16.8-14.9c-6.2-0.6-12.1,1.8-16,6l-12.8-3.3l-9.2,6.8c-0.3,0.3-0.6,0.6-0.9,0.9
					c-0.3-0.1-0.7-0.2-1.1-0.3c0.5-6.9-4.5-13-11.4-13.7c-5.5-0.6-10.6,2.4-12.8,7.2c-2.7-5.4-8-9.4-14.5-10
					c-0.8-0.1-1.7-0.1-2.6-0.1c0-0.1,0-0.1,0-0.2c0.5-4.8-3-9.1-7.8-9.6s-9.1,3-9.6,7.8c-0.4,3.5,1.4,6.7,4.2,8.4
					c-0.9,1.1-1.6,2.1-2.2,3.3c-1.4-2.7-3.5-4.9-6.1-6.4l-8.3-7.8l-12.1-4.7c-1.9-1-4-1.7-6.2-1.9c-5.6-0.6-10.7,1.5-14.3,5.3
					c-0.4-0.1-0.8-0.2-1.3-0.3c-4.4-0.5-8.4,2.8-8.8,7.2c-0.2,2.1,0.4,4.1,1.6,5.6c-4.9,1.9-8.7,5.9-10.4,10.9c-1.6-0.6-3.2-1-5-1.2
					c-0.6-0.1-1.1-0.1-1.6-0.1c-0.9-3.3-3.6-5.9-7.1-6.2c-4.5-0.5-8.6,2.8-9.1,7.4c-0.2,1.9,0.3,3.7,1.1,5.1c-2,2.2-3.6,4.8-4.6,7.8
					c-1.4,0.3-2.8,0.7-4.1,1.2c0.3-0.5,0.5-1.1,0.6-1.7c0.2-2.4-1.4-4.4-3.8-4.6s-4.4,1.4-4.6,3.8s1.4,4.4,3.8,4.6h0.1
					c-4.5,0.1-7.3,3.7-6.8,6.6c0.4,2.1,2.6,3.9,5.4,4.3c6,1.6,14.7,4,25.3,6.8c19.5,5.2,29.3,7.8,33.1,8.7
					c12.4,2.8,30.5,5.1,54.7,2.4c23.9,0.5,44,0.8,59,0.9C1072.3,1316.5,1122.2,1316.7,1123.5,1308.4z"/>
				<path class="st10" d="M975.2,1321.1c0.2-1.1,0-4.9-1.7-5.6c-0.7-0.3-1.8-0.1-3.2,0c-0.5,0.1-1.1,0.2-1.6,0.3
					c0.1-0.2,0.1-0.5,0.1-0.7c0.5-5.1-3.1-9.6-8.2-10.1c-1.2-0.1-2.4,0-3.5,0.3c0-0.2,0.1-0.4,0.1-0.7c0.9-8.8-5.4-16.6-14.2-17.5
					c-0.6-0.1-1.2-0.1-1.8-0.1c-1.7-7.9-8.3-14.1-16.8-14.9c-6.2-0.6-12.1,1.8-16,6l-12.8-3.3l-9.2,6.8c-0.3,0.3-0.6,0.6-0.9,0.9
					c-0.3-0.1-0.7-0.2-1.1-0.3c0.5-6.9-4.5-13-11.4-13.7c-5.5-0.6-10.6,2.4-12.8,7.2c-2.7-5.4-8-9.4-14.5-10
					c-0.8-0.1-1.7-0.1-2.6-0.1c0-0.1,0-0.1,0-0.2c0.5-4.8-3-9.1-7.8-9.6s-9.1,3-9.6,7.8c-0.4,3.5,1.4,6.7,4.2,8.4
					c-0.9,1.1-1.6,2.1-2.2,3.3c-1.4-2.7-3.5-4.9-6.1-6.4l-8.3-7.8l-12.1-4.7c-1.9-1-4-1.7-6.2-1.9c-5.6-0.6-10.7,1.5-14.3,5.3
					c-0.4-0.1-0.8-0.2-1.3-0.3c-4.4-0.5-8.4,2.8-8.8,7.2c-0.2,2.1,0.4,4.1,1.6,5.6c-4.9,1.9-8.7,5.9-10.4,10.9c-1.6-0.6-3.2-1-5-1.2
					c-0.6-0.1-1.1-0.1-1.6-0.1c-0.9-3.3-3.6-5.9-7.1-6.2c-4.5-0.5-8.6,2.8-9.1,7.4c-0.2,1.9,0.3,3.7,1.1,5.1c-2,2.2-3.6,4.8-4.6,7.8
					c-1.4,0.3-2.8,0.7-4.1,1.2c0.3-0.5,0.5-1.1,0.6-1.7c0.2-2.4-1.4-4.4-3.8-4.6s-4.4,1.4-4.6,3.8s1.4,4.4,3.8,4.6h0.1
					c-4.5,0.1-7.3,3.7-6.8,6.6c0.4,2.1,2.6,3.9,5.4,4.3c6,1.6,14.7,4,25.3,6.8c19.5,5.2,29.3,7.8,33.1,8.7
					c12.4,2.8,30.5,5.1,54.7,2.4c23.9,0.5,44,0.8,59,0.9C924,1329.2,973.9,1329.4,975.2,1321.1z"/>
			</g>
			<g id="SmokeTwo">
				<path class="st10" d="M1127.1,1114c1.8-2.8,1.2-7.8-1.2-9.8c-1.7-1.4-5-1.1-11.7-0.7c-1.5,0.1-2.7,0.2-3.5,0.3
					c0-0.2,0.1-0.4,0.1-0.7c0.9-8.8-5.4-16.6-14.2-17.5c-0.6-0.1-1.2-0.1-1.8-0.1c-1.7-7.9-8.3-14.1-16.8-14.9
					c-6.2-0.6-12.1,1.8-16,6l-12.8-3.3l-9.2,6.8c-0.3,0.3-0.6,0.6-0.9,0.9c-0.3-0.1-0.7-0.2-1.1-0.3c0.5-6.9-4.5-13-11.4-13.7
					c-5.5-0.6-10.6,2.4-12.8,7.2c-2.7-5.4-8-9.4-14.5-10c-0.8-0.1-1.7-0.1-2.6-0.1c0.6-4.9-2.9-9.3-7.8-9.8c-4.8-0.5-9.1,3-9.6,7.8
					c-0.4,3.5,1.4,6.7,4.2,8.4c-0.9,1.1-1.6,2.1-2.2,3.3c-1.4-2.7-3.5-4.9-6.1-6.4l-8.3-7.8l-12.1-4.7c-1.9-1-4-1.7-6.2-1.9
					c-5.6-0.6-10.7,1.5-14.3,5.3c-0.4-0.1-0.8-0.2-1.3-0.3c-4.4-0.5-8.4,2.8-8.8,7.2c-0.2,2.1,0.4,4.1,1.6,5.6
					c-4.9,1.9-8.7,5.9-10.4,10.9c-1.6-0.6-3.2-1-5-1.2c-0.6-0.1-1.1-0.1-1.6-0.1c-0.9-3.3-3.6-5.9-7.1-6.2c-4.5-0.5-8.6,2.8-9.1,7.4
					c-0.2,1.9,0.3,3.7,1.1,5.1c-2,2.2-3.6,4.8-4.6,7.8c-1.4,0.3-2.8,0.7-4.1,1.2c0.3-0.5,0.5-1.1,0.6-1.7c0.2-2.4-1.4-4.4-3.8-4.6
					c-2.5-0.2-4.5,1.6-4.6,4c-0.1,2.3,1.5,4.2,3.8,4.4h0.1c-5.3,3.4-16.7,32.1,1.8,23.3c0,0,3.8,12.6,29.4,2.2
					c25.6-10.3,32.9,11.5,54.1-0.6c21.2-12.1,2.5,15.2,1.4,0s17.9,7.2,29.4-1.8s18.5,4,39.7-2.5c21.2-6.5,28.9-5.3,39.2-2.5
					c10.3,2.8,29.3-1.8,29.3-1.8C1115.5,1119,1124.4,1118.3,1127.1,1114z"/>
				<path class="st10" d="M1103.8,1158.3c1.8-2.8,1.2-7.8-1.2-9.8c-1.7-1.4-5-1.1-11.7-0.7c-1.5,0.1-2.7,0.2-3.5,0.3
					c0-0.2,0.1-0.4,0.1-0.7c0.9-8.8-5.4-16.6-14.2-17.5c-0.6-0.1-1.2-0.1-1.8-0.1c-1.7-7.9-8.3-14.1-16.8-14.9
					c-6.2-0.6-12.1,1.8-16,6l-12.8-3.3l-9.2,6.8c-0.3,0.3-0.6,0.6-0.9,0.9c-0.3-0.1-0.7-0.2-1.1-0.3c0.5-6.9-4.5-13-11.4-13.7
					c-5.5-0.6-10.6,2.4-12.8,7.2c-2.7-5.4-8-9.4-14.5-10c-0.8-0.1-1.7-0.1-2.6-0.1c0.6-4.9-2.9-9.3-7.8-9.8c-4.8-0.5-9.1,3-9.6,7.8
					c-0.4,3.5,1.4,6.7,4.2,8.4c-0.9,1.1-1.6,2.1-2.2,3.3c-1.4-2.7-3.5-4.9-6.1-6.4l-8.3-7.8l-12.1-4.7c-1.9-1-4-1.7-6.2-1.9
					c-5.6-0.6-10.7,1.5-14.3,5.3c-0.4-0.1-0.8-0.2-1.3-0.3c-4.4-0.5-8.4,2.8-8.8,7.2c-0.2,2.1,0.4,4.1,1.6,5.6
					c-4.9,1.9-8.7,5.9-10.4,10.9c-1.6-0.6-3.2-1-5-1.2c-0.6-0.1-1.1-0.1-1.6-0.1c-0.9-3.3-3.6-5.9-7.1-6.2c-4.5-0.5-8.6,2.8-9.1,7.4
					c-0.2,1.9,0.3,3.7,1.1,5.1c-2,2.2-3.6,4.8-4.6,7.8c-1.4,0.3-2.8,0.7-4.1,1.2c0.3-0.5,0.5-1.1,0.6-1.7c0.2-2.4-1.4-4.4-3.8-4.6
					c-2.5-0.2-4.5,1.6-4.6,4c-0.1,2.3,1.5,4.2,3.8,4.4h0.1c-5.3,3.4-16.7,32.1,1.8,23.3c0,0,3.8,12.6,29.4,2.2
					c25.6-10.3,32.9,11.5,54.1-0.6c21.2-12.1,2.5,15.2,1.4,0s17.9,7.2,29.4-1.8s18.5,4,39.7-2.5s28.9-5.3,39.2-2.5
					c10.3,2.8,29.3-1.8,29.3-1.8C1092.2,1163.2,1101.1,1162.5,1103.8,1158.3z"/>
				<path class="st10" d="M1230.7,1128.8c1.8-2.8,1.2-7.8-1.2-9.8c-1.7-1.4-5-1.1-11.7-0.7c-1.5,0.1-2.7,0.2-3.5,0.3
					c0-0.2,0.1-0.4,0.1-0.7c0.9-8.8-5.4-16.6-14.2-17.5c-0.6-0.1-1.2-0.1-1.8-0.1c-1.7-7.9-8.3-14.1-16.8-14.9
					c-6.2-0.6-12.1,1.8-16,6l-12.8-3.3l-9.2,6.8c-0.3,0.3-0.6,0.6-0.9,0.9c-0.3-0.1-0.7-0.2-1.1-0.3c0.5-6.9-4.5-13-11.4-13.7
					c-5.5-0.6-10.6,2.4-12.8,7.2c-2.7-5.4-8-9.4-14.5-10c-0.8-0.1-1.7-0.1-2.6-0.1c0.6-4.9-2.9-9.3-7.8-9.8c-4.8-0.5-9.1,3-9.6,7.8
					c-0.4,3.5,1.4,6.7,4.2,8.4c-0.9,1.1-1.6,2.1-2.2,3.3c-1.4-2.7-3.5-4.9-6.1-6.4l-8.3-7.8l-12.1-4.7c-1.9-1-4-1.7-6.2-1.9
					c-5.6-0.6-10.7,1.5-14.3,5.3c-0.4-0.1-0.8-0.2-1.3-0.3c-4.4-0.5-8.4,2.8-8.8,7.2c-0.2,2.1,0.4,4.1,1.6,5.6
					c-4.9,1.9-8.7,5.9-10.4,10.9c-1.6-0.6-3.2-1-5-1.2c-0.6-0.1-1.1-0.1-1.6-0.1c-0.9-3.3-3.6-5.9-7.1-6.2c-4.5-0.5-8.6,2.8-9.1,7.4
					c-0.2,1.9,0.3,3.7,1.1,5.1c-2,2.2-3.6,4.8-4.6,7.8c-1.4,0.3-2.8,0.7-4.1,1.2c0.3-0.5,0.5-1.1,0.6-1.7c0.2-2.4-1.4-4.4-3.8-4.6
					c-2.5-0.2-4.5,1.6-4.6,4c-0.1,2.3,1.5,4.2,3.8,4.4h0.1c-5.3,3.4-16.7,32.1,1.8,23.3c0,0,3.8,12.6,29.4,2.2
					c25.6-10.3,32.9,11.5,54.1-0.6c21.2-12.1,2.5,15.2,1.4,0s17.9,7.2,29.4-1.8s18.5,4,39.7-2.5c21.2-6.5,28.9-5.3,39.2-2.5
					c10.3,2.8,29.3-1.8,29.3-1.8C1219.1,1133.8,1228,1133.1,1230.7,1128.8z"/>
				<path class="st10" d="M1296.7,1175.5c1.8-2.8,1.2-7.8-1.2-9.8c-1.7-1.4-5-1.1-11.7-0.7c-1.5,0.1-2.7,0.2-3.5,0.3
					c0-0.2,0.1-0.4,0.1-0.7c0.9-8.8-5.4-16.6-14.2-17.5c-0.6-0.1-1.2-0.1-1.8-0.1c-1.7-7.9-8.3-14.1-16.8-14.9
					c-6.2-0.6-12.1,1.8-16,6l-12.8-3.3l-9.2,6.8c-0.3,0.3-0.6,0.6-0.9,0.9c-0.3-0.1-0.7-0.2-1.1-0.3c0.5-6.9-4.5-13-11.4-13.7
					c-5.5-0.6-10.6,2.4-12.8,7.2c-2.7-5.4-8-9.4-14.5-10c-0.8-0.1-1.7-0.1-2.6-0.1c0.6-4.9-2.9-9.3-7.8-9.8c-4.8-0.5-9.1,3-9.6,7.8
					c-0.4,3.5,1.4,6.7,4.2,8.4c-0.9,1.1-1.6,2.1-2.2,3.3c-1.4-2.7-3.5-4.9-6.1-6.4l-8.3-7.8l-12.1-4.7c-1.9-1-4-1.7-6.2-1.9
					c-5.6-0.6-10.7,1.5-14.3,5.3c-0.4-0.1-0.8-0.2-1.3-0.3c-4.4-0.5-8.4,2.8-8.8,7.2c-0.2,2.1,0.4,4.1,1.6,5.6
					c-4.9,1.9-8.7,5.9-10.4,10.9c-1.6-0.6-3.2-1-5-1.2c-0.6-0.1-1.1-0.1-1.6-0.1c-0.9-3.3-3.6-5.9-7.1-6.2c-4.5-0.5-8.6,2.8-9.1,7.4
					c-0.2,1.9,0.3,3.7,1.1,5.1c-2,2.2-3.6,4.8-4.6,7.8c-1.4,0.3-2.8,0.7-4.1,1.2c0.3-0.5,0.5-1.1,0.6-1.7c0.2-2.4-1.4-4.4-3.8-4.6
					c-2.5-0.2-4.5,1.6-4.6,4c-0.1,2.3,1.5,4.2,3.8,4.4h0.1c-5.3,3.4-16.7,32.1,1.8,23.3c0,0,3.8,12.6,29.4,2.2
					c25.6-10.3,32.9,11.5,54.1-0.6s2.5,15.2,1.4,0s17.9,7.2,29.4-1.8s18.5,4,39.7-2.5c21.2-6.5,28.9-5.3,39.2-2.5
					c10.3,2.8,29.3-1.8,29.3-1.8C1285.1,1180.5,1294,1179.7,1296.7,1175.5z"/>
				<path class="st10" d="M1046,1209.2c1.8-2.8,1.2-7.8-1.2-9.8c-1.7-1.4-5-1.1-11.7-0.7c-1.5,0.1-2.7,0.2-3.5,0.3
					c0-0.2,0.1-0.4,0.1-0.7c0.9-8.8-5.4-16.6-14.2-17.5c-0.6-0.1-1.2-0.1-1.8-0.1c-1.7-7.9-8.3-14.1-16.8-14.9
					c-6.2-0.6-12.1,1.8-16,6l-12.8-3.3l-9.2,6.8c-0.3,0.3-0.6,0.6-0.9,0.9c-0.3-0.1-0.7-0.2-1.1-0.3c0.5-6.9-4.5-13-11.4-13.7
					c-5.5-0.6-10.6,2.4-12.8,7.2c-2.7-5.4-8-9.4-14.5-10c-0.8-0.1-1.7-0.1-2.6-0.1c0.6-4.9-2.9-9.3-7.8-9.8c-4.8-0.5-9.1,3-9.6,7.8
					c-0.4,3.5,1.4,6.7,4.2,8.4c-0.9,1.1-1.6,2.1-2.2,3.3c-1.4-2.7-3.5-4.9-6.1-6.4l-8.3-7.8l-12.1-4.7c-1.9-1-4-1.7-6.2-1.9
					c-5.6-0.6-10.7,1.5-14.3,5.3c-0.4-0.1-0.8-0.2-1.3-0.3c-4.4-0.5-8.4,2.8-8.8,7.2c-0.2,2.1,0.4,4.1,1.6,5.6
					c-4.9,1.9-8.7,5.9-10.4,10.9c-1.6-0.6-3.2-1-5-1.2c-0.6-0.1-1.1-0.1-1.6-0.1c-0.9-3.3-3.6-5.9-7.1-6.2c-4.5-0.5-8.6,2.8-9.1,7.4
					c-0.2,1.9,0.3,3.7,1.1,5.1c-2,2.2-3.6,4.8-4.6,7.8c-1.4,0.3-2.8,0.7-4.1,1.2c0.3-0.5,0.5-1.1,0.6-1.7c0.2-2.4-1.4-4.4-3.8-4.6
					c-2.5-0.2-4.5,1.6-4.6,4c-0.1,2.3,1.5,4.2,3.8,4.4h0.1c-5.3,3.4-16.7,32.1,1.8,23.3c0,0,3.8,12.6,29.4,2.2
					c25.6-10.3,32.9,11.5,54.1-0.6c21.2-12.1,2.5,15.2,1.4,0s17.9,7.2,29.4-1.8s18.5,4,39.7-2.5s28.9-5.3,39.2-2.5
					s29.3-1.8,29.3-1.8C1034.4,1214.1,1043.3,1213.4,1046,1209.2z"/>
				<path class="st10" d="M1181.9,1188.7c1.8-2.8,1.2-7.8-1.2-9.8c-1.7-1.4-5-1.1-11.7-0.7c-1.5,0.1-2.7,0.2-3.5,0.3
					c0-0.2,0.1-0.4,0.1-0.7c0.9-8.8-5.4-16.6-14.2-17.5c-0.6-0.1-1.2-0.1-1.8-0.1c-1.7-7.9-8.3-14.1-16.8-14.9
					c-6.2-0.6-12.1,1.8-16,6l-12.8-3.3l-9.2,6.8c-0.3,0.3-0.6,0.6-0.9,0.9c-0.3-0.1-0.7-0.2-1.1-0.3c0.5-6.9-4.5-13-11.4-13.7
					c-5.5-0.6-10.6,2.4-12.8,7.2c-2.7-5.4-8-9.4-14.5-10c-0.8-0.1-1.7-0.1-2.6-0.1c0.6-4.9-2.9-9.3-7.8-9.8c-4.8-0.5-9.1,3-9.6,7.8
					c-0.4,3.5,1.4,6.7,4.2,8.4c-0.9,1.1-1.6,2.1-2.2,3.3c-1.4-2.7-3.5-4.9-6.1-6.4l-8.3-7.8l-12.1-4.7c-1.9-1-4-1.7-6.2-1.9
					c-5.6-0.6-10.7,1.5-14.3,5.3c-0.4-0.1-0.8-0.2-1.3-0.3c-4.4-0.5-8.4,2.8-8.8,7.2c-0.2,2.1,0.4,4.1,1.6,5.6
					c-4.9,1.9-8.7,5.9-10.4,10.9c-1.6-0.6-3.2-1-5-1.2c-0.6-0.1-1.1-0.1-1.6-0.1c-0.9-3.3-3.6-5.9-7.1-6.2c-4.5-0.5-8.6,2.8-9.1,7.4
					c-0.2,1.9,0.3,3.7,1.1,5.1c-2,2.2-3.6,4.8-4.6,7.8c-1.4,0.3-2.8,0.7-4.1,1.2c0.3-0.5,0.5-1.1,0.6-1.7c0.2-2.4-1.4-4.4-3.8-4.6
					c-2.5-0.2-4.5,1.6-4.6,4c-0.1,2.3,1.5,4.2,3.8,4.4h0.1c-5.3,3.4-16.7,32.1,1.8,23.3c0,0,3.8,12.6,29.4,2.2
					c25.6-10.3,32.9,11.5,54.1-0.6c21.2-12.1,2.5,15.2,1.4,0s17.9,7.2,29.4-1.8s18.5,4,39.7-2.5c21.2-6.5,28.9-5.3,39.2-2.5
					c10.3,2.8,29.3-1.8,29.3-1.8C1170.3,1193.6,1179.2,1192.9,1181.9,1188.7z"/>
				<path class="st10" d="M1030.6,1243c1.8-2.8,1.2-7.8-1.2-9.8c-1.7-1.4-5-1.1-11.7-0.7c-1.5,0.1-2.7,0.2-3.5,0.3
					c0-0.2,0.1-0.4,0.1-0.7c0.9-8.8-5.4-16.6-14.2-17.5c-0.6-0.1-1.2-0.1-1.8-0.1c-1.7-7.9-8.3-14.1-16.8-14.9
					c-6.2-0.6-12.1,1.8-16,6l-12.8-3.3l-9.2,6.8c-0.3,0.3-0.6,0.6-0.9,0.9c-0.3-0.1-0.7-0.2-1.1-0.3c0.5-6.9-4.5-13-11.4-13.7
					c-5.5-0.6-10.6,2.4-12.8,7.2c-2.7-5.4-8-9.4-14.5-10c-0.8-0.1-1.7-0.1-2.6-0.1c0.6-4.9-2.9-9.3-7.8-9.8c-4.8-0.5-9.1,3-9.6,7.8
					c-0.4,3.5,1.4,6.7,4.2,8.4c-0.9,1.1-1.6,2.1-2.2,3.3c-1.4-2.7-3.5-4.9-6.1-6.4l-8.3-7.8l-12.1-4.7c-1.9-1-4-1.7-6.2-1.9
					c-5.6-0.6-10.7,1.5-14.3,5.3c-0.4-0.1-0.8-0.2-1.3-0.3c-4.4-0.5-8.4,2.8-8.8,7.2c-0.2,2.1,0.4,4.1,1.6,5.6
					c-4.9,1.9-8.7,5.9-10.4,10.9c-1.6-0.6-3.2-1-5-1.2c-0.6-0.1-1.1-0.1-1.6-0.1c-0.9-3.3-3.6-5.9-7.1-6.2c-4.5-0.5-8.6,2.8-9.1,7.4
					c-0.2,1.9,0.3,3.7,1.1,5.1c-2,2.2-3.6,4.8-4.6,7.8c-1.4,0.3-2.8,0.7-4.1,1.2c0.3-0.5,0.5-1.1,0.6-1.7c0.2-2.4-1.4-4.4-3.8-4.6
					c-2.5-0.2-4.5,1.6-4.6,4c-0.1,2.3,1.5,4.2,3.8,4.4h0.1c-5.3,3.4-16.7,32.1,1.8,23.3c0,0,3.8,12.6,29.4,2.2
					c25.6-10.3,32.9,11.5,54.1-0.6c21.2-12.1,2.5,15.2,1.4,0s17.9,7.2,29.4-1.8s18.5,4,39.7-2.5s28.9-5.3,39.2-2.5
					s29.3-1.8,29.3-1.8C1019,1247.9,1027.9,1247.2,1030.6,1243z"/>
				<path class="st10" d="M1411.5,1315.7c1.8-2.8,1.2-7.8-1.2-9.8c-1.7-1.4-5-1.1-11.7-0.7c-1.5,0.1-2.7,0.2-3.5,0.3
					c0-0.2,0.1-0.4,0.1-0.7c0.9-8.8-5.4-16.6-14.2-17.5c-0.6-0.1-1.2-0.1-1.8-0.1c-1.7-7.9-8.3-14.1-16.8-14.9
					c-6.2-0.6-12.1,1.8-16,6l-12.8-3.3l-9.2,6.8c-0.3,0.3-0.6,0.6-0.9,0.9c-0.3-0.1-0.7-0.2-1.1-0.3c0.5-6.9-4.5-13-11.4-13.7
					c-5.5-0.6-10.6,2.4-12.8,7.2c-2.7-5.4-8-9.4-14.5-10c-0.8-0.1-1.7-0.1-2.6-0.1c0.6-4.9-2.9-9.3-7.8-9.8c-4.8-0.5-9.1,3-9.6,7.8
					c-0.4,3.5,1.4,6.7,4.2,8.4c-0.9,1.1-1.6,2.1-2.2,3.3c-1.4-2.7-3.5-4.9-6.1-6.4l-8.3-7.8l-12.1-4.7c-1.9-1-4-1.7-6.2-1.9
					c-5.6-0.6-10.7,1.5-14.3,5.3c-0.4-0.1-0.8-0.2-1.3-0.3c-4.4-0.5-8.4,2.8-8.8,7.2c-0.2,2.1,0.4,4.1,1.6,5.6
					c-4.9,1.9-8.7,5.9-10.4,10.9c-1.6-0.6-3.2-1-5-1.2c-0.6-0.1-1.1-0.1-1.6-0.1c-0.9-3.3-3.6-5.9-7.1-6.2c-4.5-0.5-8.6,2.8-9.1,7.4
					c-0.2,1.9,0.3,3.7,1.1,5.1c-2,2.2-3.6,4.8-4.6,7.8c-1.4,0.3-2.8,0.7-4.1,1.2c0.3-0.5,0.5-1.1,0.6-1.7c0.2-2.4-1.4-4.4-3.8-4.6
					c-2.5-0.2-4.5,1.6-4.6,4c-0.1,2.3,1.5,4.2,3.8,4.4h0.1c-5.3,3.4-16.7,32.1,1.8,23.3c0,0,3.8,12.6,29.4,2.2
					c25.6-10.3,32.9,11.5,54.1-0.6s2.5,15.2,1.4,0s17.9,7.2,29.4-1.8s18.5,4,39.7-2.5c21.2-6.5,28.9-5.3,39.2-2.5
					c10.3,2.8,29.3-1.8,29.3-1.8C1399.9,1320.6,1408.8,1319.9,1411.5,1315.7z"/>
				<path class="st10" d="M995.2,1275.5c1.8-2.8,1.2-7.8-1.2-9.8c-1.7-1.4-5-1.1-11.7-0.7c-1.5,0.1-2.7,0.2-3.5,0.3
					c0-0.2,0.1-0.4,0.1-0.7c0.9-8.8-5.4-16.6-14.2-17.5c-0.6-0.1-1.2-0.1-1.8-0.1c-1.7-7.9-8.3-14.1-16.8-14.9
					c-6.2-0.6-12.1,1.8-16,6l-12.8-3.3l-9.2,6.8c-0.3,0.3-0.6,0.6-0.9,0.9c-0.3-0.1-0.7-0.2-1.1-0.3c0.5-6.9-4.5-13-11.4-13.7
					c-5.5-0.6-10.6,2.4-12.8,7.2c-2.7-5.4-8-9.4-14.5-10c-0.8-0.1-1.7-0.1-2.6-0.1c0.6-4.9-2.9-9.3-7.8-9.8c-4.8-0.5-9.1,3-9.6,7.8
					c-0.4,3.5,1.4,6.7,4.2,8.4c-0.9,1.1-1.6,2.1-2.2,3.3c-1.4-2.7-3.5-4.9-6.1-6.4l-8.3-7.8l-12.1-4.7c-1.9-1-4-1.7-6.2-1.9
					c-5.6-0.6-10.7,1.5-14.3,5.3c-0.4-0.1-0.8-0.2-1.3-0.3c-4.4-0.5-8.4,2.8-8.8,7.2c-0.2,2.1,0.4,4.1,1.6,5.6
					c-4.9,1.9-8.7,5.9-10.4,10.9c-1.6-0.6-3.2-1-5-1.2c-0.6-0.1-1.1-0.1-1.6-0.1c-0.9-3.3-3.6-5.9-7.1-6.2c-4.5-0.5-8.6,2.8-9.1,7.4
					c-0.2,1.9,0.3,3.7,1.1,5.1c-2,2.2-3.6,4.8-4.6,7.8c-1.4,0.3-2.8,0.7-4.1,1.2c0.3-0.5,0.5-1.1,0.6-1.7c0.2-2.4-1.4-4.4-3.8-4.6
					c-2.5-0.2-4.5,1.6-4.6,4c-0.1,2.3,1.5,4.2,3.8,4.4h0.1c-5.3,3.4-16.7,32.1,1.8,23.3c0,0,3.8,12.6,29.4,2.2
					c25.6-10.3,32.9,11.5,54.1-0.6c21.2-12.1,2.5,15.2,1.4,0s17.9,7.2,29.4-1.8s18.5,4,39.7-2.5s28.9-5.3,39.2-2.5
					s29.3-1.8,29.3-1.8C983.6,1280.5,992.5,1279.7,995.2,1275.5z"/>
			</g>
			<g id="SmokeThree">
				<path class="st10" d="M1169.5,1149.4c0.5-0.1,14.2-1.7,16.2-7.4c0.2-0.6,1-2.9-0.1-4.4c-0.8-1.1-2.1-0.8-3.4-2
					c-1.2-1.1-1.5-2.6-1.6-3.8c-0.2-0.5-1.9-4.7-6.4-6c-3.5-1-7.2,0-9.9,2.5c0-0.2,0.1-0.4,0.1-0.7c0.9-8.8-5.4-16.6-14.2-17.5
					c-0.6-0.1-1.2-0.1-1.8-0.1c-1.7-7.9-8.3-14.1-16.8-14.9c-6.2-0.6-12.1,1.8-16,6l-12.8-3.3l-9.2,6.8c-0.3,0.3-0.6,0.6-0.9,0.9
					c-0.3-0.1-0.7-0.2-1.1-0.3c0.5-6.9-4.5-13-11.4-13.7c-5.5-0.6-10.6,2.4-12.8,7.2c-2.7-5.4-8-9.4-14.5-10
					c-0.8-0.1-1.7-0.1-2.6-0.1c0-0.1,0-0.1,0-0.2c0.5-4.8-3-9.1-7.8-9.6s-9.1,3-9.6,7.8c-0.4,3.5,1.4,6.7,4.2,8.4
					c-0.9,1.1-1.6,2.1-2.2,3.3c-1.4-2.7-3.5-4.9-6.1-6.4l-8.3-7.8l-12.1-4.7c-1.9-1-4-1.7-6.2-1.9c-5.6-0.6-10.7,1.5-14.3,5.3
					c-0.4-0.1-0.8-0.2-1.3-0.3c-4.4-0.5-8.4,2.8-8.8,7.2c-0.2,2.1,0.4,4.1,1.6,5.6c-4.9,1.9-8.7,5.9-10.4,10.9c-1.6-0.6-3.2-1-5-1.2
					c-0.6-0.1-1.1-0.1-1.6-0.1c-0.9-3.3-3.6-5.9-7.1-6.2c-4.5-0.5-8.6,2.8-9.1,7.4c-0.2,1.9,0.3,3.7,1.1,5.1c-2,2.2-3.6,4.8-4.6,7.8
					c-1.4,0.3-2.8,0.7-4.1,1.2c0.3-0.5,0.5-1.1,0.6-1.7c0.2-2.4-1.4-4.4-3.8-4.6c-2.4-0.2-4.4,1.4-4.6,3.8c-0.2,2.4,1.4,4.4,3.8,4.6
					h0.1c-3.7,0.3-6.6,3.2-6.8,6.6c-0.2,3.2,2.8,5.8,4.1,6.9c9.8,8.2,28.7,5.1,45.1,6.7c6.6,0.6,16.8,4.4,37.3,11.9
					c48.7,18,42.3,20.3,55.1,22.3C1111,1183.5,1138,1153.2,1169.5,1149.4z"/>
				<path class="st10" d="M1231.1,1201c1.8-2.8,1.2-7.8-1.2-9.8c-1.7-1.4-5-1.1-11.7-0.7c-1.5,0.1-2.7,0.2-3.5,0.3
					c0-0.2,0.1-0.4,0.1-0.7c0.9-8.8-5.4-16.6-14.2-17.5c-0.6-0.1-1.2-0.1-1.8-0.1c-1.7-7.9-8.3-14.1-16.8-14.9
					c-6.2-0.6-12.1,1.8-16,6l-12.8-3.3l-9.2,6.8c-0.3,0.3-0.6,0.6-0.9,0.9c-0.3-0.1-0.7-0.2-1.1-0.3c0.5-6.9-4.5-13-11.4-13.7
					c-5.5-0.6-10.6,2.4-12.8,7.2c-2.7-5.4-8-9.4-14.5-10c-0.8-0.1-1.7-0.1-2.6-0.1c0.6-4.9-2.9-9.3-7.8-9.8c-4.8-0.5-9.1,3-9.6,7.8
					c-0.4,3.5,1.4,6.7,4.2,8.4c-0.9,1.1-1.6,2.1-2.2,3.3c-1.4-2.7-3.5-4.9-6.1-6.4l-8.3-7.8l-12.1-4.7c-1.9-1-4-1.7-6.2-1.9
					c-5.6-0.6-10.7,1.5-14.3,5.3c-0.4-0.1-0.8-0.2-1.3-0.3c-4.4-0.5-8.4,2.8-8.8,7.2c-0.2,2.1,0.4,4.1,1.6,5.6
					c-4.9,1.9-8.7,5.9-10.4,10.9c-1.6-0.6-3.2-1-5-1.2c-0.6-0.1-1.1-0.1-1.6-0.1c-0.9-3.3-3.6-5.9-7.1-6.2c-4.5-0.5-8.6,2.8-9.1,7.4
					c-0.2,1.9,0.3,3.7,1.1,5.1c-2,2.2-3.6,4.8-4.6,7.8c-1.4,0.3-2.8,0.7-4.1,1.2c0.3-0.5,0.5-1.1,0.6-1.7c0.2-2.4-1.4-4.4-3.8-4.6
					c-2.5-0.2-4.5,1.6-4.6,4c-0.1,2.3,1.5,4.2,3.8,4.4h0.1c-5.3,3.4-16.7,32.1,1.8,23.3c0,0,3.8,12.6,29.4,2.2
					c25.6-10.3,32.9,11.5,54.1-0.6s2.5,15.2,1.4,0s17.9,7.2,29.4-1.8s18.5,4,39.7-2.5c21.2-6.5,28.9-5.3,39.2-2.5
					c10.3,2.8,29.3-1.8,29.3-1.8C1219.5,1206,1228.4,1205.2,1231.1,1201z"/>
				<path class="st10" d="M1086.6,1243c1.8-2.8,1.2-7.8-1.2-9.8c-1.7-1.4-5-1.1-11.7-0.7c-1.5,0.1-2.7,0.2-3.5,0.3
					c0-0.2,0.1-0.4,0.1-0.7c0.9-8.8-5.4-16.6-14.2-17.5c-0.6-0.1-1.2-0.1-1.8-0.1c-1.7-7.9-8.3-14.1-16.8-14.9
					c-6.2-0.6-12.1,1.8-16,6l-12.8-3.3l-9.2,6.8c-0.3,0.3-0.6,0.6-0.9,0.9c-0.3-0.1-0.7-0.2-1.1-0.3c0.5-6.9-4.5-13-11.4-13.7
					c-5.5-0.6-10.6,2.4-12.8,7.2c-2.7-5.4-8-9.4-14.5-10c-0.8-0.1-1.7-0.1-2.6-0.1c0.6-4.9-2.9-9.3-7.8-9.8c-4.8-0.5-9.1,3-9.6,7.8
					c-0.4,3.5,1.4,6.7,4.2,8.4c-0.9,1.1-1.6,2.1-2.2,3.3c-1.4-2.7-3.5-4.9-6.1-6.4l-8.3-7.8l-12.1-4.7c-1.9-1-4-1.7-6.2-1.9
					c-5.6-0.6-10.7,1.5-14.3,5.3c-0.4-0.1-0.8-0.2-1.3-0.3c-4.4-0.5-8.4,2.8-8.8,7.2c-0.2,2.1,0.4,4.1,1.6,5.6
					c-4.9,1.9-8.7,5.9-10.4,10.9c-1.6-0.6-3.2-1-5-1.2c-0.6-0.1-1.1-0.1-1.6-0.1c-0.9-3.3-3.6-5.9-7.1-6.2c-4.5-0.5-8.6,2.8-9.1,7.4
					c-0.2,1.9,0.3,3.7,1.1,5.1c-2,2.2-3.6,4.8-4.6,7.8c-1.4,0.3-2.8,0.7-4.1,1.2c0.3-0.5,0.5-1.1,0.6-1.7c0.2-2.4-1.4-4.4-3.8-4.6
					c-2.5-0.2-4.5,1.6-4.6,4c-0.1,2.3,1.5,4.2,3.8,4.4h0.1c-5.3,3.4-16.7,32.1,1.8,23.3c0,0,3.8,12.6,29.4,2.2
					c25.6-10.3,32.9,11.5,54.1-0.6c21.2-12.1,2.5,15.2,1.4,0s17.9,7.2,29.4-1.8s18.5,4,39.7-2.5s28.9-5.3,39.2-2.5
					c10.3,2.8,29.3-1.8,29.3-1.8C1075,1247.9,1083.9,1247.2,1086.6,1243z"/>
				<path class="st10" d="M1277,1180.7c0.7-0.8,1.2-1.8,1.2-1.8c0.4-0.7,1.1-2.2,1.2-4.1c0-0.7,0.1-1.7-0.3-2.8
					c-0.8-2.2-2.8-3.2-3.5-3.5c-0.1-0.9-0.3-3.2-2.1-5.1c-2.7-2.8-6.7-2.4-8.1-2.2c-3.8,0.4-6.4,2.7-7.2,3.6
					c0.9-8.8-5.4-16.6-14.2-17.5c-0.6-0.1-1.2-0.1-1.8-0.1c-1.7-7.9-8.3-14.1-16.8-14.9c-6.2-0.6-12.1,1.8-16,6l-12.8-3.3l-9.2,6.8
					c-0.3,0.3-0.6,0.6-0.9,0.9c-0.3-0.1-0.7-0.2-1.1-0.3c0.5-6.9-4.5-13-11.4-13.7c-5.5-0.6-10.6,2.4-12.8,7.2
					c-2.7-5.4-8-9.4-14.5-10c-0.8-0.1-1.7-0.1-2.6-0.1c0-0.1,0-0.1,0-0.2c0.5-4.8-3-9.1-7.8-9.6s-9.1,3-9.6,7.8
					c-0.4,3.5,1.4,6.7,4.2,8.4c-0.9,1.1-1.6,2.1-2.2,3.3c-1.4-2.7-3.5-4.9-6.1-6.4l-8.3-7.8l-12.1-4.7c-1.9-1-4-1.7-6.2-1.9
					c-5.6-0.6-10.7,1.5-14.3,5.3c-0.4-0.1-0.8-0.2-1.3-0.3c-4.4-0.5-8.4,2.8-8.8,7.2c-0.2,2.1,0.4,4.1,1.6,5.6
					c-4.9,1.9-8.7,5.9-10.4,10.9c-1.6-0.6-3.2-1-5-1.2c-0.6-0.1-1.1-0.1-1.6-0.1c-0.9-3.3-3.6-5.9-7.1-6.2c-4.5-0.5-8.6,2.8-9.1,7.4
					c-0.2,1.9,0.3,3.7,1.1,5.1c-2,2.2-3.6,4.8-4.6,7.8c-1.4,0.3-2.8,0.7-4.1,1.2c0.3-0.5,0.5-1.1,0.6-1.7c0.2-2.4-1.4-4.4-3.8-4.6
					c-2.4-0.2-4.4,1.4-4.6,3.8s1.4,4.4,3.8,4.6h0.1c-3.7,0.3-6.6,3.2-6.8,6.6c-0.2,2.8,1.4,5.5,4.1,6.9c7,3.6,12.6,6.8,13.4,7
					c24.8,5.1,37.2,7.7,41,7.9c29.1,1.6,29.5,12.2,58.2,16.2c30.8,4.3,26.2-8.6,75.7-9.9C1214.2,1194.2,1267.1,1193,1277,1180.7z"/>
				<path class="st10" d="M1106,1276.5c12.8-2.1,6.5-4.4,55.1-22.3c20.4-7.6,30.7-11.3,37.3-11.9c16.4-1.5,35.3,1.5,45.1-6.7
					c1.3-1.1,4.3-3.7,4.1-6.9c-0.2-3.4-3.1-6.3-6.8-6.6h0.1c2.4-0.2,4-2.2,3.8-4.6c-0.2-2.4-2.2-4-4.6-3.8c-2.4,0.2-4,2.2-3.8,4.6
					c0.1,0.6,0.3,1.2,0.6,1.7c-1.3-0.5-2.7-0.9-4.1-1.2c-1-3-2.6-5.6-4.6-7.8c0.8-1.4,1.3-3.2,1.1-5.1c-0.5-4.6-4.6-7.9-9.1-7.4
					c-3.5,0.3-6.2,2.9-7.1,6.2c-0.5,0-1,0-1.6,0.1c-1.8,0.2-3.4,0.6-5,1.2c-1.7-5-5.5-9-10.4-10.9c1.2-1.5,1.8-3.5,1.6-5.6
					c-0.4-4.4-4.4-7.7-8.8-7.2c-0.5,0.1-0.9,0.2-1.3,0.3c-3.6-3.8-8.7-5.9-14.3-5.3c-2.2,0.2-4.3,0.9-6.2,1.9l-12.1,4.7l-8.3,7.8
					c-2.6,1.5-4.7,3.7-6.1,6.4c-0.6-1.2-1.3-2.2-2.2-3.3c2.8-1.7,4.6-4.9,4.2-8.4c-0.5-4.8-4.8-8.3-9.6-7.8s-8.3,4.8-7.8,9.6
					c0,0.1,0,0.1,0,0.2c-0.9,0-1.8,0-2.6,0.1c-6.5,0.6-11.8,4.6-14.5,10c-2.2-4.8-7.3-7.8-12.8-7.2c-6.9,0.7-11.9,6.8-11.4,13.7
					c-0.4,0.1-0.8,0.2-1.1,0.3c-0.3-0.3-0.6-0.6-0.9-0.9l-9.2-6.8l-12.8,3.3c-3.9-4.2-9.8-6.6-16-6c-8.5,0.8-15.1,7-16.8,14.9
					c-0.6,0-1.2,0-1.8,0.1c-8.8,0.9-15.1,8.7-14.2,17.5c0,0.3,0.1,0.5,0.1,0.7c-2.6-2.6-6.4-3.6-9.9-2.5c-4.5,1.3-6.2,5.5-6.4,6
					c-0.1,1.2-0.4,2.8-1.6,3.8c-1.3,1.2-2.6,0.9-3.4,2c-1.1,1.5-0.3,3.8-0.1,4.4c2,5.7,15.7,7.4,16.2,7.4
					C1037.5,1253,1064.5,1283.2,1106,1276.5z"/>
				<path class="st10" d="M1089.6,1305.6c0.5-0.1,14.2-1.7,16.2-7.4c0.2-0.6,1-2.9-0.1-4.4c-0.8-1.1-2.1-0.8-3.4-2
					c-1.2-1.1-1.5-2.6-1.6-3.8c-0.2-0.5-1.9-4.7-6.4-6c-3.5-1-7.2,0-9.9,2.5c0-0.2,0.1-0.4,0.1-0.7c0.9-8.8-5.4-16.6-14.2-17.5
					c-0.6-0.1-1.2-0.1-1.8-0.1c-1.7-7.9-8.3-14.1-16.8-14.9c-6.2-0.6-12.1,1.8-16,6l-12.8-3.3l-9.2,6.8c-0.3,0.3-0.6,0.6-0.9,0.9
					c-0.3-0.1-0.7-0.2-1.1-0.3c0.5-6.9-4.5-13-11.4-13.7c-5.5-0.6-10.6,2.4-12.8,7.2c-2.7-5.4-8-9.4-14.5-10
					c-0.8-0.1-1.7-0.1-2.6-0.1c0-0.1,0-0.1,0-0.2c0.5-4.8-3-9.1-7.8-9.6s-9.1,3-9.6,7.8c-0.4,3.5,1.4,6.7,4.2,8.4
					c-0.9,1.1-1.6,2.1-2.2,3.3c-1.4-2.7-3.5-4.9-6.1-6.4l-8.3-7.8l-12.1-4.7c-1.9-1-4-1.7-6.2-1.9c-5.6-0.6-10.7,1.5-14.3,5.3
					c-0.4-0.1-0.8-0.2-1.3-0.3c-4.4-0.5-8.4,2.8-8.8,7.2c-0.2,2.1,0.4,4.1,1.6,5.6c-4.9,1.9-8.7,5.9-10.4,10.9c-1.6-0.6-3.2-1-5-1.2
					c-0.6-0.1-1.1-0.1-1.6-0.1c-0.9-3.3-3.6-5.9-7.1-6.2c-4.5-0.5-8.6,2.8-9.1,7.4c-0.2,1.9,0.3,3.7,1.1,5.1c-2,2.2-3.6,4.8-4.6,7.8
					c-1.4,0.3-2.8,0.7-4.1,1.2c0.3-0.5,0.5-1.1,0.6-1.7c0.2-2.4-1.4-4.4-3.8-4.6c-2.4-0.2-4.4,1.4-4.6,3.8c-0.2,2.4,1.4,4.4,3.8,4.6
					h0.1c-3.7,0.3-6.6,3.2-6.8,6.6c-0.2,3.2,2.8,5.8,4.1,6.9c9.8,8.2,28.7,5.1,45.1,6.7c6.6,0.6,16.8,4.4,37.3,11.9
					c48.7,18,42.3,20.3,55.1,22.3C1031.1,1339.7,1058.1,1309.5,1089.6,1305.6z"/>
				<path class="st10" d="M1360.1,1281.7c0.5-0.1,14.2-1.7,16.2-7.4c0.2-0.6,1-2.9-0.1-4.4c-0.8-1.1-2.1-0.8-3.4-2
					c-1.2-1.1-1.5-2.6-1.6-3.8c-0.2-0.5-1.9-4.7-6.4-6c-3.5-1-7.2,0-9.9,2.5c0-0.2,0.1-0.4,0.1-0.7c0.9-8.8-5.4-16.6-14.2-17.5
					c-0.6-0.1-1.2-0.1-1.8-0.1c-1.7-7.9-8.3-14.1-16.8-14.9c-6.2-0.6-12.1,1.8-16,6l-12.8-3.3l-9.2,6.8c-0.3,0.3-0.6,0.6-0.9,0.9
					c-0.3-0.1-0.7-0.2-1.1-0.3c0.5-6.9-4.5-13-11.4-13.7c-5.5-0.6-10.6,2.4-12.8,7.2c-2.7-5.4-8-9.4-14.5-10
					c-0.8-0.1-1.7-0.1-2.6-0.1c0-0.1,0-0.1,0-0.2c0.5-4.8-3-9.1-7.8-9.6s-9.1,3-9.6,7.8c-0.4,3.5,1.4,6.7,4.2,8.4
					c-0.9,1.1-1.6,2.1-2.2,3.3c-1.4-2.7-3.5-4.9-6.1-6.4l-8.3-7.8l-12.1-4.7c-1.9-1-4-1.7-6.2-1.9c-5.6-0.6-10.7,1.5-14.3,5.3
					c-0.4-0.1-0.8-0.2-1.3-0.3c-4.4-0.5-8.4,2.8-8.8,7.2c-0.2,2.1,0.4,4.1,1.6,5.6c-4.9,1.9-8.7,5.9-10.4,10.9c-1.6-0.6-3.2-1-5-1.2
					c-0.6-0.1-1.1-0.1-1.6-0.1c-0.9-3.3-3.6-5.9-7.1-6.2c-4.5-0.5-8.6,2.8-9.1,7.4c-0.2,1.9,0.3,3.7,1.1,5.1c-2,2.2-3.6,4.8-4.6,7.8
					c-1.4,0.3-2.8,0.7-4.1,1.2c0.3-0.5,0.5-1.1,0.6-1.7c0.2-2.4-1.4-4.4-3.8-4.6c-2.4-0.2-4.4,1.4-4.6,3.8c-0.2,2.4,1.4,4.4,3.8,4.6
					h0.1c-3.7,0.3-6.6,3.2-6.8,6.6c-0.2,3.2,2.8,5.8,4.1,6.9c9.8,8.2,28.7,5.1,45.1,6.7c6.6,0.6,16.8,4.4,37.3,11.9
					c48.7,18,42.3,20.3,55.1,22.3C1301.6,1315.8,1328.7,1285.6,1360.1,1281.7z"/>
				<path class="st10" d="M1040.4,1351.1c0.5-0.1,14.2-1.7,16.2-7.4c0.2-0.6,1-2.9-0.1-4.4c-0.8-1.1-2.1-0.8-3.4-2
					c-1.2-1.1-1.5-2.6-1.6-3.8c-0.2-0.5-1.9-4.7-6.4-6c-3.5-1-7.2,0-9.9,2.5c0-0.2,0.1-0.4,0.1-0.7c0.9-8.8-5.4-16.6-14.2-17.5
					c-0.6-0.1-1.2-0.1-1.8-0.1c-1.7-7.9-8.3-14.1-16.8-14.9c-6.2-0.6-12.1,1.8-16,6l-12.8-3.3l-9.2,6.8c-0.3,0.3-0.6,0.6-0.9,0.9
					c-0.3-0.1-0.7-0.2-1.1-0.3c0.5-6.9-4.5-13-11.4-13.7c-5.5-0.6-10.6,2.4-12.8,7.2c-2.7-5.4-8-9.4-14.5-10
					c-0.8-0.1-1.7-0.1-2.6-0.1c0-0.1,0-0.1,0-0.2c0.5-4.8-3-9.1-7.8-9.6s-9.1,3-9.6,7.8c-0.4,3.5,1.4,6.7,4.2,8.4
					c-0.9,1.1-1.6,2.1-2.2,3.3c-1.4-2.7-3.5-4.9-6.1-6.4l-8.3-7.8l-12.1-4.7c-1.9-1-4-1.7-6.2-1.9c-5.6-0.6-10.7,1.5-14.3,5.3
					c-0.4-0.1-0.8-0.2-1.3-0.3c-4.4-0.5-8.4,2.8-8.8,7.2c-0.2,2.1,0.4,4.1,1.6,5.6c-4.9,1.9-8.7,5.9-10.4,10.9c-1.6-0.6-3.2-1-5-1.2
					c-0.6-0.1-1.1-0.1-1.6-0.1c-0.9-3.3-3.6-5.9-7.1-6.2c-4.5-0.5-8.6,2.8-9.1,7.4c-0.2,1.9,0.3,3.7,1.1,5.1c-2,2.2-3.6,4.8-4.6,7.8
					c-1.4,0.3-2.8,0.7-4.1,1.2c0.3-0.5,0.5-1.1,0.6-1.7c0.2-2.4-1.4-4.4-3.8-4.6c-2.4-0.2-4.4,1.4-4.6,3.8c-0.2,2.4,1.4,4.4,3.8,4.6
					h0.1c-3.7,0.3-6.6,3.2-6.8,6.6c-0.2,3.2,2.8,5.8,4.1,6.9c9.8,8.2,28.7,5.1,45.1,6.7c6.6,0.6,16.8,4.4,37.3,11.9
					c48.7,18,42.3,20.3,55.1,22.3C981.9,1385.2,1008.9,1355,1040.4,1351.1z"/>
				<path class="st10" d="M973.2,1357.9c0,0,19,4.6,29.3,1.8s18-4,39.2,2.5c21.2,6.5,28.2-6.5,39.7,2.5s30.5-13.4,29.4,1.8
					s-19.8-12.1,1.4,0s28.5-9.7,54.1,0.6c25.6,10.4,29.4-2.2,29.4-2.2c18.5,8.8,7.1-19.9,1.8-23.3h0.1c2.3-0.2,3.9-2.1,3.8-4.4
					c-0.1-2.4-2.1-4.2-4.6-4c-2.4,0.2-4,2.2-3.8,4.6c0.1,0.6,0.3,1.2,0.6,1.7c-1.3-0.5-2.7-0.9-4.1-1.2c-1-3-2.6-5.6-4.6-7.8
					c0.8-1.4,1.3-3.2,1.1-5.1c-0.5-4.6-4.6-7.9-9.1-7.4c-3.5,0.3-6.2,2.9-7.1,6.2c-0.5,0-1,0-1.6,0.1c-1.8,0.2-3.4,0.6-5,1.2
					c-1.7-5-5.5-9-10.4-10.9c1.2-1.5,1.8-3.5,1.6-5.6c-0.4-4.4-4.4-7.7-8.8-7.2c-0.5,0.1-0.9,0.2-1.3,0.3c-3.6-3.8-8.7-5.9-14.3-5.3
					c-2.2,0.2-4.3,0.9-6.2,1.9l-12.1,4.7l-8.3,7.8c-2.6,1.5-4.7,3.7-6.1,6.4c-0.6-1.2-1.3-2.2-2.2-3.3c2.8-1.7,4.6-4.9,4.2-8.4
					c-0.5-4.8-4.8-8.3-9.6-7.8c-4.9,0.5-8.4,4.9-7.8,9.8c-0.9,0-1.8,0-2.6,0.1c-6.5,0.6-11.8,4.6-14.5,10c-2.2-4.8-7.3-7.8-12.8-7.2
					c-6.9,0.7-11.9,6.8-11.4,13.7c-0.4,0.1-0.8,0.2-1.1,0.3c-0.3-0.3-0.6-0.6-0.9-0.9l-9.2-6.8l-12.8,3.3c-3.9-4.2-9.8-6.6-16-6
					c-8.5,0.8-15.1,7-16.8,14.9c-0.6,0-1.2,0-1.8,0.1c-8.8,0.9-15.1,8.7-14.2,17.5c0,0.3,0.1,0.5,0.1,0.7c-0.8-0.1-2-0.2-3.5-0.3
					c-6.7-0.4-10-0.7-11.7,0.7c-2.5,2-3,7-1.2,9.8C954.2,1362,963.1,1362.8,973.2,1357.9z"/>
				<path class="st10" d="M968.3,1350.1c1.8-2.8,1.2-7.8-1.2-9.8c-1.7-1.4-5-1.1-11.7-0.7c-1.5,0.1-2.7,0.2-3.5,0.3
					c0-0.2,0.1-0.4,0.1-0.7c0.9-8.8-5.4-16.6-14.2-17.5c-0.6-0.1-1.2-0.1-1.8-0.1c-1.7-7.9-8.3-14.1-16.8-14.9
					c-6.2-0.6-12.1,1.8-16,6l-12.8-3.3l-9.2,6.8c-0.3,0.3-0.6,0.6-0.9,0.9c-0.3-0.1-0.7-0.2-1.1-0.3c0.5-6.9-4.5-13-11.4-13.7
					c-5.5-0.6-10.6,2.4-12.8,7.2c-2.7-5.4-8-9.4-14.5-10c-0.8-0.1-1.7-0.1-2.6-0.1c0.6-4.9-2.9-9.3-7.8-9.8c-4.8-0.5-9.1,3-9.6,7.8
					c-0.4,3.5,1.4,6.7,4.2,8.4c-0.9,1.1-1.6,2.1-2.2,3.3c-1.4-2.7-3.5-4.9-6.1-6.4l-8.3-7.8L796,1291c-1.9-1-4-1.7-6.2-1.9
					c-5.6-0.6-10.7,1.5-14.3,5.3c-0.4-0.1-0.8-0.2-1.3-0.3c-4.4-0.5-8.4,2.8-8.8,7.2c-0.2,2.1,0.4,4.1,1.6,5.6
					c-4.9,1.9-8.7,5.9-10.4,10.9c-1.6-0.6-3.2-1-5-1.2c-0.6-0.1-1.1-0.1-1.6-0.1c-0.9-3.3-3.6-5.9-7.1-6.2c-4.5-0.5-8.6,2.8-9.1,7.4
					c-0.2,1.9,0.3,3.7,1.1,5.1c-2,2.2-3.6,4.8-4.6,7.8c-1.4,0.3-2.8,0.7-4.1,1.2c0.3-0.5,0.5-1.1,0.6-1.7c0.2-2.4-1.4-4.4-3.8-4.6
					c-2.5-0.2-4.5,1.6-4.6,4c-0.1,2.3,1.5,4.2,3.8,4.4h0.1c-5.3,3.4-16.7,32.1,1.8,23.3c0,0,3.8,12.6,29.4,2.2
					c25.6-10.3,32.9,11.5,54.1-0.6c21.2-12.1,2.5,15.2,1.4,0s17.9,7.2,29.4-1.8s18.5,4,39.7-2.5s28.9-5.3,39.2-2.5
					s29.3-1.8,29.3-1.8C956.7,1355,965.6,1354.3,968.3,1350.1z"/>
				<path class="st10" d="M1309.4,1333.6c1.8-2.8,1.2-7.8-1.2-9.8c-1.7-1.4-5-1.1-11.7-0.7c-1.5,0.1-2.7,0.2-3.5,0.3
					c0-0.2,0.1-0.4,0.1-0.7c0.9-8.8-5.4-16.6-14.2-17.5c-0.6-0.1-1.2-0.1-1.8-0.1c-1.7-7.9-8.3-14.1-16.8-14.9
					c-6.2-0.6-12.1,1.8-16,6l-12.8-3.3l-9.2,6.8c-0.3,0.3-0.6,0.6-0.9,0.9c-0.3-0.1-0.7-0.2-1.1-0.3c0.5-6.9-4.5-13-11.4-13.7
					c-5.5-0.6-10.6,2.4-12.8,7.2c-2.7-5.4-8-9.4-14.5-10c-0.8-0.1-1.7-0.1-2.6-0.1c0.6-4.9-2.9-9.3-7.8-9.8c-4.8-0.5-9.1,3-9.6,7.8
					c-0.4,3.5,1.4,6.7,4.2,8.4c-0.9,1.1-1.6,2.1-2.2,3.3c-1.4-2.7-3.5-4.9-6.1-6.4l-8.3-7.8l-12.1-4.7c-1.9-1-4-1.7-6.2-1.9
					c-5.6-0.6-10.7,1.5-14.3,5.3c-0.4-0.1-0.8-0.2-1.3-0.3c-4.4-0.5-8.4,2.8-8.8,7.2c-0.2,2.1,0.4,4.1,1.6,5.6
					c-4.9,1.9-8.7,5.9-10.4,10.9c-1.6-0.6-3.2-1-5-1.2c-0.6-0.1-1.1-0.1-1.6-0.1c-0.9-3.3-3.6-5.9-7.1-6.2c-4.5-0.5-8.6,2.8-9.1,7.4
					c-0.2,1.9,0.3,3.7,1.1,5.1c-2,2.2-3.6,4.8-4.6,7.8c-1.4,0.3-2.8,0.7-4.1,1.2c0.3-0.5,0.5-1.1,0.6-1.7c0.2-2.4-1.4-4.4-3.8-4.6
					c-2.5-0.2-4.5,1.6-4.6,4c-0.1,2.3,1.5,4.2,3.8,4.4h0.1c-5.3,3.4-16.7,32.1,1.8,23.3c0,0,3.8,12.6,29.4,2.2
					c25.6-10.3,32.9,11.5,54.1-0.6s2.5,15.2,1.4,0s17.9,7.2,29.4-1.8s18.5,4,39.7-2.5c21.2-6.5,28.9-5.3,39.2-2.5
					c10.3,2.8,29.3-1.8,29.3-1.8C1297.8,1338.6,1306.7,1337.9,1309.4,1333.6z"/>
				<path class="st10" d="M1381.4,1334.9c1.8-2.8,1.2-7.8-1.2-9.8c-1.7-1.4-5-1.1-11.7-0.7c-1.5,0.1-2.7,0.2-3.5,0.3
					c0-0.2,0.1-0.4,0.1-0.7c0.9-8.8-5.4-16.6-14.2-17.5c-0.6-0.1-1.2-0.1-1.8-0.1c-1.7-7.9-8.3-14.1-16.8-14.9
					c-6.2-0.6-12.1,1.8-16,6l-12.8-3.3l-9.2,6.8c-0.3,0.3-0.6,0.6-0.9,0.9c-0.3-0.1-0.7-0.2-1.1-0.3c0.5-6.9-4.5-13-11.4-13.7
					c-5.5-0.6-10.6,2.4-12.8,7.2c-2.7-5.4-8-9.4-14.5-10c-0.8-0.1-1.7-0.1-2.6-0.1c0.6-4.9-2.9-9.3-7.8-9.8c-4.8-0.5-9.1,3-9.6,7.8
					c-0.4,3.5,1.4,6.7,4.2,8.4c-0.9,1.1-1.6,2.1-2.2,3.3c-1.4-2.7-3.5-4.9-6.1-6.4l-8.3-7.8l-12.1-4.7c-1.9-1-4-1.7-6.2-1.9
					c-5.6-0.6-10.7,1.5-14.3,5.3c-0.4-0.1-0.8-0.2-1.3-0.3c-4.4-0.5-8.4,2.8-8.8,7.2c-0.2,2.1,0.4,4.1,1.6,5.6
					c-4.9,1.9-8.7,5.9-10.4,10.9c-1.6-0.6-3.2-1-5-1.2c-0.6-0.1-1.1-0.1-1.6-0.1c-0.9-3.3-3.6-5.9-7.1-6.2c-4.5-0.5-8.6,2.8-9.1,7.4
					c-0.2,1.9,0.3,3.7,1.1,5.1c-2,2.2-3.6,4.8-4.6,7.8c-1.4,0.3-2.8,0.7-4.1,1.2c0.3-0.5,0.5-1.1,0.6-1.7c0.2-2.4-1.4-4.4-3.8-4.6
					c-2.5-0.2-4.5,1.6-4.6,4c-0.1,2.3,1.5,4.2,3.8,4.4h0.1c-5.3,3.4-16.7,32.1,1.8,23.3c0,0,3.8,12.6,29.4,2.2
					c25.6-10.3,32.9,11.5,54.1-0.6s2.5,15.2,1.4,0s17.9,7.2,29.4-1.8s18.5,4,39.7-2.5c21.2-6.5,28.9-5.3,39.2-2.5
					c10.3,2.8,29.3-1.8,29.3-1.8C1369.8,1339.8,1378.7,1339.1,1381.4,1334.9z"/>
			</g>
			<path class="st9" d="M1179,1151.7"/>
			<path class="st9" d="M1181.3,1155.9"/>
		</g>
		<g id="prShuttle">
			<g>
				<g>
					<g>
						<g id="rightTurbin">
							<polygon class="st11" points="990.8,873.5 947.9,873.3 953.9,845.7 985,845.9 							"/>
							<g>
								<path class="st9" d="M989,829l2.1-359.1c0.1-10.7-8.5-50-19.2-50c-10.7-0.1-19.7,39.1-19.8,49.8l-2,359.1L989,829z"/>
							</g>
							<g>
								<path class="st12" d="M990.5,463.3c-0.4-3-1-6.6-1.9-10.3l-33.9-0.2c-0.8,3.7-1.5,7.3-2,10.2L990.5,463.3z"/>
							</g>
							<g>
								<path class="st12" d="M987.3,447.2c-3.5-13.5-9-27.2-15.4-27.2s-12.1,13.6-15.7,27.1L987.3,447.2z"/>
							</g>
							<g>

									<rect x="969.1" y="475.3" transform="matrix(5.733179e-03 -1 1 5.733179e-03 471.1465 1463.4154)" class="st12" width="4.7" height="38.9"/>
							</g>
							<g>

									<rect x="968.8" y="523.6" transform="matrix(5.733179e-03 -1 1 5.733179e-03 422.6129 1511.0754)" class="st12" width="4.7" height="38.9"/>
							</g>
							<g>

									<rect x="955" y="571.6" transform="matrix(5.733179e-03 -1 1 5.733179e-03 374.473 1558.7323)" class="st12" width="32.1" height="38.9"/>
							</g>
							<g>

									<rect x="968.3" y="619.7" transform="matrix(5.733179e-03 -1 1 5.733179e-03 325.9406 1606.1934)" class="st12" width="4.7" height="38.9"/>
							</g>
							<g>

									<rect x="968.1" y="667.9" transform="matrix(5.733179e-03 -1 1 5.733179e-03 277.5851 1653.8035)" class="st12" width="4.7" height="38.9"/>
							</g>
							<g>

									<rect x="967.7" y="807.4" transform="matrix(5.733179e-03 -1 1 5.733179e-03 137.1426 1791.652)" class="st12" width="3.7" height="38.9"/>
							</g>
							<polygon class="st13" points="996.2,856.7 942.6,856.4 950.1,828.8 989,829 							"/>
						</g>
						<g id="leftTurbin">
							<polygon class="st11" points="1078.1,874.1 1120.9,874.4 1115.2,846.7 1084.1,846.5 							"/>
							<g>
								<path class="st9" d="M1080.3,829.6l2.1-359.1c0.1-10.7,9.1-49.9,19.8-49.8c10.7,0.1,19.2,39.4,19.2,50l-2.2,359.1
									L1080.3,829.6z"/>
							</g>
							<g>
								<path class="st12" d="M1083,463.9c0.4-3,1.1-6.6,2-10.2l33.9,0.2c0.8,3.8,1.4,7.3,1.9,10.3L1083,463.9z"/>
							</g>
							<g>
								<path class="st12" d="M1086.4,447.7c3.6-13.4,9.3-27.1,15.7-27.1c6.4,0,11.9,13.8,15.4,27.2L1086.4,447.7z"/>
							</g>
							<g>

									<rect x="1099.3" y="476.1" transform="matrix(5.733179e-03 -1 1 5.733179e-03 599.8149 1594.2797)" class="st12" width="4.7" height="38.9"/>
							</g>
							<g>

									<rect x="1099" y="524.2" transform="matrix(5.733179e-03 -1 1 5.733179e-03 551.4056 1641.8916)" class="st12" width="4.7" height="38.9"/>
							</g>
							<g>

									<rect x="1085" y="572.3" transform="matrix(5.733179e-03 -1 1 5.733179e-03 502.9652 1689.448)" class="st12" width="32.1" height="38.9"/>
							</g>
							<g>

									<rect x="1098.4" y="620.4" transform="matrix(5.733179e-03 -1 1 5.733179e-03 454.5914 1737.0042)" class="st12" width="4.7" height="38.9"/>
							</g>
							<g>

									<rect x="1098.3" y="668.7" transform="matrix(5.733179e-03 -1 1 5.733179e-03 406.2328 1784.7749)" class="st12" width="4.7" height="38.9"/>
							</g>
							<g>

									<rect x="1097.9" y="808.3" transform="matrix(5.733179e-03 -1 1 5.733179e-03 265.7087 1922.725)" class="st12" width="3.7" height="38.9"/>
							</g>
							<polygon class="st13" points="1072.8,857.1 1126.4,857.4 1119.2,829.8 1080.3,829.6 							"/>
						</g>
					</g>
				</g>
			</g>
			<g id="mainTurbin">
				<g>
					<g>
						<g>
							<path class="st14" d="M1097.8,760l-17-27.7v-3.7l2-343.6c0.1-10.7-20-61.8-45.2-61.9c-25.2-0.1-45.8,50.6-45.9,61.4l-2,343.6
								v3.7l-17.4,27.5l21.1,0.1l-8.5,16.9l100.3,0.6l-8.3-16.9L1097.8,760z"/>
						</g>
						<g>
							<path class="st12" d="M1082.7,390.9V385c0-0.3-0.1-0.6,0-1l-90.9-0.5c-0.1,0.4,0,0.7,0,1v5.9L1082.7,390.9z"/>
						</g>
						<g>
							<path class="st12" d="M1076.9,364.7c-7.7-18.4-22.4-41.6-39.4-41.7s-31.8,22.9-39.8,41.3L1076.9,364.7z"/>
						</g>
					</g>
				</g>
			</g>
			<g>
				<g>
					<g id="rocket">
						<g>
							<g>
								<path class="st15" d="M999.5,613.6c0,0-12.9,66-19.2,71.8s-51.4,51.9-55.4,59.2c-4.1,7.3-4.1,39.6-4.1,39.6l77.2-87
									L999.5,613.6z"/>
							</g>
							<path class="st11" d="M1011.6,538.1c0,0-13.3,89.8-17.5,100.4c0,0-5.4,44.7-11.7,52s-51.7,50.4-55.8,57.4s-5.9,36.3-5.9,36.3
								l77.2-81.8l18.8-111.3L1011.6,538.1z"/>
							<path class="st13" d="M1011.9,591.1h-4.8l-8.8,46.2h2.4l-4.2,32.1l-9.7,24.2c0,0-50.5,47.2-57,57.4s-8.3,20.8-9,33.3l80,16.3
								l12.5-47.8L1011.9,591.1z"/>
							<path class="st11" d="M1007.7,774l2.1-8.1l-86.3-0.5c-0.7,2.6-1.2,5.3-1.6,8.1L1007.7,774z"/>
						</g>
						<g>
							<g>
								<path class="st15" d="M1072.4,614c0,0,12.1,66.2,18.3,72c6.3,5.9,50.8,52.5,54.7,59.8c4,7.3,3.7,39.7,3.7,39.7l-76.1-87.8
									L1072.4,614z"/>
							</g>
							<path class="st11" d="M1061.1,538.4c0,0,12.3,89.9,16.3,100.6c0,0,4.9,44.8,11.1,52.2s51.1,51,55.1,58s5.4,36.4,5.4,36.4
								l-76.2-82.7l-17.5-111.5L1061.1,538.4z"/>
							<path class="st13" d="M1060.2,591.5h4.8l8.2,46.3h-2.4l3.8,32.2l9.4,24.3c0,0,50.1,47.8,56.4,58c6.4,10.3,8,20.9,8.6,33.4
								l-80.1,15.4l-12-47.9L1060.2,591.5z"/>
							<path class="st11" d="M1062.3,774.4l-2-8.1l86.3,0.5c0.6,2.6,1.2,5.3,1.5,8.1L1062.3,774.4z"/>
						</g>
						<g>
							<path class="st12" d="M1036.9,475.8L1036.9,475.8c-26,21.2-25.2,63.5-25.2,63.5l24.8-9.6l0,0l24.6,10
								C1061,539.6,1062.2,497.3,1036.9,475.8z"/>
						</g>
						<g>
							<path class="st9" d="M1055.8,513.6l-19.2-0.1l-19.2-0.1c0,0-5.6,18.8-5.5,28.1c-0.1,9.3-1.5,257.2-1.5,257.2l24.7,1.1
								l24.7-0.8c0,0,1.4-247.9,1.5-257.2C1061,532.6,1055.8,513.6,1055.8,513.6z"/>
						</g>

							<rect x="991.4" y="805.5" transform="matrix(5.733179e-03 -1 1 5.733179e-03 186.1587 1803.3568)" class="st13" width="17.1" height="5.1"/>
						<path class="st16" d="M1001.6,815.1c0,0,5.6,26,32.3,7l0.1-23.2l-33.7-0.2L1001.6,815.1z"/>
						<g>
							<path class="st11" d="M1022.8,807.7c-1.2-0.5-4.8-1-6.1-0.9s-12,12.7-10.5,17.1c1.5,4.5,10.2,5.6,10.2,5.6s8.6,1.5,11.4-2.4
								C1030.5,823.3,1024,808.2,1022.8,807.7z"/>
							<ellipse transform="matrix(0.1506 -0.9886 0.9886 0.1506 47.4128 1707.0515)" cx="1017.1" cy="825.9" rx="1.9" ry="9.5"/>
						</g>
						<g>
							<path class="st17" d="M1015.2,807.8c-0.5-0.4-2.3-1-2.9-1.1c-0.6-0.1-7,5.1-6.8,7.4c0.3,2.3,4.5,3.7,4.5,3.7s4.1,1.6,5.8-0.1
								C1017.5,816.1,1015.7,808.1,1015.2,807.8z"/>
							<ellipse transform="matrix(0.3327 -0.943 0.943 0.3327 -95.3224 1497.3379)" cx="1010.4" cy="816" rx="0.9" ry="4.7"/>
						</g>
						<g>
							<path class="st17" d="M1034.9,798.8c-1.3,0-2.5,0.1-3,0.2c-1.3,0.3-10.5,14.7-8.3,19.2c2.1,4.3,10.6,4.3,11.3,4.3V798.8z"/>
							<path d="M1034.8,816.8c-5.4,0-9.8,0.8-9.7,1.9c0,1,4.3,1.9,9.7,2V816.8z"/>
						</g>
						<g>
							<path class="st18" d="M1006.8,798.8c0,0-0.7,14.4,27.2,12.5l0.1-12.3L1006.8,798.8z"/>
						</g>
						<polygon class="st19" points="1033.1,531.6 1026,535 1028.7,540.4 1033,540.4 						"/>
						<g>

								<ellipse transform="matrix(5.733179e-03 -1 1 5.733179e-03 530.3269 1525.0793)" class="st13" cx="1032.1" cy="495.9" rx="3" ry="1.8"/>
						</g>
						<g>

								<ellipse transform="matrix(5.733179e-03 -1 1 5.733179e-03 516.8292 1538.0719)" class="st13" cx="1031.9" cy="509.1" rx="1.2" ry="1.2"/>
						</g>
						<polygon class="st19" points="1025.1,535.4 1027.9,540.6 1023.5,543.3 1018.3,539.7 						"/>
						<path class="st19" d="M1017.5,541.6l5.9,2.5v4.9c0,0-4.7,1.5-5.9,0C1016.4,547.4,1017.5,541.6,1017.5,541.6z"/>
						<g>
							<polyline class="st20" points="1034,555 1034,543.9 1026.8,543.9 1026.8,555.6 							"/>
						</g>
						<path class="st19" d="M1026.7,563.7c0,0.8,0.6,1.5,1.5,1.5h4.2c0.8,0,1.5-0.6,1.5-1.5v-4.2c0-0.8-0.6-1.5-1.5-1.5h-4.2
							c-0.8,0-1.5,0.6-1.5,1.5V563.7z"/>
						<g>
							<path class="st21" d="M1028.5,801.5l0.2-31.3c0.1-10.3-0.2-18.7-8.9-18.8s-22.2,8.3-22.2,18.6l-0.2,31.3L1028.5,801.5z"/>
						</g>
						<g>
							<path class="st22" d="M1001.1,801.3c0,0-1.5-14.9,0.2-17.4s11.9-7.1,12.8-4.5c0.9,2.6-0.1,21.9-0.1,21.9"/>
						</g>
						<path class="st13" d="M1036.7,475.8c-3.3,2.7-6.3,5.8-8.8,9l8.8,0.1l8.8,0.1C1042.9,481.7,1040,478.6,1036.7,475.8z"/>

							<rect x="1061.1" y="805.9" transform="matrix(5.662474e-03 -1 1 5.662474e-03 255.0939 1873.474)" class="st13" width="17.1" height="5.1"/>
						<path class="st16" d="M1067.9,815.6c0,0-5.9,25.9-32.4,6.6l0.1-23.2l33.7,0.2L1067.9,815.6z"/>
						<g>
							<path class="st11" d="M1046.9,807.8c1.2-0.5,4.8-1,6.1-0.8c1.3,0.1,11.8,12.8,10.3,17.2s-10.3,5.5-10.3,5.5
								s-8.6,1.4-11.4-2.5C1038.9,823.4,1045.6,808.3,1046.9,807.8z"/>
							<ellipse transform="matrix(0.9903 -0.1392 0.1392 0.9903 -104.7476 154.5365)" cx="1052.4" cy="826.1" rx="9.5" ry="1.9"/>
						</g>
						<g>
							<path class="st17" d="M1054.5,808c0.5-0.4,2.3-1,2.9-1c0.6-0.1,7,5.2,6.7,7.5c-0.4,2.3-4.5,3.7-4.5,3.7s-4.1,1.5-5.8-0.2
								C1052,816.3,1053.9,808.3,1054.5,808z"/>
							<ellipse transform="matrix(0.9467 -0.322 0.322 0.9467 -206.4549 384.409)" cx="1058.8" cy="816.3" rx="4.7" ry="0.9"/>
						</g>
						<g>
							<path class="st17" d="M1034.9,798.8c1.3,0,2.5,0.1,3,0.2c1.3,0.4,10.3,14.8,8.1,19.3c-2.1,4.2-10.6,4.2-11.3,4.2
								L1034.9,798.8z"/>
							<path d="M1034.8,816.8c5.4,0,9.8,0.9,9.7,2c0,1-4.3,1.9-9.8,1.9L1034.8,816.8z"/>
						</g>
						<g>
							<path class="st18" d="M1062.9,799.1c0,0,0.6,14.4-27.4,12.1l0.1-12.3L1062.9,799.1z"/>
						</g>
						<polygon class="st19" points="1039.7,531.6 1046.8,535.1 1044.1,540.4 1039.7,540.4 						"/>
						<g>

								<ellipse transform="matrix(5.803879e-03 -1 1 5.803879e-03 534.89 1529.5609)" class="st13" cx="1036.7" cy="495.8" rx="3" ry="1.8"/>
						</g>
						<g>

								<ellipse transform="matrix(5.591801e-03 -1 1 5.591801e-03 539.4861 1534.068)" class="st13" cx="1041.1" cy="495.8" rx="3" ry="1.8"/>
						</g>
						<g>

								<ellipse transform="matrix(5.591801e-03 -1 1 5.591801e-03 525.8907 1547.7859)" class="st13" cx="1041.2" cy="509.5" rx="1.2" ry="1.2"/>
						</g>
						<g>

								<ellipse transform="matrix(5.733179e-03 -1 1 5.733179e-03 521.3922 1542.7485)" class="st13" cx="1036.5" cy="509.2" rx="1.2" ry="1.2"/>
						</g>
						<g>
							<polygon class="st9" points="1052.4,510.7 1049.2,497.7 1043.8,497.7 1043.8,499.9 1036.5,500 1029.3,499.9 1029.3,497.6
								1023.9,497.6 1020.6,510.5 1029.7,510.5 1029.7,506.4 1036.6,506.4 1043.3,506.4 1043.3,510.7 							"/>
						</g>
						<polygon class="st11" points="1036.4,529.7 1033.1,531.6 1033,540.4 1036.3,540.4 1039.7,540.4 1039.7,531.6 						"/>
						<polygon class="st19" points="1047.5,535.5 1044.8,540.7 1049,543.4 1054.3,540 						"/>
						<path class="st19" d="M1055.1,541.8l-5.9,2.4v4.9c0,0,4.7,1.6,5.9,0C1056.3,547.7,1055.1,541.8,1055.1,541.8z"/>
						<g>
							<polyline class="st20" points="1038.5,555.1 1038.5,544 1045.7,544 1045.8,555.7 							"/>
						</g>
						<path class="st19" d="M1045.6,563.8c0,0.8-0.6,1.5-1.5,1.5h-4.2c-0.8,0-1.5-0.6-1.5-1.5v-4.2c0-0.8,0.6-1.5,1.5-1.5h4.2
							c0.8,0,1.5,0.6,1.5,1.5V563.8z"/>
						<g>
							<path class="st21" d="M1041.1,801.6l0.2-31.3c0.1-10.3,0.5-18.7,9.1-18.7s22.1,8.5,22,18.9l-0.2,31.3L1041.1,801.6z"/>
						</g>
						<g>
							<path class="st21" d="M1035.2,751.8c-2.6,1.3-4.8,23.6-5,51s1.8,49.9,4.4,51.1c2.6-1.3,4.8-23.6,5-51
								C1039.6,775.5,1037.7,753,1035.2,751.8z"/>
						</g>
						<g>
							<path class="st18" d="M1035.1,759.5c-1.5,1.8-2.8,20.5-3,43.3c-0.1,22.9,0.9,41.6,2.5,43.4c1.5-1.8,2.8-20.5,3-43.3
								C1037.7,780.1,1036.6,761.3,1035.1,759.5z"/>
						</g>
						<g>
							<path class="st22" d="M1068.5,801.7c0,0,1.6-14.8,0-17.4c-1.7-2.6-11.8-7.3-12.7-4.6c-0.9,2.6-0.1,21.9-0.1,21.9"/>
						</g>
					</g>
				</g>
			</g>
		</g>
	</g>
	<circle id="prCircle" class="st23" cx="1920" cy="677" r="665.2"/>
	<text id="prTitle" transform="matrix(1 0 0 1 1157.5479 181.2573)" class="st24 st25 st26">Projects</text>
	<rect x="1165.5" y="215.6" class="st1" width="368.2" height="145.1"/>
	<g id="prDescription">
		<text transform="matrix(1 0 0 1 1161.5479 260.1731)" class="st24 st25 st27">Discover my projects</text>
		<text transform="matrix(1 0 0 1 1161.5479 300.1731)" class="st24 st25 st27">and creations! </text>
	</g>
</g>
</svg>
