<?xml version="1.0" encoding="utf-8"?>
<!-- Generator: Adobe Illustrator 21.0.2, SVG Export Plug-In . SVG Version: 6.00 Build 0)  -->
<svg version="1.1" id="About" xmlns="http://www.w3.org/2000/svg" xmlns:xlink="http://www.w3.org/1999/xlink" x="0px" y="0px"
	 viewBox="0 0 1920 1080" style="enable-background:new 0 0 1920 1080;" xml:space="preserve">
<style type="text/css">
	.st0{opacity:0.5;fill:none;stroke:#FFFFFF;stroke-miterlimit:10;enable-background:new    ;}
	.st1{fill:#FFFFFF;}
	.st2{fill:none;}
	.st3{fill:#ACBBBF;}
	.st4{fill:#231F20;}
	.st5{fill:#F2F2F4;}
	.st6{fill:#C54C31;}
	.st7{fill:#371C40;}
	.st8{fill:#B24B35;}
	.st9{opacity:0.31;fill:#CFEAF3;enable-background:new    ;}
	.st10{fill:#F2F2F2;}
	.st11{fill:#1F1F1F;}
	.st12{font-family:'ComicSansMS';}
	.st13{font-size:2.3em;}

	.st14{font-family:'Lato', Fallback, sans-serif; font-weight: 100;}
	.st15{font-size:10em;}
	.st16{font-family:'Lato', Fallback, sans-serif; font-weight: 300;}
	.st17{font-size:2.5em;}
	@media only screen and (min-width: 800px) {
	.st15{font-size:100px;}
	.st17{font-size:30px;}
	}
</style>
<filter id="dropshadow" height="130%">
  <feGaussianBlur in="SourceAlpha" stdDeviation="3"/> <!-- stdDeviation is how much to blur -->
  <feOffset dx="2" dy="2" result="offsetblur"/> <!-- how much to offset -->
  <feComponentTransfer>
    <feFuncA type="linear" slope="0.5"/> <!-- slope is the opacity of the shadow -->
  </feComponentTransfer>
  <feMerge>
    <feMergeNode/> <!-- this contains the offset blurred image -->
    <feMergeNode in="SourceGraphic"/> <!-- this contains the element that the filter is applied to -->
  </feMerge>
</filter>
<g id="About">
	<circle id="abCircle" class="st0" cx="1974.7" cy="517.7" r="665.2"/>
	<g id="abMoon">
		<path class="st1" d="M2086.1,64.7c7.1-3,18.2,0.3,26,0c15.6-0.8,34.7-8.9,43.6,10.4c0.2,0.2,0.2,0.3,0.3,0.5
			c-18.9-2.3-38-3.6-57.2-3.6c-8.4,0-16.8,0.3-25.1,0.7C2076.4,70,2079.6,67.5,2086.1,64.7z"/>
		<path class="st1" d="M1673.1,306.3c9.2-13,15.9-24.7,30.2-32.9c4.1-2.3,8.4-4.6,12.5-7.1c-21.4,29.3-39.3,60.8-53.4,94
			c-0.7-1.3-1.5-2.8-2.3-4.3C1649.1,337.6,1662.5,321.1,1673.1,306.3z"/>
		<path class="st1" d="M1848.9,972.2c-14.1-8.2-23.5-14.3-31.6-28.9c-3.8-6.9-6.6-14.3-9.7-21.5c6.4,4.9,12.8,9.7,19.4,14.3
			c22.7,15.9,46.7,29.6,71.5,41.1C1879.4,987.5,1867.8,983.1,1848.9,972.2z"/>
		<path class="st1" d="M2562.8,699.2c-1.2,7.6-6.7,15.6-9,23.2c-5.6,18.4-3,42.1-26.8,44.5c-3.1,0.3-6.1,1.2-9,2.5
			c16.6-31.2,29.6-64.1,38.8-98C2560.2,680.6,2564.5,687.4,2562.8,699.2z"/>
		<path class="st1" d="M2300.5,961.7L2300.5,961.7c-2.8,1.2-5.6,2.3-8.4,3.3c-7.4,2.5-19.9,0.7-22.4,10.2c-0.2,0.8,0.5,1.6,1.5,1.5
			c8.5-1.6,17.8-2.5,26.1-4.9c1.2-0.3,2.3-0.7,3.5-1.2c-3.6,5.8-6.7,12-10.4,17.9c-7.2,12.2-23.7,13-35.2,18.1
			c-15.8,6.7-33.4,24.2-48.8,9c-3.3-3.3-6.7-5.6-10.4-7.2c7.4-2.6,14.5-5.9,21.2-10.2c1.5-1,0.8-3.1-0.8-3.1
			c-10.7-0.8-22,3.5-32.4,6.1c-2,0.5-4.1,0.8-6.2,1.2l-0.2-0.7c-25.8,4.4-52.3,6.7-78.7,6.7c-178.3,0-342.1-105.2-417.5-264.8
			c0.8-7.9-4.6-15.3-7.9-22.5c-4.4-9.5-11.3-19.2-13.8-29.6c-0.5-1.8-3-1.6-3.5,0c-2.8,8.5,1.6,15.8,5.3,23.5
			c-4.1-2.1-8.7-3.5-13.8-4.9c-18.7-5.1-17.8-51.3-21.4-67.6c-5.4-23.7-25.1-39-4.4-62.5c2.1-2.5,3.8-4.8,5.3-7.1
			c0.8,5.3,2,10.5,3.1,15.6c2.5,10.8,3.3,22.5,9.4,32.1c1.5,2.3,4.4,0.3,3.5-2c-4.3-9.9-2.1-22-3.9-32.5c-1.3-7.2-1.3-14.6-1.8-22
			h0.5c-0.2-5.6-0.3-11.3-0.3-17.1c0-140.4,64.3-273,173.1-360.3c0.7,0.2,1.3,0.2,2,0c4.4-1.2,6.4-3.6,9.9-6.6
			c5.3-4.6,11.5-7.9,17.4-11.3c4.8-2.8,9.4-5.8,13.3-9.5c4.1-3.9,7.2-10.8,13.2-12.7c1.8-0.5,1.8-3.1,0-3.8
			c-11-3.1-20.5,9.7-29.4,14.5c-0.2,0-0.3,0.2-0.5,0.2c2.6-5.4,3.3-11.2,3.8-18.2c1.2-20.5,45.4-29.1,62.1-36.8
			c21.7-10,33.5-31.9,60.3-16.9c7.2,4.1,13.2,5.9,19.4,5.9l0.2,0.5c-4.3,1.3-8.2,2.6-11,3.5c-7.1,2.1-18.6,4.9-19.7,13.6
			c-0.2,1,1.2,1.5,1.8,1.2c7.9-3.5,16.9-6.2,25.5-7.7c6.9-1.2,13.6-2.6,20.5-3.9c6.6-1.3,11.2-0.3,16.3-4.6c0.3-0.2,0.5-0.5,0.5-0.8
			c27.1-4.9,54.9-7.4,82.7-7.4c106.4,0,210.2,37.1,292.4,104.4l0.2-0.2c1.6,1.5,3.3,3,4.9,4.6c8.7,8.7,15.1,18.7,25.1,26
			c1.2,0.8,2.6-0.8,2-2c-3.1-5.1-5.3-10.7-7.9-15.9c-2.8-5.6-7.7-10.4-11.8-15c7.7,1.3,15-0.5,23.8-1.8
			c16.4-2.1,37.8,44.4,49.6,54.4c15.3,13,34.4,24.8,29.1,47.8c-2.8,12.2-3.5,20.1,0.5,29.1c-5.6-8.5-11.3-16.4-18.4-24
			c-0.5-0.5-1.2,0.2-0.8,0.7c4.9,10.7,9.4,21.5,14.8,31.9c3.8,7.2,7.6,15.8,13,22.2c29.4,61.8,45,129.9,45,198.9
			C2560,724.7,2460.6,883.8,2300.5,961.7z"/>
		<g>
			<path class="st2" d="M1902.7,168.1c0.2,1.3,0.2,2.3,0.2,3.5c1.3-1.3,2.8-2.6,4.4-3.6l0,0c0.5-1.3,1-2.6,1.5-3.9
				c-2.6,0.3-5.3,1-7.7,2C1901.9,166.5,1902.5,166.9,1902.7,168.1z"/>
			<path class="st2" d="M1912.6,189.8c-0.5,1.3-1,2.6-1.3,3.9c1.2-0.7,2.1-1.2,3.3-1.8C1913.5,191.4,1912.9,190.8,1912.6,189.8z"/>
			<path class="st2" d="M1901.7,195.5c-0.5,1.2-1,2.5-1.5,3.8c0.7-0.3,1.3-0.7,2-1C1901.9,197.4,1901.7,196.5,1901.7,195.5z"/>
			<path class="st2" d="M1918,166.8c0.2-0.5,0.5-0.8,0.8-1c-1.6-1-3.5-1.5-5.4-1.6c0,0.5-0.2,1-0.3,1.5
				C1914.7,164.2,1917.5,164.3,1918,166.8z"/>
			<path class="st2" d="M1796.3,576.2c0-0.2,0.2-0.3,0.2-0.5c-0.2,0.2-0.5,0.3-0.7,0.3c-0.3,0.2-0.7,0.5-1,0.8
				c0.2,0,0.2,0.2,0.3,0.2C1795.5,576.7,1795.9,576.6,1796.3,576.2z"/>
			<path class="st2" d="M1808.2,616.4c-1.2,0.3-2.3,0.5-3.5,0.5c0.3,0.7,0.7,1.5,1.2,2.1C1806.2,618,1807.2,617,1808.2,616.4z"/>
			<path class="st2" d="M1895.8,190.6c0.5-0.8,0.8-1.6,1.3-2.3c-0.2,0-0.2-0.2-0.3-0.2c-0.5,1-0.8,2-1.2,2.8
				C1895.6,190.9,1895.6,190.8,1895.8,190.6z"/>
			<path class="st2" d="M1923.6,184.5c-0.3-0.7-0.7-1.5-0.3-2.5c1.3-5.3,1-9-0.3-12c0.8,5.4,1,11.5-1.2,16.6
				C1922.3,186,1922.9,185.4,1923.6,184.5z"/>
			<path class="st2" d="M1775.5,418.1c-0.7-0.3-1.3-0.8-2-1.5c0.5,0.7,1,1.3,1.5,2.1C1775.1,418.6,1775.3,418.4,1775.5,418.1z"/>
			<path class="st2" d="M1826.6,620c-0.2,0.2-0.3,0.3-0.5,0.5c-0.8,0.7-1.8,1-2.8,1.2c2.1,0,4.3-0.7,6.1-1.6
				C1828.6,620,1827.6,620,1826.6,620z"/>
			<path class="st2" d="M1851.6,199c0-0.3,0.2-0.5,0.2-0.8c-1.6,1.5-3,3.3-3.9,5.1c0.2,0.7,0.3,1.3,0.5,1.8
				C1849.1,202.9,1850.1,200.6,1851.6,199z"/>
			<path class="st2" d="M1768.2,407.8C1768.2,407.8,1768.2,407.9,1768.2,407.8c0,0.2,0,0.2,0,0.2S1768.2,407.9,1768.2,407.8z"/>
			<path class="st2" d="M1857.3,214.1c-0.5-0.8-0.7-2-0.2-3.1c0,0,0,0,0-0.2c-0.7-0.3-1.2-1-1.5-1.6c-0.2,0-0.5,0.2-0.7,0.2
				c-0.2,0.3-0.3,0.7-0.3,1.2c0,0.2,0.2,0.2,0.2,0.3c0.3,1,0.2,1.8-0.3,2.8C1855.4,214,1856.3,214.1,1857.3,214.1z"/>
			<path class="st2" d="M1867.7,211.7L1867.7,211.7c-0.2,0.3-0.5,0.7-0.8,0.8c0.3,0,0.7-0.2,1-0.3
				C1868,212.2,1867.8,211.8,1867.7,211.7z"/>
			<path class="st2" d="M1863.9,190.6c0.2-1,0.5-1.8,0.7-2.8c-0.8,0.5-1.6,1.2-2.5,1.6c0,0.5-0.2,1-0.5,1.5c-1,1.5-1.6,3.3-2,5.1
				c0.7-1,1.2-1.8,1.8-2.6C1862.3,192.4,1863.1,191.4,1863.9,190.6z"/>
			<path class="st2" d="M1883.8,176.3c-3,1.6-5.9,3.3-8.7,4.9c-0.8,0.5-1.8,1-2.6,1.5c0,1.2,0,2.3,0,3.5c1,0.5,1.5,2,0.5,3
				c-0.3,0.3-0.5,0.7-0.8,1c0,0.7-0.2,1.5-0.3,2.1c0,2.3-0.7,4.8-1.3,7.1c1.6-3.1,3.6-5.9,5.6-8.7
				C1879.5,186,1881.8,181.4,1883.8,176.3z"/>
			<path class="st2" d="M1876.7,209.7c2.1-0.8,4.1-1.6,6.2-2.5c-0.5-4.3,0.8-9,2.3-13.5C1881.8,199,1878.2,204.1,1876.7,209.7z"/>
			<path class="st2" d="M1891.4,181.7c2.6-4.1,5.4-8.4,5.3-12.8c0-0.3,0-0.5,0.2-0.7c-0.5,0.3-1.2,0.7-1.6,1c-1.3,1-2.6,2-4.1,3
				c0.2,0.3,0.3,0.7,0.5,1C1892.2,176.2,1892,179.1,1891.4,181.7z"/>
			<path class="st2" d="M2110.3,610.9c0,0.2,0.2,0.2,0.2,0.3C2110.3,611.1,2110.3,610.9,2110.3,610.9L2110.3,610.9z"/>
			<path class="st2" d="M2183.1,477.5c0.3,0,0.7,0.2,1.2,0.3c-7.4-3.1-14.5-7.2-19.9-12.7C2169.1,471,2175.6,475.6,2183.1,477.5z"/>
			<path class="st2" d="M2148.6,736.3L2148.6,736.3L2148.6,736.3C2148.8,736.3,2148.6,736.3,2148.6,736.3z"/>
			<path class="st2" d="M2101.8,300.9c-0.2-0.3-0.2-0.8-0.3-1.2c-0.7-0.2-1.3-0.3-2-0.5l0,0c-0.2,0.8-0.3,1.6-0.3,2.6
				c0.3-0.3,0.8-0.7,1.3-0.8C2100.8,300.7,2101.3,300.7,2101.8,300.9z"/>
			<path class="st2" d="M2090.4,328.9c-2.5-0.3-4.8-1.2-6.7-2.5c-0.8,0.3-1.6,0.7-2.5,1c0.5,0.5,1.2,1,1.6,1.6
				C2085.3,329,2087.9,328.9,2090.4,328.9z"/>
			<path class="st2" d="M2086.1,313.2C2086.1,313.1,2086.3,313.1,2086.1,313.2c0.2-0.2,0.2-0.2,0.2-0.2c0-0.2-0.2-0.3-0.2-0.5
				c-0.3,0.2-0.7,0.3-1,0.3c0.2,0.2,0.2,0.2,0.3,0.3C2085.8,313.2,2086,313.2,2086.1,313.2z"/>
			<path class="st2" d="M1807.7,921.6c3.1,7.2,5.9,14.6,9.7,21.5c8.1,14.8,17.4,20.9,31.6,28.9c18.9,10.8,30.4,15.3,49.6,4.9
				c-24.8-11.5-48.8-25.3-71.5-41.1C1820.5,931.5,1814.1,926.5,1807.7,921.6z"/>
			<path class="st2" d="M1845,591.9c0.5,0.3,0.8,0.7,1.3,0.8c-0.8-2-1.8-3.9-3-5.8c0,0.3,0,0.5,0,0.8c0.3,0.8,0.5,1.6,0.5,2.6
				C1844.5,590.7,1844.7,591.4,1845,591.9z"/>
			<path class="st2" d="M1662.2,360.6c14.1-33.2,32.1-64.8,53.4-94c-4.1,2.3-8.4,4.6-12.5,7.1c-14.3,8.2-21,19.9-30.2,32.9
				c-10.5,14.8-23.8,31.2-13.2,50C1660.7,357.8,1661.6,359.3,1662.2,360.6z"/>
			<path class="st2" d="M2156,75.6c-0.2-0.2-0.2-0.3-0.3-0.5c-8.9-19.1-27.9-11-43.6-10.4c-7.7,0.3-18.7-3-26,0
				c-6.6,2.8-9.7,5.3-12.7,8.1c8.4-0.5,16.8-0.7,25.1-0.7C2118,72.1,2137.1,73.3,2156,75.6z"/>
			<path class="st2" d="M2104.5,601.6c1,1.3,1.8,2.6,2.6,3.9c0.5,0,1-0.2,1.6-0.2c-0.7-1.6-1.5-3.1-2.6-4.4
				C2105.7,601.2,2105.2,601.4,2104.5,601.6z"/>
			<path class="st2" d="M1765.3,426.8c-0.8-0.3-1.5-0.7-2.1-1.2c0.3,0.5,0.7,1.2,1,1.6C1764.6,427.2,1764.9,427,1765.3,426.8z"/>
			<path class="st2" d="M2142.5,732.1c-0.3,0.2-0.7,0.5-1,0.7c0.5-0.2,1-0.2,1.5-0.3C2142.8,732.2,2142.7,732.2,2142.5,732.1z"/>
			<path class="st2" d="M2101.8,632.5c-0.3,0.2-0.7,0.5-1.2,0.7c2.5,1,4.8,0.8,6.6-1.6c-0.2-0.2-0.2-0.5-0.3-0.7
				C2105.5,632.1,2103.7,632.6,2101.8,632.5z"/>
			<path class="st2" d="M1959.7,626.4c0.2,0.2,0.2,0.3,0.3,0.5c0-0.3-0.2-0.7-0.2-1C1959.7,626.2,1959.7,626.4,1959.7,626.4z"/>
			<path class="st2" d="M2145.8,744.2c-3.5,0-7.4,0-10.7,1.2c-0.3,1.5-0.2,3.1,0.7,4.8c4.8-5.3,14-6.4,20.9-5.1
				c-1.3-2-2.8-3.8-4.4-5.6C2153,743.1,2148.4,744.2,2145.8,744.2z"/>
			<path class="st2" d="M2096.3,593.5c0.5,1.2,0.3,2.6-0.5,3.6h0.2c1.8-0.2,3.8-0.3,5.6-0.3C2099.9,595.5,2098.1,594.3,2096.3,593.5
				z"/>
			<path class="st2" d="M2104.1,617.8c0-0.2-0.2-0.3-0.2-0.5c0,0,0,0-0.2,0c0,0.3,0,0.8-0.2,1.2c0.2,0,0.3,0,0.5-0.2
				C2104.2,618.3,2104.1,618,2104.1,617.8z"/>
			<path class="st2" d="M2159.1,752.3c-0.5,0.2-1,0.2-1.5,0.2c1.2,0.3,2.1,1,3,1.6c-0.2-0.7-0.5-1.5-0.7-2.1
				C2159.8,752.1,2159.5,752.3,2159.1,752.3z"/>
			<path class="st2" d="M2334,698.2c2.6-0.3,5.4-0.8,7.9-1.3c-2.6,0.3-5.4,0.5-8.1,0.7C2333.9,697.7,2334,697.9,2334,698.2z"/>
			<path class="st2" d="M2351.3,630.3c-1,10.7-4.4,21-14.6,26.5c-4.3,2.3-10.5,4.8-16.8,5.6c0.2,0.2,0.3,0.3,0.7,0.7
				c5.9-1.2,12.3-0.2,18.4-0.8c6.9-4.3,13.1-9.7,15-17.6c0.2-1.5,0.3-3.1,0.7-4.6c0-0.3,0-0.7,0-1s0.2-0.7,0.3-1
				c0.2-0.5,0.2-0.8,0.3-1.3c0.3-1,1-1.6,1.8-1.8c-1.8-1.8-3.8-3.6-5.8-5.1C2351.3,630.2,2351.3,630.3,2351.3,630.3z"/>
			<path class="st2" d="M1756.2,410.4c-0.5-0.7-0.8-1.3-1.3-2c0.7,1.8,1.3,3.6,2,5.4C1756.7,412.7,1756.4,411.5,1756.2,410.4z"/>
			<path class="st2" d="M2371.5,656c-0.3-0.3-0.7-0.7-1-1.2c-2.6-5.1-5.6-10-9-14.6c2.1,7.9,3.3,16.4-0.3,23
				C2364.6,661.2,2368,658.8,2371.5,656z"/>
			<path class="st2" d="M2324.2,627.4c-1,0.8-2.1,1.5-3.1,2.3c3.1-0.2,5.9-0.8,8.7-2C2327.9,627.5,2326.1,627.4,2324.2,627.4z"/>
			<path class="st2" d="M2376.6,656.1c0.3,0.7,0.3,1.5-0.2,2.3c-2,3.6-4.1,6.9-6.6,9.7c1.2,0.7,1.8,2.1,1,3.8
				c-0.7,1.3-1.5,2.5-2.5,3.8c2.6-1.2,5.3-2.3,7.9-3.6c1.6-0.8,3.1,0.8,2.3,2.3c-1.3,3-3.3,5.8-5.6,8.2c0,0.3-0.2,0.5-0.2,0.8
				c4.1-3.6,7.2-8.2,9.2-13.5c0.3-0.8,0.8-1.3,1.3-1.5c-1.5-4.4-3.5-8.9-5.8-13C2377.2,655.6,2376.9,656,2376.6,656.1z"/>
			<path class="st2" d="M2324.3,638.7c-0.3,0-0.7,0.2-0.8,0.2c-2.1,0.5-5.8,1.2-8.9,1c0,0.2,0.2,0.2,0.2,0.2c2.6,0,5.3-0.2,7.4-0.7
				C2322.8,639.2,2323.5,639,2324.3,638.7z"/>
			<path class="st2" d="M2324.6,649.7c1.6-0.2,3.3-0.5,4.8-1.2c8.9-3.1,15-9.5,17.4-18.9c0.2-0.8,0.8-1.3,1.5-1.5
				c-1.2-0.5-2.3-1-3.3-1.5c-0.3,0.2-0.7,0.5-1,0.5c-0.5,0.2-1,0.2-1.3,0.2c0,0.2,0,0.3,0,0.5c-3.1,8.4-6.4,16.4-15,20.4
				C2326.6,648.9,2325.6,649.2,2324.6,649.7z"/>
			<path class="st2" d="M2291,649.6c-1.5,7.4-1.5,15.1-0.3,22.5c0.5-0.5,1-1,1.5-1c-0.3-11.2,1.8-22.4,6.6-32.5
				c0.5-1.2,1.2-2.3,2-3.6C2295.9,638.2,2292.3,643,2291,649.6z"/>
			<path class="st2" d="M2309.7,694.6c0.2,0.2,0.2,0.5,0.3,0.7c1.6,1.2,3.5,1.8,5.4,2.5c-1.6-1-3.1-2-4.8-3
				C2310.3,694.8,2310,694.8,2309.7,694.6z"/>
			<path class="st2" d="M2518,769.4c2.8-1.2,5.8-2,9-2.5c24-2.5,21.4-26.1,26.8-44.5c2.3-7.6,7.9-15.5,9-23.2
				c1.6-11.8-2.6-18.6-6.1-27.9C2547.5,705.3,2534.6,738.2,2518,769.4z"/>
			<path class="st2" d="M1737.3,416.5c-2.5-4.8-4.4-10-4.6-15.1c-0.3-1.6-0.8-3.3-1-4.9c-0.2,6.4,1.2,12.8,4.9,18.7
				C1736.8,415.5,1737,416,1737.3,416.5z"/>
			<path class="st2" d="M1766.6,830.4c-3.5-4.3-6.9-8.7-10-13.5c3,4.9,6.1,9.9,10,14.1c0.8,0.8,1.8,1.6,2.6,2.5c0,0,0,0,0,0.2
				c0.8,0.7,1.8,1.3,2.6,1.8C1769.7,833.7,1767.9,832,1766.6,830.4z"/>
			<path class="st2" d="M2515.2,347.9c-5.6-6.4-9.4-15-13-22.2c-5.4-10.5-9.9-21.2-14.8-31.9c-0.3-0.5,0.5-1.2,0.8-0.7
				c7.1,7.6,12.8,15.6,18.4,24c-3.8-9-3.3-16.9-0.5-29.1c5.4-23-13.8-34.8-29.1-47.8c-11.8-10.2-33.2-56.7-49.6-54.4
				c-9,1.2-16.1,3-23.8,1.8c4.1,4.6,9,9.4,11.8,15c2.6,5.3,4.8,10.8,7.9,15.9c0.7,1.2-0.8,2.8-2,2c-10.2-7.2-16.4-17.3-25.1-26
				c-1.6-1.6-3.3-3.1-4.9-4.6l-0.2,0.2c-82.2-67.4-185.9-104.4-292.4-104.4c-27.8,0-55.6,2.5-82.7,7.4c-0.2,0.3-0.3,0.7-0.5,0.8
				c-5.1,4.3-9.5,3.3-16.3,4.6c-6.9,1.3-13.6,2.8-20.5,3.9c-8.5,1.5-17.4,4.3-25.5,7.7c-0.8,0.3-2,0-1.8-1.2
				c1.2-8.7,12.5-11.5,19.7-13.6c3-0.8,6.7-2.1,11-3.5l-0.2-0.5c-6.2-0.2-12.2-2-19.4-5.9c-26.8-15.1-38.5,6.9-60.3,16.9
				c-16.8,7.7-61,16.3-62.1,36.8c-0.3,6.9-1.2,12.7-3.8,18.2c0.2,0,0.3-0.2,0.5-0.2c8.9-4.6,18.4-17.6,29.4-14.5
				c1.8,0.5,1.8,3.1,0,3.8c-5.9,1.8-9,8.7-13.2,12.7c-3.9,3.8-8.5,6.9-13.3,9.5c-5.9,3.5-12.2,6.9-17.4,11.3c-3.5,3-5.4,5.4-9.9,6.6
				c-0.7,0.2-1.3,0.2-2,0c-109,87.3-173.1,219.8-173.1,360.3c0,5.8,0.2,11.5,0.3,17.1h-0.5c0.5,7.4,0.7,14.8,1.8,22
				c1.8,10.5-0.3,22.5,3.9,32.5c1,2.3-2.1,4.3-3.5,2c-6.1-9.5-6.9-21.2-9.4-32.1c-1.2-5.1-2.3-10.4-3.1-15.6
				c-1.5,2.3-3.1,4.6-5.3,7.1c-20.7,23.7-1,38.8,4.4,62.5c3.8,16.3,2.6,62.5,21.4,67.6c5.1,1.3,9.7,2.8,13.8,4.9
				c-3.6-7.7-8.1-15-5.3-23.5c0.5-1.6,3-1.8,3.5,0c2.5,10.4,9.4,19.9,13.8,29.6c3.3,7.2,8.7,14.5,7.9,22.5
				c75.4,159.6,239.2,264.8,417.5,264.8c26.5,0,52.9-2.3,78.7-6.7l0.2,0.7c2.1-0.3,4.3-0.7,6.2-1.2c10.4-2.5,21.7-6.7,32.4-6.1
				c1.6,0.2,2.3,2.3,0.8,3.1c-6.7,4.1-13.8,7.6-21.2,10.2c3.6,1.6,7.1,3.9,10.4,7.2c15.5,15.1,33-2.3,48.8-9
				c11.7-4.9,27.9-5.8,35.2-18.1c3.6-5.9,6.7-12,10.4-17.9c-1.2,0.3-2.3,0.7-3.5,1.2c-8.4,2.5-17.4,3.3-26.1,4.9
				c-0.8,0.2-1.6-0.5-1.5-1.5c2.5-9.5,15-7.7,22.4-10.2c2.8-1,5.6-2,8.5-3.1l0,0C2460.6,884.1,2560,725,2560,547
				C2560,477.8,2544.6,409.6,2515.2,347.9z M2430,277.6c9.7-3.3,18.1-0.7,26.3,4.9c9.9,6.6,13.6,18.4,22.8,25.5
				c2.3,1.8,0.3,5.6-2.3,3.9c-10.2-6.2-17.4-17.9-27.9-23.2c-8.7-4.3-19.7-4.8-24.7,5.8c-4.8,10.4,1.6,15.8,3.1,25
				c0.3,2.3-1.8,4.8-4.3,3.3C2406.3,311.9,2411.1,283.8,2430,277.6z M2377.4,457.4c15.1-14.1,30.6,3.1,32.7,18.2
				c0.3,1.8-1.8,3.5-3.3,1.8c-3.9-4.3-5.3-10.8-9.5-14.5c-7.9-6.9-16.9,3.1-18.6,10c-2,8.2-1.6,17.8,2.1,25.6
				c3.8,7.6,9,17.3,16.3,21.9c11.8,7.6,6.1-22.4,4.9-27.1c-0.7-2.6,2.3-5.4,4.8-3.8c13,9.2,16.4,40.9-3.1,45.4
				c-15.3,3.5-27.8-19.7-32.5-30.7C2364.8,489.5,2364.9,469.1,2377.4,457.4z M2341.7,229.9c-4.6,30.4-47.8,18.2-65.9,11.2
				c-21.2-8.4-62.1-31.9-69.7-56.4c-2.6-8.4-1.8-18.6,7.2-23.2c17.1-8.9,26.3-3.5,43.7,1.3c2.8,0.8,1.6,5.1-1.2,4.4
				c-6.9-1.5-13.8-2.5-20.7-3.1c-2.6,1.2-4.9,2.3-7.1,3.5c0.7,0,1.3,0.2,2,0.5c2.8,1.6,3.5,2.8,7.2,4.8c1.2,0.5,0.3,2.1-0.8,2
				c-12.3-2.6-4.3-0.7-4.3-0.5c0.3,2.5,0.8,4.9,1.5,7.4c0.7,1.8,1.5,3.5,2.5,4.9c-0.7-2.5-1-4.9-0.3-7.4c0.7-2.6,4.1-1.8,4.4,0.7
				c0.8,6.1,4.9,11.5,9.5,15.8c-4.8-5.6-8.5-12-9.7-19.1c-0.3-1.8,2.1-3.1,3.1-1.3c2.5,4.8,5.6,9.2,9,13.2c0-1.5,1.8-2.6,3.1-1.3
				c4.4,4.6,9.2,8.9,14.1,12.7c-1.6-1.6-3.1-3.3-4.8-4.9c-1.8-2,1-4.8,3-3c5.4,4.8,11,9.2,16.9,13.3c0.8,0.7,1.8,1.2,3,1.8
				c-1.2-1-2.1-2-3.1-2.8c-4.6-3.6-9.4-7.4-12.8-12.2c-1.2-1.6,0.5-3.6,2.1-3.6c-1.5-3.1,3-5.8,4.8-2.6c1.5,2.5,3.5,4.4,5.6,6.2
				c10.7,5.8,22.8,15.5,22.5,27.1c0,2-1.3,3.9-3.5,4.4c-19.4,4.8-41.3-5.3-57.5-15.8c-13-8.4-22.2-20.5-21.2-36.7
				c0-0.8,0.3-1.5,0.7-2c-11.3,7.2-12.7,14.8-3.8,22.8c5.1,5.4,10.5,10,16.4,14.5c14.3,10.7,29.8,22,47,27.3
				c9,2.8,19.9,6.6,29.4,5.8c17.1-1.5,17.4-21.2,7.2-31.7c-11.2-11.8-23.8-19.1-37.5-27.5c-3.6-2.3-1.3-7.7,2.8-6.7
				C2306.7,178.3,2345.4,205.9,2341.7,229.9z M2233.9,491.8c-27.3,5.8-65.1,3-86.3-18.4c-11.7-11.8-21.4-43.7-1.2-51.9
				c2.5-1,3.9,1.8,3.8,3.8c-1.3,9.5-4.9,21.2-0.5,30.7c-1.2-4.8-1.2-9.7,1.2-14.3c7.7-15.5,23.5-15.5,38.5-11.7
				c1.6,0.5,1.8,3.1,0,3.5c-1.6,0.3-3.5,0.7-5.6,0.8c1,3.5-6.9,6.4-7.4,9.2c-1.5,7.9,11.2,13.3,16.8,15.8c6.9,3,14.6,1.6,21.4,4.4
				c1.5,0.7,2.5,3.1,0.5,3.9c-2.3,1-4.6,1.6-6.9,2.1c7.6,0.2,15.5-0.7,19.4-3.8c1.5-1.2,3.6,0.2,2.6,2.1c-4.8,10-16.8,13-28.8,12.3
				c0,0.2,0,0.3,0,0.5c9.4,1.2,18.9,1.2,27.1-1.8c8.4-3,10.5-9.4,16.8-14.6c1.3-1.2,3-0.3,3.1,1.3c1.5,11.5-4.3,18.6-13.3,22.4
				C2236.1,489.3,2235.6,491.4,2233.9,491.8z M2175.9,497.3c-8.4,3.1-17.3,0.7-24.5-4.1c-5.6-3.8-15.3-11.5-12.7-19.2
				c0.5-1.3,1.8-2.3,3.1-1.8c3.3,1.2,4.4,3.5,6.7,5.8c2.8,3,5.8,5.9,9.4,7.9c5.8,3.3,12.3,5.1,18.4,7.7
				C2178.4,494.4,2177.4,496.9,2175.9,497.3z M2208.6,146.1c2.3,0,2.3,3.5,0,3.6c-17.8,1.2-20.7,21-12.7,33.7
				c4.4,7.1,9.9,13.3,16.3,18.6c9.7,7.9,22.2,13.8,29.8,23.8c1,1.2-0.7,2.8-1.8,2.5c-21-5.3-43.4-25.8-52.9-44.9
				C2178.8,166.5,2188.7,145.4,2208.6,146.1z M2197.6,137.7c0.3,0,0.3,0.5,0,0.5C2197.4,138.2,2197.4,137.7,2197.6,137.7z
				 M2053.6,114.3c16.6-11.8,36.2-12,55.7-10.8c18.9,1.2,38.8-0.2,56.5,6.9c4.4,1.8,9,4.1,13.6,6.2c2.1,0,4.3,0,6.4,0.3
				c1.3,0.2,1.5,2.1,0.5,2.8c5.1,2.3,10.2,4.3,15.5,5.4c12.5,2.8,25.1,3.3,37.8,4.8c19.2,2.3,39.6,8.7,58,14.6
				c4.4,1.5,2.6,7.9-2,7.1c-24-4.8-47.7-11.7-72-13.5c-14.6-1.2-27.1-3.6-40.6-9.4c-3.8-1.6-7.6-3.1-11.3-4.3
				c-5.1,0.5-10.2,0-16.9-1.3c-16.4-3.1-39.8-9.4-53.9,2.8c-2,1.6-4.8-1-2.8-3c3.9-4.3,8.5-6.9,13.5-8.7c-0.8,0-1.6-0.2-2.5-0.2
				c-19.2-1.5-35.5,4.1-54.1,6.1C2051.6,120.8,2051.3,116,2053.6,114.3z M2054.6,269.2c1.3-1.2,3.6,0,3.1,1.8
				c-5.4,17.4-17.1,38.8-6.6,56.7c1.5,2.6,3.5,4.9,5.6,7.1c-7.4-15.8-4.3-39.3,6.2-52.4c5.8-7.2,26.6-29.3,38-18.1
				c0.5,0.5,0.5,1.5,0,2c-4.4,4.3-7.4,3.9-13,6.9c-6.1,3.3-12.7,10-16.3,15.9c-0.2,0.3-0.3,0.7-0.5,1c0,0,0,0,0.2,0
				c0.3-0.5,0.7-1.2,1.2-1.6c5.4-7.1,12.7-12.8,21.5-14.8c8.9-2,13.2,2.8,18.9,8.5c1.3,1.3-0.5,3.6-2,2.6c-3.1-2.1-6.4-2.8-9.7-2.5
				c3.8,1.6,7.1,4.9,9.5,10.5c0.8,1.8-0.8,3.1-2.5,2.3c1.2,2.1,2,4.6,2.3,7.2c1.2,8.2-1.3,19.7-9.2,24.2c-2.5,1.5-5.3,2.1-7.9,2.3
				c2,0.2,3.9,0.3,5.6,1c0.8,0.3,1.3,1.5,0.7,2.1c-8.5,8.2-25,9.7-34.5,2.3c-0.2-0.2-0.3-0.3-0.5-0.5c0,0.8-0.2,1.6-0.3,2.5
				c-0.2,1.3-1,2.3-2.1,2.8c7.1,4.8,15.6,7.4,24.5,8.1c3.1-3,5.8-2.8,10.5-4.6c9.2-3.3,16.3-10.8,20.2-19.9
				c5.1-12,2.6-21.9,0.3-33.9c-1-5.4-1-4.6,0.2-10c0.3-1.5,3-1.6,3.1,0c3,17.4,11.7,38.5,0.2,55.1c-2,3-4.4,5.9-7.2,8.9
				c0.5-0.3,1.2-0.5,1.6-0.7c2.1-1,4.8,1.8,2.6,3.5c-19.4,17.1-57.5,15.5-72.7-7.1C2031.6,318,2036.7,286,2054.6,269.2z
				 M2161.8,759.2c-0.2,0.2-0.5,0.3-0.7,0.3c-3,0.8-5.3-1.3-8.2-1.3c-2.8-0.2-6.1,0-7.9,2.5c-1.8,2.6-5.6,0.3-4.3-2.5
				c1.5-3.5,5.1-5.8,8.7-6.6c-4.1-0.7-8.2-1-11,1.8c-0.8,0.8-2,0.7-2.8,0.2c-1,1-3,1.2-3.9-0.3c-1.3-2.1-2.1-4.4-2.1-6.7
				c-1,0-2-0.8-2.1-1.8c-0.3-4.6,1.6-9.7,4.8-13c1-1,2.1-2,3.3-2.8c-3.1,0.7-6.1,1.2-8.2,3.6c-4.6,5.4-5.3,17.6-2.5,23.8
				c1.2,2.6-1.5,6.6-4.4,4.4c-4.9-3.6-6.1-9.2-5.6-15.1c0.3-4.4,0.7-9.9,2.5-14.3c-0.3,0-0.8,0-1.2,0c-1.5,2-2.6,4.4-3.1,6.9
				c-1,6.1-3.9,19.9,1.5,24.3c1.5,1.3-0.2,3.9-2,3.3c-4.9-1.8-7.7-5.6-8.1-10.8c-0.3-5.1-0.7-11.5,0.2-16.9c-1,1.3-2,2.8-2.8,4.6
				c-4.1,9.4-4.9,20.2,3.9,27.3c2,1.6-0.5,4.8-2.6,3.5c-12.2-7.2-13.6-21.2-8.5-33.7c0.8-2,2-4.3,3.5-6.7c-2.1,0.5-4.1,1-6.1,1.6
				c-3.3,10.8-7.2,20.2-1.8,31.7c3,5.9,5.9,13.8,11.8,17.3c1.2,0.7,1,2.5-0.3,2.8c-10,2.5-16.8-9-20.1-17.4c-0.2,1.8-0.3,3.5-1,4.9
				c-0.7,1.8-2.3,2.5-3.6,2.3c4.8,8.4,12.2,14.5,17.8,23.7c1.2,1.8-0.3,4.3-2.5,4.3c-2.8,0-5.3-0.3-7.7-1.3c0,1.5-1.8,2.8-3.3,2.5
				c-18.7-4.1-37.1-28.6-31.6-48.3c6.1-21.4,26.5-37.3,48.2-41.1c8.7-1.5,19.1-2.1,29.1-1c1.6-0.2,3.3,0.2,4.9,0.8
				c10.8,2,21,6.4,27.9,14.5c14.8,17.3,19.1,39.1,1,55.2c-2.1,1.8-5.1-0.5-3.8-3C2161.1,773.7,2162.4,765.9,2161.8,759.2z
				 M2110.8,641.3c-15.8,7.6-37-12-33.5-28.3c0.8-3.6,5.4-2.8,6.6,0c1,2.3,4.1,7.9,8.1,12.5c0-0.2,0.2-0.2,0.2-0.3
				c-1.5-0.8-2.1-2.6-1.2-3.8c-1.6-2.1-2.6-4.6-3-7.6c-0.5-3.5,4.9-3.9,5.9-0.8c0.3,1.3,1,2.3,1.8,3c0.2-1.8,0.2-3.5,0.3-5.3
				c0-0.8,0.5-1.5,1-1.8c0-0.2,0-0.2,0-0.3c-2.8-3-6.1-4.6-10.5-5.3c-3-0.3-3.6-3.6-2-5.1c-0.3,0-0.7,0-1-0.2
				c-1.8-0.2-3.9-0.5-5.8-0.3c-1.2,0.2-2,0.7-3.1,0.7c-1.8-0.2-2.3-3-1.5-4.3c1.2-2,3.5-3.9,5.9-4.4c2.1-0.5,4.9-0.8,7.7-0.7
				c-0.2,0-0.5-0.2-0.8-0.3c-4.9-1.5-11-3.3-16.1-1.3c-6.9,2.8-3.8,12,0.5,15.5c2.1,1.8-0.7,4.8-2.8,3.6c-7.2-3.6-11.3-11.7-10-19.6
				c1.5-7.7,12.2-10.7,18.7-10.2c14.1,1.3,37.1,9.4,41.8,24.5C2121.3,612.7,2123.5,635.3,2110.8,641.3z M2000.5,638.7
				c-2.6,5.3-6.6,8.7-11,10.7c-1,3.3-4.1,5.6-7.4,6.6c-3.8,5.9-14.5,6.1-20.1,2.5c-7.6-4.9-11.3-13.2-12.8-21.9
				c-0.2-1.5-0.3-3-0.5-4.6c-1.5-4.6-1.3-9.2,1.8-13c1-2.6,2.5-5.1,4.4-6.9c4.4-3.9,9.9-7.4,16.1-7.1c6.1,0.3,10.7,3.8,16.3,5.8
				c2.5,0.8,1.5,4.6-1.2,3.9c-3.3-0.7-7.6-1.2-11.7-0.7c0,1.2-0.5,2.3-1.6,3c-1,0.5-2.6,0.8-3.3,1.3c0.8-0.7-0.3,0.8-0.5,1.2
				c-0.5,2.3-0.2,5.3,0.7,7.7c0.8,2.6,1.8,5.6,3.9,7.6c1.5,1.3,4.8,2.1,6.1,1.6c1.5-0.7,3.6,0.8,2.5,2.5c-0.8,1.2-1.3,2.1-2.1,3.1
				c6.2,0.3,13-1.2,17.1-5.3C1999,634.9,2001.5,636.9,2000.5,638.7z M1761.7,625.9c-0.2,3.3-3.9,3.9-5.8,1.5
				c-2.6-3.6-4.8-7.9-6.2-12.8c-0.8-0.3-1.5-0.8-2-1.5c-13.2-17.1-5.9-53.3,10.2-66.7c19.7-16.4,43.1-26.8,68.1-18.6
				c1.5,0.5,1.8,3,0,3.3c-13.3,2-26.5,4.4-38.3,10c7.4-1.6,15.1-2.3,23-1.6c2.5,0.2,2.5,3.6,0,3.8c-21.2,2.8-47,13.8-51.6,37
				C1755.7,596.3,1762.2,610.3,1761.7,625.9z M1769.9,605.2c0.5-8.5,2.5-16.1,5.9-22c2.8-8.7,9-16.1,19.4-20.5
				c27-11.3,62.6,3.1,65.3,35c1,11-4.1,24-12.2,33.7c5.9-3.3,11-8.1,14-14.3c7.7-16.4,2.6-34.5,2.1-51.9c0-1.2,1.6-1.3,2-0.3
				c5.1,13.5,9.7,30.1,8.5,45.2c3.9-9.7,3.9-20.1,4.3-31.6c0.2-3.8,5.6-5.8,7.6-2c23.8,45.9-37.1,87.6-78.4,75
				C1787.1,645,1768.4,629.5,1769.9,605.2z M1868.8,466.1c-1-16.4,10.8-37.5,29.4-35.5c2.6,0.3,2.6,3.6,0,3.9
				c-12.3,1.3-22.8,17.3-21.7,29.3c0.5,6.1,3,13.2,7.7,17.3c4.9,3.9,9.5,2.8,15.1,3.1c1.3,0,2.5,1.6,1.6,2.8
				C1888.6,503.8,1869.5,478.9,1868.8,466.1z M1896.3,315.4c-4.8,11.3-11.2,23.7-25.1,20.5c-1-0.2-0.7-1.5,0.2-1.5
				c12.7-1.3,16.4-18.6,20.5-28.1c3.5-8.4,9.7-16.4,16.3-22.7c12.8-12.5,32.9-25,51.4-19.1c2.3,0.8,2.5,4.1,0,4.8
				c-15.6,4.4-29.4,4.8-42.1,16.6C1908.3,294.7,1901.2,303.9,1896.3,315.4z M1991.1,177.5c2.3,8.7-4.1,16.8-10.2,22.2
				c-4.1,3.8-8.5,7.1-13.3,9.9c-3,1.6-6.4,4.3-9.9,3.1c-1.3-0.3-1.6-1.6-1.2-2.8c1.3-3,5.1-4.3,7.9-5.8c3.8-2.1,7.6-4.6,11-7.4
				c6.2-5.1,11.8-11,13.3-19.2C1989,176.3,1991,176.3,1991.1,177.5z M1879.8,168.9c12.2-6.7,26.1-21.2,41.1-12.5
				c6.1,3.6,10.2,9.7,11,16.1c4.3-8.2,5.3-16.6-6.9-17.1c-0.3,0-0.5-0.7-0.2-0.7c10.7-2.8,14.1,6.9,14.3,16.1
				c0.2,12.5-14.3,24-23.8,29.6c-18.1,10.5-55.7,35.5-74.8,16.4C1822.6,198.7,1870,174.3,1879.8,168.9z M1796.2,239.4
				c9.9,4.3,18.2,9.9,27.9,13.2c-3.9-3.1-0.7-8.9,3.9-6.7c0.3,0.2,0.5,0.2,0.8,0.3c-0.3-1,0-2.1,1-2.8c0.5-0.3,1-0.5,1.5-0.7
				c-13.5-1.2-22.2-7.9-15.9-25.6c0.7-1.6,3.1-1.8,3.6,0c9.4,36.8,67.6,6.7,87.3-4.1c19.6-10.7,54.1-24,59.5-47.7
				c0-0.2,0.3-0.2,0.5,0c1.6,8.9-0.7,15.6-5.4,21.4c13.3-8.9,29.9-20.4,12.8-28.1c-9.4-4.3-19.9-5.9-29.9-7.4
				c-13.2-1.8-30.1-5.1-43.4-3.1c-0.7,0.2-1.2-0.8-0.5-1.2c15.1-6.9,36.3-4.1,52.1-1.5c12,2,25.3,3.5,34,12.7
				c16.8,17.8-25.3,35.7-35.5,40.1c-0.8,0.3-1.8,0-2-0.8c-18.2,13.3-38.3,25.5-59.2,33.9c-5.8,2.3-19.4,6.9-33.4,9.4
				c10.8-0.7,23.2-2,32.4-7.7c1.2-0.7,2.1,1,1,1.8c-3.9,3-7.6,5.3-11.5,7.2c2.1-0.3,4.1-0.7,6.2-1.3c14.1-3.9,25.3-12.8,38.8-18.1
				c1.2-0.5,2,1.3,1.2,2c-11.7,10.5-24,17.6-37.5,21.9c0.2,0,0.3,0.2,0.3,0.2c0.7-0.2,1.3-0.3,2-0.7c14.3-5.1,30.2-10,42.6-19.1
				c9.2-6.9,16.6-15.5,25.5-22.7c0.8-0.7,2.1,0.5,1.3,1.3c-10,10.2-16.4,22-28.6,30.2c-13.8,9.2-29.3,17.1-45,22.5
				c-28.1,9.4-57.5,15.8-82.8-2.8c-0.7-0.5-1.2-1.2-1.5-1.8c-3-2.3-5.6-4.8-8.2-7.7C1788.6,241.9,1792.1,237.6,1796.2,239.4z
				 M1727,372.4c1.5-3.5,3.3-6.9,5.4-10c9.7-13.6,26.1-25.3,42.4-15.3c0.5,0.3,0.3,1-0.3,1c-6.7,0.3-13.2,1.6-18.7,4.3
				c0.5,1.3-0.3,3.1-2.1,3.5c-2,0.3-4.1,3.3-6.2,7.1c0.8-0.2,1.6-0.3,2.6-0.2c2.8,0.3,3,4.4,0,4.6c-1,0-1.8,1.3-2.3,3.5
				c2,0,3.1,3,1.2,4.4c-0.8,0.7-1.6,1.3-2.3,2.1c-0.2,1.3-0.3,2.6-0.3,3.9c0.7-1.6,1.6-3,2.8-3.9c0.3-0.7,0.7-1.5,1-2.1
				c0.3-4.6,1.5-10.5,5.9-11c0.2,0,0.2,0,0.3,0c0-0.2,0.2-0.3,0.2-0.3c1.5-2.1,4.9-0.3,3.6,2.1c-2,3.5-3.6,6.9-4.9,10.2
				c0.2,0,0.2,0,0.3,0c3.1,0.7,2.3,5.3-0.7,5.4c-0.3,0-0.7,0.2-0.8,0.2c0,4.1,0.5,8.4,0.7,12.5c0.3,0.3,0.5,0.7,0.7,1
				c0.2-5.4,1.2-10.8,3.1-15.9c0.7-1.6,2.5-2,3.6-1.3c0,0,0-0.2,0.2-0.2c2.1-2.5,6.4,0.8,4.4,3.5c-3.8,5.3-3.3,12.5-1.3,18.9
				c0.5,0,1,0.2,1.5,0.5c-0.5-4.1-0.3-8.4-0.2-12.7c0-2.8,4.3-2.8,4.3,0c0,1,0,1.8,0.2,2.8c0.7-0.2,1.5-0.2,2.1,0.2
				c0-0.2,0-0.5,0-0.7c0-0.5,0.2-1,0.3-1.3c-0.5-1.8-0.8-3.8-0.8-5.6c0-3.6,4.9-3.8,5.8-0.7c0.8-0.2,1.6,0,2.3,0.3
				c0.7-0.8,2-1.2,3-0.7c0.5-1.2,1.6-1.6,2.8-1.6c0-0.3,0-0.7,0.2-1c0.3-3.1,5.3-4.4,6.1-0.8c2.5,12.5-1.3,27.8-8.5,39.9
				c-0.2,0.5-0.2,1-0.3,1.5c-1.3,4.3-3.1,8.2-5.9,11.8c-1,1.3-2.6,2.8-4.4,4.3c-5.1,6.1-15.1,7.9-22.7,6.6
				c-12.2-2.1-19.1-11.7-23.8-22.5C1722,409.2,1718.3,385.1,1727,372.4z M1703.5,400.7c1.5-3,5.8-1.3,5.9,1.6
				c0.5,11-1.5,21.7,4.6,31.7c4.3,7.1,9.9,13.2,16.8,17.4c14.5,9,31.2,11,45.2-0.7c1-0.8,3,0.3,2,1.6
				C1751.3,492.2,1684.9,439.8,1703.5,400.7z M1668.3,609c-1.3-7.2,3.3-15.9,2.5-22.8c-1.5-11.7-7.7-21.2-11.2-32.1
				c-3.3-10.8,3.8-25.3,7.2-35.2c0.5-1.5,2.8-1,2.5,0.7c-3.6,15.5-7.6,29.8,0.5,45c3.8,7.1,5.4,12.7,6.6,20.9
				c2.1,16.1-4.1,28.8,4.9,44.2c2.5,4.1,18.9,23.7,18.9,8.7c0-5.3-0.3-10.4-0.7-15.5c-0.3-4.8,0.2-9.7-0.3-14.5
				c-6.6-8.9-9.4-9.2-8.7-1.3c0.7,3.5,1.3,6.9,2,10.4c1.3,2.6-2,5.4-4.1,3.3c-8.5-8.5-2.3-22.5,1-32.2c0.5-1.3,1.6-2.1,3.1-1.8
				c20.9,5.3,24,74.1,4.3,68.7C1678.8,650.2,1670.9,624.7,1668.3,609z M1745.6,825.4c-4.8-5.9-10.8-13.3-16.8-21.5
				c-3.6-4.4-7.2-8.9-10.5-12.7c-9.4-10.4-20.9-23.3-23.2-37.8c-2.5-16.3,5.4-51.3,28.4-36.7c1.2,0.8,0.7,2.3-0.7,2.5
				c-17.6,1.8-20.4,15.6-17.6,28.8c0.5-7.9,3.5-15.8,12-18.1c10.7-3,12.3,6.2,18.6,12.2c1.3,1.2-0.3,3.3-2,2.5
				c-11.8-6.9-20.9,0.7-18.1,12.8c-0.2-2.3,0-4.4,0.2-6.9c0.2-2.3,4.1-3.3,4.4-0.7c1.3,8.2,3.6,15.8,6.4,23.2c-0.8-4.4-1-9-0.5-13.6
				c0.3-2.3,3.8-3.3,4.4-0.7c3.6,14.5,9,27.3,15.6,40.1c-0.5-1.2-1-2.3-1.3-3.5c-0.3-0.8,0.3-1.5,1-1.6c-3.3-9.4-5.1-19.1-6.2-29.9
				c-0.2-0.8,1.2-1.2,1.5-0.5c3.1,5.6,5.6,11.5,7.9,17.4c5.1,7.4,7.2,16.6,13.3,23.7c0.8,1,1.8,2,2.6,3c-6.6-8.5-12.7-18.7-13-28.8
				c0-1.8,2.5-2.3,3.3-0.8c2.8,4.6,5.4,9.2,8.4,13.6c-0.7-1.5,0.2-2.6,1.3-3c-2.6-3.3-4.8-6.7-5.4-11c-0.3-2,2.5-3,3.1-0.8
				c1.8,5.9,7.1,9.7,11.7,13.6c0.7,0,1.2,0.2,1.6,0.8c0,0,0,0,0,0.2c-7.1-10-14.8-19.6-22.4-29.4c-1-1.3,1-3.3,2.3-2.3
				c20.9,14.1,58.8,52.6,51,81.7C1798.5,873.6,1755.4,837.6,1745.6,825.4z M1837.9,845.3c-1.6,16.3-23.7,42.9-40.9,27
				c-0.3-0.3-0.5-0.7-0.5-1c-10.4-1.8-20.2-6.9-23.7-14.1c-1-2.1,1.2-4.9,3.5-3.5c11.3,7.2,25,13.8,39,8.2
				c17.4-7.1,1.2-33.5-3.5-42.4c-12.2-23.3-26.8-44.7-43.2-65.3c-0.5-0.7,0.2-1.8,1-1.2c17.8,13.5,30.4,30.9,41.1,50.3
				c6.6,12,15,25,18.1,38.8c0.3-3.1,0.3-6.2,0.2-9.2c-1.2-16.6-9.7-38.1-18.4-52.4c-0.2-0.3,0.3-0.7,0.5-0.3
				C1824.5,797.5,1840.4,821.7,1837.9,845.3z M1838.9,719.7c-0.3-1.5,1.6-2.3,2.3-1c4.1,7.6,7.1,15.9,11.7,23
				c7.6,11.8,18.1,14.6,30.7,18.7c15,4.9,27.3,12.7,37.1,25c2.5,3-1.5,7.2-4.4,4.3c-10-10.5-20.2-18.7-34.5-23.2
				c-7.6-2.3-16.3-4.3-22.7-9C1847,748.8,1841.9,734,1838.9,719.7z M1878.4,776.9c-1.2-0.5-1.2-2.3,0.3-2.3
				c9.2-0.2,13.8,3.6,20.7,9.2c15.6,12.5,35.5,12.8,53.4,19.1c6.4,2.3,14.6,6.2,21.5,5.9c20.1-0.8-1.6-24.8-4.3-27.1
				c-5.3-4.4-13-10.7-20.2-11.8c-13.2-2.1,1.8,11.8,6.7,13c4.3,1,2.5,7.6-1.8,6.6c-7.1-1.5-27.5-17.4-14.5-25
				c14.5-8.5,40.9,12.8,46.8,25.3c7.4,15.5,1,30.7-18.2,26c-15.8-3.8-33.4-8.1-48.5-13.8C1904.3,796,1893.7,783.2,1878.4,776.9z
				 M1926.9,879.5c1.3-12,10.7-27.3,24-27.3c1.8,0,3.3,1.3,3.6,3c5.4-3.3,11.2-4.8,17.8-1.8c0.3,0.2,0.2,0.7-0.2,0.7
				c-17.1,0.5-25.8,18.9-24.5,34c2.3,5.9,3.5,12.8,9.2,15.9c4.8,2.6,10.4,2.5,15.9,1c1.5-0.7,3-1.2,4.4-1.5
				c5.8-2.3,11.2-5.9,14.8-9.4c0.7-0.7,1.6-0.5,2.3-0.2c4.9-6.6,8.5-13.6,10.4-19.7c0.2-0.7,1.3-0.7,1.3,0.2
				c-1.3,17.8-8.7,35.5-25.6,43.7c-13,6.2-26.6,7.2-38.6-1.8C1930.3,907.8,1925.4,893.2,1926.9,879.5z M2093.9,992.9
				c-13.6,0.8-25.8-3-39.3-5.3c-17.3-3-34.5-3.5-51.9-5.4c-14.3-1.6-39.3-4.8-49-18.1c-8.2-11.3,4.9-16.1,15-17.4
				c16.6-2.3,27.8,0.5,36.5,15.5c1.5,2.5-0.3,5.8-3.3,5.8c-7.4,0-15,1.6-20.1-4.4c-0.7-0.8-0.2-1.8,0.8-1.8
				c4.1-0.3,8.2-0.5,12.3-0.8c-7.6-8.9-19.1-12.2-30.9-7.4c-12.3,5.1,6.9,14.8,8.7,15.6c16.6,7.2,36.5,6.1,54.4,7.7
				c23.8,2.5,44.7,6.9,66.9,15C2094.5,992,2094.5,992.9,2093.9,992.9z M2041.9,977.3c0.3,0,0.3,0.5,0,0.5S2041.6,977.3,2041.9,977.3
				z M2165.5,989.8c-9.9,2.1-19.9,1.6-28.6-4.1c-15-9.7-32.5-10.8-50-12c-22-1.5-46.8,1.6-64.1-14.3c-1.5-1.5,0.5-3.6,2.1-2.8
				c23.7,11.5,53.8,7.6,79.4,10.4c22.2,2.5,39.9,13.3,61.1,19.1C2167.3,986.5,2167.5,989.3,2165.5,989.8z M2206.1,921.8
				c-4.9,17.6-35.3,20.7-50,16.6c-14.3-3.9-30.6-12.2-33.4-28.3c-0.5-2.5-0.3-4.8,0-7.1c-0.3-2.6-0.2-5.1,0.2-7.2
				c0.8-4.9,4.9-12.8,10.4-18.2c1-1,2-2.1,3.1-3c14.8-10.5,35.3-2.8,50.3,3.5c1.5,0.7,2.5,2.5,2.8,4.1c3.9,2.3,7.9,5.1,11.5,8.5
				c2.3,2.1-0.7,5.9-3.3,4.3c-8.2-4.9-19.9-8.1-30.4-8.1c0.5,1.6,1.5,3,3.1,3.9c2.3,1.3,0.3,4.9-2.1,3.6c-1.2-0.7-2.1-1.5-3-2.3
				c-3.5,1.3-7.6,1-10.7-1.5c-0.5-0.3-1-0.8-1.3-1.3c-0.3,0.2-0.5,0.2-0.8,0.3c0.7,0.7,1.3,1.3,2.3,2c2.5,1.6,4.8,3.8,7.2,5.3
				c1.6,1,4.1,3.6,5.9,3.9c0.8,0.2,1,1.5,0.2,1.8c-1.3,0.7-2.6,1.8-4.1,2.1c-2.1,0.3-3.9,0.2-6.1,0c-4.4-0.3-8.9-3.3-12.2-6.2
				c0.7,2.8,2.3,5.1,5.1,6.4c4.3,2,9.9,5.4,14.5,6.2c1.2,0.2,1.8,1,1.8,2c7.7-1,15.6-2.3,22.8,0.8c2.1,1,2,4.4,0,5.4
				c-7.9,4.3-19.7,7.2-30.7,7.1c5.6,1.3,11.3,1.6,16.6,0.3c9.5-2.3,18.1-9.5,27.9-8.2C2205.6,918.8,2206.5,920.6,2206.1,921.8z
				 M2126.6,508.8c-14.5-16.3-24.8-56.4-3.8-71c1.3-0.8,2.3,0.8,1.8,1.8c-12.8,29.1,0.8,67.6,32.4,77.8c11.7,3.8,24,3.8,36.2,4.1
				c-8.4-4.1-16.1-9.2-23.2-14.1c-2-1.3-0.3-4.4,1.8-3.3c13.5,6.9,29.1,14,44.5,14.5c3.9,0.2,7.9-0.2,12-0.2
				c-0.8-0.2-1.6-0.3-2.3-0.5c-7.6-1.6-13.5-5.8-20.4-9c-1.8-0.8-1-3.9,1-3.6c7.9,1,15.5,4.1,23.3,3.9c6.2-0.2,13.8-2.8,18.7,2
				c1.2,1.2,1,3,0,4.1c-2,2-4.8,3.1-8.1,3.6c3,0.3,6.1,1.2,8.9,2.5c1.8,0.8,1.8,3.9,0,4.8c-7.6,3.6-15.1,5.1-22.8,4.9
				c-0.3,1.2-1.2,2.1-2.6,2.5C2192.7,541.9,2148.4,533.5,2126.6,508.8z M2397.8,686.5c-0.3,3-1,5.9-2,8.7
				c-9.2,25.3-32.7,37.8-57,45.5c-0.7,0.2-1.3-0.7-0.7-1.2c13.6-12.7,35.5-22.5,43.7-39.6c3.5-7.1,4.4-14.6,3.6-22.2
				c-1.8,6.6-4.6,12.3-10.2,16.9c-3.1,2.5-8.5,5.6-14.1,6.9c-0.5,0.3-1.2,0.8-1.6,1.2c-0.3,1-0.8,2-1.5,2.8c6.6-3,13-6.9,18.7-11.8
				c2.1-1.8,5.9,0.5,4.1,3.3c-14.5,22-40.4,30.7-63.9,24.8c-0.3,0.2-0.8,0.2-1.3-0.2c-0.5-0.2-1.2-0.5-1.6-0.8
				c-9.5-3-18.6-8.1-26.1-15.9c-5.1-5.3-10.7-18.1-13.3-31.7c0.3,22.5,18.4,43.2,37.3,59.5c1.5,1.3-0.2,3.9-2,3.3
				c-9-2.8-16.9-7.2-23.5-13c0.5,1-0.2,2.3-1.5,2c-0.2,0-0.2-0.2-0.3-0.2c5.6,3.9,11.5,6.9,17.1,11c1.8,1.3,2.1,5.1-0.7,5.6
				c-30.9,5.3-50.3-36.7-48.5-62.1c1.3-18.6,10.8-51.3,31.2-58c1.6-1.2,3.3-2.1,4.9-3.1c15.6-12.7,35.2-19.9,54.7-14.6
				c31.6,8.5,56.5,37.6,63.4,69.4c3.6,16.1,4.3,32.1-3.8,46.8c-6.1,11-22,15.3-32.7,19.6c-2.5,1-4.3-3.1-1.8-4.4
				c12.5-6.6,26.5-13.2,29.1-28.8C2398.6,699.9,2398.6,693.1,2397.8,686.5z M2335.2,775.8c28.9,2.1,85-8.5,90.9-44.5
				c0-0.2,0.3-0.2,0.3,0c-0.3,9.5-3.3,17.6-7.9,24.5c0.2,0.5,0.2,1,0,1.5c-7.9,20.9-27.8,33.4-48.2,40.6c-31.2,11-58.5,4.9-88.3-7.6
				c-1.3-0.5-0.8-2.3,0.7-2.1c35,5.3,66.9,6.4,95.3-6.7c-12.2,3.5-25.1,4.6-36.5,4.1c-33.4-1.3-93-18.7-96.5-60.2
				c-0.2-1.5,1.8-2,2.6-1.2C2273,749.3,2297.2,772.8,2335.2,775.8z M2369.7,835.5c-2.5,7.4-6.9,11-14.3,13.3
				c-3.9,1.3-8.1,2.1-12,3.5c-3,1-5.3,2.3-8.4,1.3c-1-0.3-1.8-1.5-1.5-2.6c2.1-5.4,9.9-6.2,14.8-7.7c6.6-1.8,13.3-4.8,18.7-9
				C2368.2,833.2,2370.2,834,2369.7,835.5z M2426.6,811.1c-12.5,24.2-20.7,47.7-46.2,60.7c-9.7,4.9-17.8,11.7-28.1,15.1
				c-13,4.3-21.4-2.1-35.8,4.4c-17.6,7.9-29.3,24.5-47.7,29.4c-8.2,2.1-14.3-1.8-14.1-9.9c0-0.7,1-1.2,1.5-0.7
				c11.8,13.5,28.3-10.5,37.1-16.6c10.5-7.2,25.8-17.1,39.5-16.8c19.2,0.3,46.8-9.9,60.2-25.8c11.2-13.5,18.1-29.4,30.1-42.6
				C2424.8,806.2,2427.9,808.8,2426.6,811.1z M2431.5,722.7c-0.5,1-2,1-2-0.3c-1.3-30.2,7.1-72.7-18.4-96.7
				c-27.3-25.6-61.6-34.8-98.8-32.2c-35,2.5-70,20.5-82.2,55.9c-8.5,24.8-10.2,63.9,4.6,87c1.2,1.6-1.3,3.5-2.6,2.1
				c-23.5-22.7-20.4-69.2-9.7-97.3c11.8-31.7,42.9-54.2,75.9-58.4c37.6-4.6,89.7-0.7,113.9,33.7C2431,643.5,2445,690.8,2431.5,722.7
				z M2474.7,406c-30.1,8.7-63.9-39.5-65.9-64.8c-0.2-1,1.5-1.5,2-0.5c7.1,12.8,14.5,26.6,24.7,37.5c11.7,12.3,23.3,16.3,39.3,20.1
				C2478.7,398.9,2478.3,404.8,2474.7,406z M2475.5,375.9c-12,2.6-26.6-11.3-32.5-20.1c-9.2-13.6-14.5-31.6-11.7-47.8
				c0.3-2.3,4.3-2.3,4.8,0c1.3,6.9,2.1,14.1,3.6,20.9c0.2-0.5,0.2-0.8,0.3-1.3c0.3-1,2-1.2,2.3,0c0.7,2.6,1.5,4.9,2.5,7.4
				c-0.2-0.8-0.2-1.8-0.2-2.6c0-2.8,3.8-3.1,4.8-0.7c1.6,4.6,4.3,9.2,7.4,13.3c-0.8-2.6-1.6-5.3-2.3-7.9c-0.5-1.6,2.1-2.8,2.8-1.2
				c2.1,4.8,4.8,9.4,8.1,13.6c-1.8-3.9-3.1-8.2-3.9-12.3c-0.3-1.8,1.3-2.8,2.6-2.3c0.8-0.3,1.8-0.2,2.5,0.8c1,1.3,2,2.8,3,4.1
				c0.8-0.7,2.5-0.5,3,0.8c0.3,1.3,1,2.8,1.6,4.3c0.2-0.2,0.5-0.2,0.8-0.2c-1.8-7.4-4.3-14.8-4.4-18.4c0-1.3,1.6-2.3,2.8-1.6
				C2484.9,332.6,2495.9,371.4,2475.5,375.9z M2521.1,623.9c-5.9-3.5-6.1-9.7-6.7-15.8c-1.5-11.2-7.7-27.8-4.3-39.3
				c4.6-15.3,13.1-27,12-43.7c-1.2-16.9-4.8-33.7-7.7-50.3c-0.2-1,1.2-1.6,1.6-0.7c14,29.8,20.2,58.4,7.2,88.4
				c-5.6,13.3-1,25,0.7,38.5c2,15.8,14.5,7.1,16.3-4.1c1-6.7,3.5-24.3-1.6-30.9c-0.5,1.3-1.3,2.6-2.6,5.3c-1.8,3.5-7.2,1-6.2-2.6
				c0.7-3.1,1.2-6.2,1.8-9.5c0.2-1.8,1.3-4.1,3.3-4.4c2.5-0.3,4.8-0.7,7.1-1c1.6-0.2,3.8,1.2,4.6,2.6c7.7,15.9,7.2,35.5,1.3,51.9
				C2544.4,617.7,2531.9,630.3,2521.1,623.9z"/>
			<path class="st2" d="M1781.4,803.6l0.2,0.2C1781.5,803.7,1781.4,803.6,1781.4,803.6L1781.4,803.6z"/>
			<path class="st3" d="M1915.5,200.3c9.7-5.6,24-16.9,23.8-29.6c-0.2-9.2-3.6-18.9-14.3-16.1c-0.3,0.2-0.3,0.7,0.2,0.7
				c12.2,0.5,11.2,8.9,6.9,17.1c-0.8-6.4-4.9-12.5-11-16.1c-14.8-8.7-28.9,5.6-41.1,12.5c-9.9,5.6-57.2,29.8-39.3,47.7
				C1859.6,235.7,1897.3,210.8,1915.5,200.3z M1922.9,170.1c1.3,2.8,1.6,6.7,0.3,12c-0.2,1,0,1.8,0.3,2.5c-0.7,0.8-1.3,1.5-2,2.1
				C1923.9,181.7,1923.7,175.7,1922.9,170.1z M1913.2,164.2c2,0.2,3.9,0.8,5.4,1.6c-0.3,0.2-0.7,0.7-0.8,1c-0.5-2.5-3.3-2.6-4.9-1.3
				C1913.1,165,1913.2,164.6,1913.2,164.2z M1912.6,189.8c0.3,1,1.2,1.6,2,2.1c-1,0.7-2.1,1.3-3.3,1.8
				C1911.6,192.4,1911.9,191.1,1912.6,189.8z M1908.8,164.2c-0.5,1.3-1,2.6-1.5,3.9l0,0c-1.6,1-3.1,2.3-4.4,3.6c0-1.2,0-2.3-0.2-3.5
				s-0.8-1.8-1.6-2C1903.5,165.1,1906.1,164.5,1908.8,164.2z M1901.7,195.5c0,1,0.2,2,0.5,2.8c-0.7,0.3-1.3,0.7-2,1
				C1900.7,198,1901.2,196.7,1901.7,195.5z M1897.1,188.3c-0.5,0.8-0.8,1.6-1.3,2.3c0,0.2-0.2,0.2-0.2,0.3c0.3-1,0.8-2,1.2-2.8
				C1896.8,188.3,1896.9,188.3,1897.1,188.3z M1895,169.2c0.5-0.3,1-0.7,1.6-1c0,0.2-0.2,0.5-0.2,0.7c0.2,4.4-2.6,8.7-5.3,12.8
				c0.7-2.8,0.8-5.6,0.2-8.7c-0.2-0.3-0.3-0.7-0.5-1C1892.3,171.2,1893.8,170.4,1895,169.2z M1883,207.2c-2.1,0.8-4.1,1.6-6.2,2.5
				c1.5-5.6,5.1-10.7,8.5-15.9C1883.8,198,1882.3,202.9,1883,207.2z M1872,192.6c0.2-0.7,0.2-1.5,0.3-2.1c0.3-0.3,0.5-0.7,0.8-1
				c1-1.2,0.5-2.5-0.5-3c0-1.2,0-2.3,0-3.5c0.8-0.5,1.8-1,2.6-1.5c3-1.6,5.8-3.3,8.7-4.9c-2.1,5.1-4.4,9.7-7.7,14.5
				c-2,2.8-3.9,5.8-5.6,8.7C1871.3,197.4,1872,195.1,1872,192.6z M1867.7,211.7L1867.7,211.7c0.2,0.2,0.2,0.5,0.3,0.7
				c-0.3,0.2-0.7,0.2-1,0.3C1867.4,212.3,1867.5,212,1867.7,211.7z M1861.8,190.9c0.3-0.5,0.5-1,0.5-1.5c0.8-0.5,1.6-1.2,2.5-1.6
				c-0.2,1-0.5,1.8-0.7,2.8c-0.8,1-1.6,1.8-2.5,2.8c-0.7,0.8-1.2,1.6-1.8,2.6C1860.1,194.2,1860.6,192.3,1861.8,190.9z
				 M1854.9,210.8c0-0.2-0.2-0.3-0.2-0.3c0.2-0.3,0.3-0.7,0.3-1.2c0.2,0,0.5,0,0.7-0.2c0.3,0.7,0.8,1.3,1.5,1.6c0,0,0,0,0,0.2
				c-0.5,1.2-0.3,2.3,0.2,3.1c-1,0-2-0.2-3-0.5C1855,212.8,1855.2,211.8,1854.9,210.8z M1851.7,198.2c0,0.3-0.2,0.5-0.2,0.8
				c-1.5,1.8-2.5,3.9-3.3,6.1c-0.2-0.7-0.3-1.2-0.5-1.8C1848.8,201.3,1850.1,199.7,1851.7,198.2z"/>
			<path class="st3" d="M1988.8,177.5c-1.5,8.2-7.1,14.1-13.3,19.2c-3.5,2.8-7.2,5.1-11,7.4c-2.6,1.6-6.6,2.8-7.9,5.8
				c-0.5,1.2-0.2,2.5,1.2,2.8c3.5,1.2,7.1-1.5,9.9-3.1c4.8-2.8,9.2-6.1,13.3-9.9c6.1-5.6,12.5-13.5,10.2-22.2
				C1991,176.3,1989,176.3,1988.8,177.5z"/>
			<path class="st3" d="M1799.6,253.2c0.3,0.7,0.7,1.3,1.5,1.8c25.5,18.6,54.9,12.2,82.8,2.8c15.8-5.3,31.2-13.2,45-22.5
				c12.2-8.1,18.6-20.1,28.6-30.2c0.8-0.8-0.3-2-1.3-1.3c-8.9,7.2-16.3,15.9-25.5,22.7c-12.3,9.2-28.3,14.1-42.6,19.1
				c-0.7,0.2-1.3,0.3-2,0.7c-0.2,0-0.2-0.2-0.3-0.2c13.3-4.1,25.8-11.2,37.5-21.9c0.8-0.8,0-2.5-1.2-2
				c-13.5,5.3-24.7,14.1-38.8,18.1c-2.1,0.7-4.1,1-6.2,1.3c3.9-2,7.6-4.3,11.5-7.2c1-0.8,0.2-2.5-1-1.8c-9.2,5.8-21.5,6.9-32.4,7.7
				c14.1-2.6,27.6-7.1,33.4-9.4c20.9-8.4,40.9-20.5,59.2-33.9c0.3,0.7,1.2,1.2,2,0.8c10.2-4.4,52.4-22.4,35.5-40.1
				c-8.7-9.2-22-10.7-34-12.7c-15.8-2.6-37-5.6-52.1,1.5c-0.7,0.3-0.2,1.3,0.5,1.2c13.3-2,30.2,1.3,43.4,3.1
				c10,1.5,20.7,3.1,29.9,7.4c17.3,7.7,0.7,19.2-12.8,28.1c4.9-5.9,7.1-12.7,5.4-21.4c0-0.2-0.3-0.2-0.5,0
				c-5.6,23.5-40.1,37-59.5,47.7c-19.7,10.8-77.9,40.8-87.3,4.1c-0.5-1.8-3-1.6-3.6,0c-6.2,17.8,2.5,24.3,15.9,25.6
				c-0.5,0.2-1,0.5-1.5,0.7c-1,0.7-1.3,1.8-1,2.8c-0.3-0.2-0.5-0.2-0.8-0.3c-4.8-2-8.1,3.8-3.9,6.7c-9.5-3.1-18.1-8.7-27.9-13.2
				c-3.9-1.8-7.6,2.6-4.6,6.1C1794,248.5,1796.7,250.9,1799.6,253.2z"/>
			<path class="st3" d="M1980.1,918.1c16.9-8.2,24.3-26,25.6-43.7c0-0.8-1.2-1-1.3-0.2c-1.8,6.1-5.4,13.3-10.4,19.7
				c-0.7-0.5-1.6-0.7-2.3,0.2c-3.6,3.5-8.9,7.1-14.8,9.4c-1.5,0.3-3,1-4.4,1.5c-5.6,1.5-11.2,1.6-15.9-1c-5.8-3.1-6.9-9.9-9.2-15.9
				c-1.3-15,7.6-33.5,24.5-34c0.3,0,0.5-0.5,0.2-0.7c-6.6-3-12.3-1.5-17.8,1.8c-0.3-1.6-1.8-3-3.6-3c-13.5,0-22.7,15.3-24,27.3
				c-1.5,13.8,3.5,28.3,14.6,36.8C1953.5,925.4,1967.3,924.4,1980.1,918.1z"/>
			<path class="st3" d="M1808.3,651.4c41.3,12.7,102.2-29.1,78.4-75c-2-3.6-7.4-1.8-7.6,2c-0.3,11.3-0.3,21.7-4.3,31.6
				c1.2-15.1-3.3-31.7-8.5-45.2c-0.3-1-2-1-2,0.3c0.5,17.4,5.6,35.5-2.1,51.9c-3,6.4-8.1,11.2-14,14.3c8.2-9.5,13.2-22.7,12.2-33.7
				c-2.6-31.9-38.3-46.4-65.3-35c-10.4,4.4-16.6,11.8-19.4,20.5c-3.5,5.9-5.3,13.5-5.9,22C1768.4,629.5,1787.1,645,1808.3,651.4z
				 M1843.5,586.9c1.2,1.8,2.1,3.8,3,5.8c-0.5-0.3-0.8-0.7-1.3-0.8c-0.3-0.5-0.7-1-1-1.5c0-0.8-0.3-1.6-0.5-2.6
				C1843.5,587.4,1843.5,587.3,1843.5,586.9z M1826.1,620.3c0.2-0.2,0.3-0.3,0.5-0.5c1,0,2,0,2.8,0c-2,1-4.1,1.6-6.1,1.6
				C1824.3,621.3,1825.3,621,1826.1,620.3z M1808.2,616.4c-1,0.7-1.8,1.5-2.5,2.6c-0.3-0.7-0.8-1.5-1.2-2.1
				C1805.7,616.8,1807,616.7,1808.2,616.4z M1795.9,576.2c0.2-0.2,0.5-0.3,0.7-0.3c0,0.2-0.2,0.3-0.2,0.5c-0.5,0.2-0.8,0.5-1.2,0.8
				c-0.2,0-0.2-0.2-0.3-0.2C1795.2,576.7,1795.5,576.4,1795.9,576.2z"/>
			<path class="st3" d="M1810.5,543.4c2.5-0.3,2.5-3.6,0-3.8c-7.9-0.5-15.6,0-23,1.6c11.8-5.6,25-8.2,38.3-10c1.8-0.3,1.5-2.8,0-3.3
				c-25-8.1-48.3,2.1-68.1,18.6c-16.1,13.5-23.3,49.6-10.2,66.7c0.5,0.7,1.3,1.2,2,1.5c1.5,4.8,3.6,9.2,6.2,12.8
				c1.8,2.3,5.6,1.8,5.8-1.5c0.5-15.6-5.9-29.8-2.8-45.7C1763.5,557.2,1789.3,546.2,1810.5,543.4z"/>
			<path class="st3" d="M2368.5,735.2c-2.5,1.3-0.7,5.4,1.8,4.4c10.7-4.3,26.8-8.5,32.7-19.6c8.2-14.8,7.4-30.9,3.8-46.8
				c-7.1-31.7-31.9-61-63.4-69.4c-19.6-5.3-39.3,2-54.7,14.6c-1.6,1-3.3,2-4.9,3.1c-20.4,6.7-29.9,39.6-31.2,58
				c-1.8,25.6,17.6,67.6,48.5,62.1c2.8-0.5,2.6-4.1,0.7-5.6c-5.8-4.1-11.5-7.1-17.1-11c0.2,0,0.2,0.2,0.3,0.2c1.3,0.3,2-1,1.5-2
				c6.6,5.8,14.5,10.2,23.5,13c1.8,0.5,3.5-2,2-3.3c-18.9-16.3-37-36.8-37.3-59.5c2.6,13.5,8.2,26.3,13.3,31.7
				c7.6,7.7,16.6,13,26.1,15.9c0.5,0.3,1.2,0.5,1.6,0.8c0.5,0.2,0.8,0.2,1.3,0.2c23.5,5.9,49.5-2.8,63.9-24.8c1.8-2.6-2-5.1-4.1-3.3
				c-5.8,4.9-12.2,8.9-18.7,11.8c0.5-0.8,1-1.8,1.5-2.8c0.7-0.3,1.2-0.7,1.6-1.2c5.4-1.3,11-4.3,14.1-6.9
				c5.6-4.6,8.4-10.5,10.2-16.9c0.8,7.6-0.2,15.1-3.6,22.2c-8.4,17.1-30.1,27-43.7,39.6c-0.5,0.5,0,1.5,0.7,1.2
				c24.3-7.7,47.8-20.2,57-45.5c1-3,1.6-5.8,2-8.7c0.8,6.6,0.8,13.3-0.3,19.9C2395,722,2381,728.6,2368.5,735.2z M2342.4,628
				c0-0.2,0-0.3,0-0.5c0.5-0.2,1-0.2,1.3-0.2c0.3-0.2,0.7-0.3,1-0.5c1.2,0.5,2.3,1,3.3,1.5c-0.7,0.2-1.3,0.7-1.5,1.5
				c-2.3,9.2-8.4,15.6-17.4,18.9c-1.5,0.5-3.1,0.8-4.8,1.2c1-0.3,2-0.8,2.8-1.2C2336,644.5,2339.3,636.4,2342.4,628z M2324.2,627.4
				c1.8,0,3.8,0.2,5.6,0.3c-2.8,1.2-5.6,1.6-8.7,2C2322.2,628.8,2323.2,628,2324.2,627.4z M2298.7,638.5c-4.8,10-6.9,21.4-6.6,32.5
				c-0.7,0.2-1.2,0.5-1.5,1c-1.2-7.4-1-15,0.3-22.5c1.3-6.7,4.9-11.3,9.7-14.8C2299.8,636.1,2299.2,637.4,2298.7,638.5z M2310,695.3
				c-0.2-0.2-0.2-0.5-0.3-0.7c0.3,0.2,0.7,0.2,1,0.2c1.6,1,3.1,2,4.8,3C2313.5,697.2,2311.7,696.4,2310,695.3z M2314.6,640.2
				c0-0.2-0.2-0.2-0.2-0.2c3.1,0.2,6.6-0.7,8.9-1c0.3,0,0.7-0.2,0.8-0.2c-0.7,0.3-1.5,0.5-2.3,0.8
				C2319.9,640,2317.4,640,2314.6,640.2z M2334,698.2c0-0.3-0.2-0.5-0.2-0.7c2.6,0,5.4-0.2,8.1-0.7
				C2339.4,697.4,2336.6,697.9,2334,698.2z M2355.2,637.1c-0.2,0.5-0.2,0.8-0.3,1.3c-0.2,0.3-0.3,0.7-0.3,1s0,0.7,0,1
				c-0.2,1.5-0.5,3.1-0.7,4.6c-2,7.7-8.1,13.2-15,17.6c-6.1,0.7-12.5-0.5-18.4,0.8c-0.2-0.2-0.3-0.3-0.7-0.7
				c6.1-1,12.5-3.5,16.8-5.6c10-5.4,13.6-15.8,14.6-26.5c0-0.2,0-0.2,0-0.3c2.1,1.5,3.9,3.3,5.8,5.1
				C2356.2,635.4,2355.4,636.1,2355.2,637.1z M2361.5,640.2c3.5,4.4,6.4,9.5,9,14.6c0.2,0.5,0.7,0.8,1,1.2
				c-3.3,2.8-6.7,5.3-10.4,7.4C2364.8,656.6,2363.6,648.1,2361.5,640.2z M2382,669.8c-2,5.3-5.1,9.9-9.2,13.5c0-0.3,0.2-0.5,0.2-0.8
				c2.3-2.5,4.3-5.3,5.6-8.2c0.7-1.5-0.7-3.1-2.3-2.3c-2.6,1.3-5.3,2.6-7.9,3.6c0.8-1.2,1.6-2.5,2.5-3.8c0.8-1.5,0.2-3-1-3.8
				c2.5-3,4.8-6.2,6.6-9.7c0.5-0.8,0.3-1.6,0.2-2.3c0.3-0.3,0.8-0.5,1-1c2.5,4.1,4.4,8.5,5.8,13C2382.8,668.5,2382.3,669,2382,669.8
				z"/>
			<path class="st3" d="M2298.3,582.7c-33.2,4.1-64.1,26.6-75.9,58.4c-10.5,28.1-13.8,74.8,9.7,97.3c1.3,1.3,3.8-0.3,2.6-2.1
				c-15-23-13.2-62.1-4.6-87c12.2-35.3,47.2-53.4,82.2-55.9c37.1-2.6,71.7,6.6,98.8,32.2c25.5,24,17.1,66.4,18.4,96.7
				c0,1.2,1.5,1.3,2,0.3c13.5-31.9-0.5-79.2-19.4-106.2C2388.1,582,2336,578.1,2298.3,582.7z"/>
			<path class="st3" d="M2245.1,725.3c3.5,41.4,63.1,58.8,96.5,60.2c11.3,0.5,24.2-0.8,36.5-4.1c-28.4,13.2-60.5,12-95.3,6.7
				c-1.5-0.2-1.8,1.6-0.7,2.1c29.8,12.5,56.9,18.7,88.3,7.6c20.4-7.2,40.3-19.7,48.2-40.6c0.2-0.5,0.2-1,0-1.5
				c4.6-6.7,7.6-15,7.9-24.5c0-0.2-0.3-0.2-0.3,0c-5.9,36-61.8,46.7-90.9,44.5c-38-3-62-26.5-87.4-51.4
				C2246.7,723.4,2244.9,723.9,2245.1,725.3z"/>
			<path class="st3" d="M2403.9,535c19.4-4.4,16.1-36,3.1-45.4c-2.5-1.8-5.4,1.2-4.8,3.8c1.2,4.9,6.9,34.7-4.9,27.1
				c-7.4-4.8-12.7-14.3-16.3-21.9c-3.8-7.7-4.3-17.3-2.1-25.6c1.6-6.9,10.7-17.1,18.6-10c4.3,3.8,5.6,10.4,9.5,14.5
				c1.5,1.6,3.5-0.2,3.3-1.8c-2.1-15.1-17.6-32.4-32.7-18.2c-12.5,11.7-12.7,31.9-6.1,46.8C2376.1,515.1,2388.6,538.4,2403.9,535z"
				/>
			<path class="st3" d="M1777.9,452.5c0.8-1.3-1-2.5-2-1.6c-14,11.7-30.7,9.7-45.2,0.7c-7.1-4.3-12.5-10.5-16.8-17.4
				c-6.1-10-4.1-20.7-4.6-31.7c-0.2-3-4.4-4.6-5.9-1.6C1684.9,439.8,1751.3,492.2,1777.9,452.5z"/>
			<path class="st3" d="M2226.7,530.9c7.7,0.2,15.3-1.3,22.8-4.9c1.8-0.8,1.8-3.9,0-4.8c-3-1.3-5.9-2-8.9-2.5
				c3.3-0.5,6.2-1.5,8.1-3.6c1-1.2,1.2-3,0-4.1c-4.9-4.8-12.3-2.1-18.7-2c-8.1,0.2-15.5-3-23.3-3.9c-2-0.2-2.8,2.8-1,3.6
				c6.9,3.3,12.8,7.4,20.4,9c0.7,0.2,1.5,0.3,2.3,0.5c-3.9,0.2-7.9,0.3-12,0.2c-15.3-0.5-31.1-7.7-44.5-14.5
				c-2.1-1.2-3.8,1.8-1.8,3.3c7.1,4.9,14.8,10,23.2,14.1c-12.2-0.3-24.5-0.3-36.2-4.1c-31.6-10.4-45.2-48.7-32.4-77.8
				c0.5-1.2-0.7-2.8-1.8-1.8c-20.9,14.8-10.5,54.7,3.8,71c21.9,24.7,66.1,33,97.3,24.5C2225.4,533,2226.4,532,2226.7,530.9z"/>
			<path class="st3" d="M2160.8,784.8c18.1-16.1,14-38-1-55.2c-6.9-8.1-17.1-12.3-27.9-14.5c-1.6-0.7-3.3-0.8-4.9-0.8
				c-10-1.2-20.4-0.5-29.1,1c-21.7,3.8-42.1,19.7-48.2,41.1c-5.6,19.9,12.8,44.2,31.6,48.3c1.5,0.3,3.3-1,3.3-2.5
				c2.5,0.8,5.1,1.3,7.7,1.3c2.1,0,3.6-2.3,2.5-4.3c-5.6-9-13-15.3-17.8-23.7c1.3,0.2,3-0.5,3.6-2.3c0.7-1.6,0.8-3.3,1-4.9
				c3.3,8.4,9.9,19.9,20.1,17.4c1.3-0.3,1.5-2.1,0.3-2.8c-5.9-3.5-9-11.3-11.8-17.3c-5.6-11.5-1.5-20.9,1.8-31.7
				c2-0.7,3.9-1.3,6.1-1.6c-1.5,2.3-2.6,4.8-3.5,6.7c-5.1,12.5-3.6,26.5,8.5,33.7c2.1,1.3,4.6-1.8,2.6-3.5
				c-8.9-7.1-8.1-17.8-3.9-27.3c0.8-1.8,1.8-3.3,2.8-4.6c-0.8,5.6-0.5,11.8-0.2,16.9c0.3,5.3,3.1,9.2,8.1,10.8
				c1.8,0.7,3.5-2.1,2-3.3c-5.4-4.4-2.5-18.2-1.5-24.3c0.5-2.6,1.5-4.9,3.1-6.9c0.3,0,0.8,0,1.2,0c-1.8,4.4-2.1,9.9-2.5,14.3
				c-0.5,5.9,0.5,11.7,5.6,15.1c3,2.1,5.6-1.8,4.4-4.4c-2.6-6.2-2-18.4,2.5-23.8c2.1-2.5,5.1-3.1,8.2-3.6c-1.3,0.8-2.5,1.8-3.3,2.8
				c-3.1,3.3-5.1,8.4-4.8,13c0.2,1.2,1.2,1.8,2.1,1.8c0,2.3,0.7,4.8,2.1,6.7c1,1.6,2.8,1.3,3.9,0.3c0.8,0.5,2,0.7,2.8-0.2
				c2.8-2.8,6.9-2.5,11-1.8c-3.8,0.7-7.2,3.1-8.7,6.6c-1.3,2.8,2.5,5.1,4.3,2.5s4.9-2.6,7.9-2.5c3,0.2,5.3,2.1,8.2,1.3
				c0.3,0,0.5-0.2,0.7-0.3c0.8,6.9-0.5,14.5-4.8,22.8C2155.7,784.5,2158.6,786.8,2160.8,784.8z M2148.6,736.3
				C2148.6,736.3,2148.8,736.3,2148.6,736.3L2148.6,736.3L2148.6,736.3z M2142.5,732.1c0.2,0.2,0.3,0.2,0.5,0.3
				c-0.5,0-1,0.2-1.5,0.3C2141.9,732.6,2142.2,732.2,2142.5,732.1z M2135.8,750.2c-0.8-1.6-1-3.3-0.7-4.8c3.3-1.2,7.2-1.2,10.7-1.2
				c2.6,0,7.2-1.2,6.4-4.8c1.6,1.6,3.1,3.6,4.4,5.6C2149.6,743.7,2140.4,744.9,2135.8,750.2z M2157.8,752.5c0.5,0,1,0,1.5-0.2
				c0.3,0,0.7-0.2,0.8-0.3c0.3,0.7,0.5,1.5,0.7,2.1C2159.9,753.4,2159,752.9,2157.8,752.5z"/>
			<path class="st3" d="M2204.3,918.6c-9.9-1.3-18.4,5.9-27.9,8.2c-5.3,1.3-11,1-16.6-0.3c11,0.2,22.7-3,30.7-7.1c2-1,2.1-4.4,0-5.4
				c-7.2-3.1-15-1.8-22.8-0.8c0-1-0.7-1.8-1.8-2c-4.6-0.8-10-4.3-14.5-6.2c-2.8-1.3-4.4-3.6-5.1-6.4c3.3,3,7.7,5.9,12.2,6.2
				c2.1,0.2,3.9,0.3,6.1,0c1.5-0.2,2.6-1.5,4.1-2.1c0.8-0.3,0.7-1.6-0.2-1.8c-1.8-0.3-4.3-3-5.9-3.9c-2.5-1.6-4.8-3.6-7.2-5.3
				c-1-0.7-1.6-1.3-2.3-2c0.3-0.2,0.5-0.2,0.8-0.3c0.3,0.5,0.8,1,1.3,1.3c3,2.5,7.1,3,10.7,1.5c0.8,1,1.8,1.8,3,2.3
				c2.3,1.3,4.4-2.3,2.1-3.6c-1.6-1-2.6-2.3-3.1-3.9c10.5,0,22.2,3.1,30.4,8.1c2.6,1.6,5.6-2.1,3.3-4.3c-3.6-3.5-7.6-6.2-11.5-8.5
				c-0.3-1.6-1.3-3.5-2.8-4.1c-15-6.4-35.5-14.1-50.3-3.5c-1.2,0.8-2.3,1.8-3.1,3c-5.4,5.4-9.5,13.3-10.4,18.2
				c-0.3,2.1-0.3,4.6-0.2,7.2c-0.3,2.3-0.3,4.6,0,7.1c2.8,16.1,19.1,24.3,33.4,28.3c14.6,3.9,45,1,50-16.6
				C2206.5,920.6,2205.6,918.8,2204.3,918.6z"/>
			<path class="st3" d="M2118.2,345.8c2-1.8-0.5-4.6-2.6-3.5c-0.5,0.3-1.2,0.5-1.6,0.7c2.8-2.8,5.1-5.9,7.2-8.9
				c11.5-16.6,2.8-37.6-0.2-55.1c-0.3-1.6-2.8-1.5-3.1,0c-1.2,5.4-1.2,4.6-0.2,10c2.3,11.8,4.8,21.9-0.3,33.9
				c-3.8,9-10.8,16.6-20.2,19.9c-4.8,1.6-7.4,1.6-10.5,4.6c-8.9-0.7-17.4-3.3-24.5-8.1c1-0.5,2-1.5,2.1-2.8c0.2-0.8,0.2-1.6,0.3-2.5
				c0.2,0.2,0.3,0.3,0.5,0.5c9.5,7.4,26,5.9,34.5-2.3c0.8-0.7,0.3-2-0.7-2.1c-1.8-0.7-3.6-1-5.6-1c2.6-0.2,5.4-0.8,7.9-2.3
				c7.7-4.6,10.4-15.9,9.2-24.2c-0.3-2.8-1.2-5.3-2.3-7.2c1.5,0.8,3.1-0.7,2.5-2.3c-2.5-5.6-5.8-8.9-9.5-10.5
				c3.3-0.3,6.6,0.3,9.7,2.5c1.6,1,3.3-1.3,2-2.6c-5.8-5.6-10-10.4-18.9-8.5c-8.9,2-15.9,7.6-21.5,14.8c-0.3,0.5-0.7,1.2-1.2,1.6
				c0,0,0,0-0.2,0c0.2-0.3,0.3-0.7,0.5-1c3.6-5.9,10.2-12.7,16.3-15.9c5.6-3.1,8.5-2.6,13-6.9c0.5-0.5,0.5-1.5,0-2
				c-11.3-11.3-32.2,10.7-38,18.1c-10.5,13.3-13.6,36.8-6.2,52.4c-2.1-2.1-3.9-4.4-5.6-7.1c-10.5-18.1,1.2-39.5,6.6-56.7
				c0.5-1.8-1.8-3-3.1-1.8c-17.9,16.9-23,49-9,69.5C2060.7,361.1,2098.8,362.7,2118.2,345.8z M2099.3,299.1L2099.3,299.1
				c0.7,0.2,1.5,0.3,2.1,0.5c0.2,0.3,0.3,0.8,0.3,1.2c-0.5-0.2-1-0.2-1.5,0s-0.8,0.5-1.3,0.8
				C2099.1,300.9,2099.1,300.1,2099.3,299.1z M2086.1,312.6c0,0.2,0.2,0.3,0.2,0.5l0,0c0,0,0,0-0.2,0s-0.3,0-0.7,0
				c-0.2,0-0.2-0.2-0.3-0.3C2085.5,312.9,2085.8,312.7,2086.1,312.6z M2083.7,326.4c2,1.3,4.3,2.1,6.7,2.5c-2.5,0-5.1,0.2-7.6,0.2
				c-0.5-0.7-1-1.2-1.6-1.6C2082.2,327,2083,326.7,2083.7,326.4z"/>
			<path class="st3" d="M2076.3,577.6c-6.6-0.7-17.4,2.5-18.7,10.2c-1.5,7.9,2.8,15.9,10,19.6c2.3,1.2,4.9-2,2.8-3.6
				c-4.3-3.6-7.2-12.8-0.5-15.5c5.1-2,11.2-0.2,16.1,1.3c0.2,0,0.5,0.2,0.8,0.3c-2.8-0.2-5.6,0.2-7.7,0.7c-2.3,0.5-4.6,2.5-5.9,4.4
				c-0.8,1.3-0.3,4.1,1.5,4.3c1.2,0.2,2-0.5,3.1-0.7c1.8-0.2,3.9,0.2,5.8,0.3c0.3,0,0.7,0,1,0.2c-1.6,1.6-1,4.8,2,5.1
				c4.4,0.7,7.7,2.3,10.5,5.3c0,0.2,0,0.2,0,0.3c-0.5,0.3-1,1-1,1.8c-0.2,1.8-0.2,3.5-0.3,5.3c-0.8-0.8-1.5-1.8-1.8-3
				c-1-3.1-6.2-2.6-5.9,0.8c0.3,2.8,1.5,5.4,3,7.6c-0.8,1.3-0.3,3,1.2,3.8c0,0.2-0.2,0.2-0.2,0.3c-3.9-4.8-7.2-10.2-8.1-12.5
				c-1.2-2.8-5.8-3.6-6.6,0c-3.5,16.3,17.8,35.8,33.5,28.3c12.8-6.2,10.7-28.6,7.2-39.5C2113.3,586.9,2090.4,578.7,2076.3,577.6z
				 M2103.9,617.3L2103.9,617.3c0.2,0.2,0.2,0.3,0.2,0.5s0.2,0.5,0.2,0.7c-0.2,0-0.3,0-0.5,0.2
				C2103.7,618.2,2103.7,617.8,2103.9,617.3z M2095.8,597L2095.8,597c0.8-1,0.8-2.5,0.3-3.6c1.8,1,3.6,2,5.3,3.3
				C2099.6,596.6,2097.6,597,2095.8,597z M2100.6,633.1c0.3-0.2,0.8-0.3,1.2-0.7c2,0.2,3.8-0.5,5.3-1.6c0.2,0.2,0.2,0.5,0.3,0.7
				C2105.5,633.9,2103.1,634.1,2100.6,633.1z M2107.3,605.5c-0.8-1.3-1.8-2.6-2.6-3.9c0.5-0.2,1.2-0.3,1.6-0.7
				c1.2,1.3,2,2.8,2.6,4.4C2108.3,605.3,2107.8,605.3,2107.3,605.5z M2110.3,610.9L2110.3,610.9c0.2,0.2,0.2,0.2,0.2,0.3
				C2110.3,611.1,2110.3,610.9,2110.3,610.9z"/>
			<path class="st3" d="M2570.9,675.7c-4.3-11.5-6.9-20.9-7.4-32.2c6.6-31.6,9.9-63.9,9.9-96.7c0-80.5-20.5-160.1-59.5-230.1
				c-0.2-8.7-0.5-17.1,2.5-25.8c2-5.6,3.8-13.2,2.1-19.1c-4.8-15.9-16.8-26.1-29.3-36.3c-18.4-15.1-28.1-37.6-44.1-55.1
				c-11.5-12.7-32.1-1.3-45.9-5.3c-1.6-0.5-3.1,0-4.4,1c-64.4-51.6-141.5-85.3-222.7-98c-9.2-4.8-7.1-11-13.2-17.9
				c-8.2-9.4-19.2-8.2-30.9-7.1c-12.3,1.2-26.5-0.8-38.3,1.3c-14.5,2.5-24.5,12.5-36.3,19.9c-20.7,2-41.3,5.3-61.5,9.9
				c-8.4-1.8-16.1-2.8-24.2-7.9c-6.6-4.3-11.8-7.2-19.6-8.5c-17.1-3-34.8,12.5-47.5,21.7c-17.8,13-44.7,12.3-61.3,26.3
				c-13.8,11.7-7.6,27.9-16.1,42.4c-0.5,0.8-0.7,1.8-0.7,2.6c-36.7,26.3-69,57.4-96.3,92.1c-11,3.3-22.4,10.4-32.2,15.6
				c-13.8,7.4-20.9,20.9-29.3,33.2c-7.2,10.5-18.6,23.2-19.2,36.7c-0.7,13.6,7.2,23.7,11.3,35.8c-21.2,54.4-32.7,112.8-32.7,172.8
				c0,3.3,0.2,6.6,0.2,9.9c-2.5,5.6-5.1,10.8-9.9,15.8c-3.9,3.9-8.9,8.2-10.8,13.6c-6.9,17.4,0.8,34.5,7.9,50.8
				c10.2,23.2,5.8,50.8,16.8,73.3c5.4,11,21.2,11.8,31.6,17.6c30.7,74.5,79.4,139.6,142.3,189.9c3.9,9.7,7.4,24.5,9.5,29.4
				c6.1,13.5,14.6,23,27.3,30.4c13.6,8.1,25.5,16.3,41.4,18.9c12.8,2.1,20.5-9.5,31.6-12.8c58.5,25.1,121.8,38.3,186.9,38.3
				c25.1,0,50.1-2.1,74.8-5.9c2.1,0.8,4.1,0.8,9.4,1c11.3,0.5,18.4,11.8,27.8,16.4c10.7,5.3,26.1-4.3,35.5-9
				c13.6-6.9,33.7-9.5,45-19.9c12-10.8,17.9-25,28.1-37c3.3-1.8,6.6-3.6,9.9-5.4c0.5-0.2,1.2-0.3,1.6-0.5c1-0.3,1.8-0.8,2.1-1.6
				c67.2-38.1,124.3-92.4,166.2-157.8c1.6-2.5,3.1-4.9,4.6-7.6c3.5-0.7,4.8-1.6,8.7-5.6c9.4-9.5,21.4-9.2,32.7-13.8
				c10.2-4.3,13.2-20.1,15.3-29.4c3.9-16.4,11.8-32.5,14.1-49.1C2575.7,689.2,2573.4,682.3,2570.9,675.7z M2086.1,64.7
				c7.1-3,18.2,0.3,26,0c15.6-0.8,34.7-8.9,43.6,10.4c0.2,0.2,0.2,0.3,0.3,0.5c-18.9-2.3-38-3.6-57.2-3.6c-8.4,0-16.8,0.3-25.1,0.7
				C2076.4,70,2079.6,67.5,2086.1,64.7z M1673.1,306.3c9.2-13,15.9-24.7,30.2-32.9c4.1-2.3,8.4-4.6,12.5-7.1
				c-21.4,29.3-39.3,60.8-53.4,94c-0.7-1.3-1.5-2.8-2.3-4.3C1649.1,337.6,1662.5,321.1,1673.1,306.3z M1848.9,972.2
				c-14.1-8.2-23.5-14.3-31.6-28.9c-3.8-6.9-6.6-14.3-9.7-21.5c6.4,4.9,12.8,9.7,19.4,14.3c22.7,15.9,46.7,29.6,71.5,41.1
				C1879.4,987.5,1867.8,983.1,1848.9,972.2z M2300.5,961.7L2300.5,961.7c-2.8,1.2-5.6,2.3-8.4,3.3c-7.4,2.5-19.9,0.7-22.4,10.2
				c-0.2,0.8,0.5,1.6,1.5,1.5c8.5-1.6,17.8-2.5,26.1-4.9c1.2-0.3,2.3-0.7,3.5-1.2c-3.6,5.8-6.7,12-10.4,17.9
				c-7.2,12.2-23.7,13-35.2,18.1c-15.8,6.7-33.4,24.2-48.8,9c-3.3-3.3-6.7-5.6-10.4-7.2c7.4-2.6,14.5-5.9,21.2-10.2
				c1.5-1,0.8-3.1-0.8-3.1c-10.7-0.8-22,3.5-32.4,6.1c-2,0.5-4.1,0.8-6.2,1.2l-0.2-0.7c-25.8,4.4-52.3,6.7-78.7,6.7
				c-178.3,0-342.1-105.2-417.5-264.8c0.8-7.9-4.6-15.3-7.9-22.5c-4.4-9.5-11.3-19.2-13.8-29.6c-0.5-1.8-3-1.6-3.5,0
				c-2.8,8.5,1.6,15.8,5.3,23.5c-4.1-2.1-8.7-3.5-13.8-4.9c-18.7-5.1-17.8-51.3-21.4-67.6c-5.4-23.7-25.1-39-4.4-62.5
				c2.1-2.5,3.8-4.8,5.3-7.1c0.8,5.3,2,10.5,3.1,15.6c2.5,10.8,3.3,22.5,9.4,32.1c1.5,2.3,4.4,0.3,3.5-2c-4.3-9.9-2.1-22-3.9-32.5
				c-1.3-7.2-1.3-14.6-1.8-22h0.5c-0.2-5.6-0.3-11.3-0.3-17.1c0-140.4,64.3-273,173.1-360.3c0.7,0.2,1.3,0.2,2,0
				c4.4-1.2,6.4-3.6,9.9-6.6c5.3-4.6,11.5-7.9,17.4-11.3c4.8-2.8,9.4-5.8,13.3-9.5c4.1-3.9,7.2-10.8,13.2-12.7
				c1.8-0.5,1.8-3.1,0-3.8c-11-3.1-20.5,9.7-29.4,14.5c-0.2,0-0.3,0.2-0.5,0.2c2.6-5.4,3.3-11.2,3.8-18.2
				c1.2-20.5,45.4-29.1,62.1-36.8c21.7-10,33.5-31.9,60.3-16.9c7.2,4.1,13.2,5.9,19.4,5.9l0.2,0.5c-4.3,1.3-8.2,2.6-11,3.5
				c-7.1,2.1-18.6,4.9-19.7,13.6c-0.2,1,1.2,1.5,1.8,1.2c7.9-3.5,16.9-6.2,25.5-7.7c6.9-1.2,13.6-2.6,20.5-3.9
				c6.6-1.3,11.2-0.3,16.3-4.6c0.3-0.2,0.5-0.5,0.5-0.8c27.1-4.9,54.9-7.4,82.7-7.4c106.4,0,210.2,37.1,292.4,104.4l0.2-0.2
				c1.6,1.5,3.3,3,4.9,4.6c8.7,8.7,15.1,18.7,25.1,26c1.2,0.8,2.6-0.8,2-2c-3.1-5.1-5.3-10.7-7.9-15.9c-2.8-5.6-7.7-10.4-11.8-15
				c7.7,1.3,15-0.5,23.8-1.8c16.4-2.1,37.8,44.4,49.6,54.4c15.3,13,34.4,24.8,29.1,47.8c-2.8,12.2-3.5,20.1,0.5,29.1
				c-5.6-8.5-11.3-16.4-18.4-24c-0.5-0.5-1.2,0.2-0.8,0.7c4.9,10.7,9.4,21.5,14.8,31.9c3.8,7.2,7.6,15.8,13,22.2
				c29.4,61.8,45,129.9,45,198.9C2560,724.7,2460.6,883.8,2300.5,961.7z M2562.8,699.2c-1.2,7.6-6.7,15.6-9,23.2
				c-5.6,18.4-3,42.1-26.8,44.5c-3.1,0.3-6.1,1.2-9,2.5c16.6-31.2,29.6-64.1,38.8-98C2560.2,680.6,2564.5,687.4,2562.8,699.2z"/>
			<path class="st3" d="M1807.4,841.2c8.1-29.1-30.1-67.7-51-81.7c-1.3-1-3.5,1-2.3,2.3c7.6,9.9,15.3,19.4,22.4,29.4c0,0,0,0,0-0.2
				c-0.5-0.7-1.2-0.8-1.6-0.8c-4.4-3.9-9.9-7.7-11.7-13.6c-0.7-2-3.5-1.2-3.1,0.8c0.7,4.1,2.8,7.7,5.4,11c-1.2,0.3-2,1.5-1.3,3
				c-3-4.4-5.6-9-8.4-13.6c-0.8-1.5-3.5-1-3.3,0.8c0.5,10,6.4,20.2,13,28.8c-0.8-1-1.8-2-2.6-3c-6.1-7.1-8.2-16.3-13.3-23.7
				c-2.3-5.9-4.8-11.8-7.9-17.4c-0.3-0.7-1.6-0.5-1.5,0.5c1.2,10.8,3.1,20.5,6.2,29.9c-0.7,0.3-1.3,1-1,1.6c0.3,1.2,0.8,2.3,1.3,3.5
				c-6.6-12.8-12-25.6-15.6-40.1c-0.7-2.6-4.1-1.8-4.4,0.7c-0.7,4.6-0.3,9,0.5,13.6c-2.8-7.2-4.9-14.8-6.4-23.2
				c-0.5-2.8-4.3-1.8-4.4,0.7c-0.2,2.3-0.3,4.6-0.2,6.9c-3-12.3,6.2-19.9,18.1-12.8c1.5,0.8,3.1-1.2,2-2.5
				c-6.2-5.9-7.9-15.1-18.6-12.2c-8.5,2.3-11.3,10.4-12,18.1c-2.6-13.2,0.2-27,17.6-28.8c1.3-0.2,1.8-1.6,0.7-2.5
				c-23-14.6-31.1,20.4-28.4,36.7c2.1,14.5,13.8,27.3,23.2,37.8c3.5,3.8,6.9,8.2,10.5,12.7c5.9,8.2,12,15.6,16.8,21.5
				C1755.4,837.6,1798.5,873.6,1807.4,841.2z M1769.2,833.5L1769.2,833.5c-0.8-1-1.8-1.8-2.6-2.6c-3.9-4.3-7.1-9-10-14.1
				c3.1,4.8,6.6,9.2,10,13.5c1.3,1.6,3.1,3.3,5.3,5.1C1770.9,834.8,1770,834.2,1769.2,833.5z M1781.4,803.6L1781.4,803.6
				c0.2,0,0.2,0.2,0.2,0.2C1781.5,803.7,1781.4,803.6,1781.4,803.6z"/>
			<path class="st3" d="M1810.2,780.4c8.7,14.1,17.4,35.7,18.4,52.4c0.2,3,0.2,6.1-0.2,9.2c-3.1-13.8-11.3-26.8-18.1-38.8
				c-10.7-19.4-23.3-36.8-41.1-50.3c-0.8-0.7-1.5,0.7-1,1.2c16.3,20.7,31.1,41.9,43.2,65.3c4.6,8.9,21,35.3,3.5,42.4
				c-13.8,5.6-27.6-1-39-8.2c-2.3-1.5-4.6,1.3-3.5,3.5c3.6,7.2,13.3,12.3,23.7,14.1c0.2,0.3,0.3,0.8,0.5,1
				c17.3,15.9,39.3-10.7,40.9-27c2.5-23.8-13.3-48-27.1-65.4C1810.5,779.7,1810,780.1,1810.2,780.4z"/>
			<path class="st3" d="M2284.4,180.6c13.6,8.4,26.3,15.6,37.5,27.5c10,10.7,9.9,30.4-7.2,31.7c-9.5,0.8-20.4-3-29.4-5.8
				c-17.3-5.3-32.7-16.8-47-27.3c-5.9-4.4-11.3-9.2-16.4-14.5c-8.9-8.1-7.6-15.8,3.8-22.8c-0.3,0.7-0.7,1.3-0.7,2
				c-1,16.1,8.2,28.3,21.2,36.7c16.1,10.5,38.1,20.7,57.5,15.8c2-0.5,3.3-2.5,3.5-4.4c0.5-11.7-11.8-21.4-22.5-27.1
				c-2.1-1.8-4.1-3.8-5.6-6.2c-1.8-3.1-6.1-0.5-4.8,2.6c-1.6,0-3.3,2-2.1,3.6c3.5,4.8,8.2,8.5,12.8,12.2c1,0.8,2,1.6,3.1,2.8
				c-1.2-0.7-2.1-1.2-3-1.8c-5.9-4.1-11.5-8.5-16.9-13.3c-2-1.8-4.8,1-3,3c1.5,1.6,3.1,3.3,4.8,4.9c-5.1-3.8-9.7-8.2-14.1-12.7
				c-1.3-1.3-3.1-0.2-3.1,1.3c-3.5-3.9-6.6-8.4-9-13.2c-1-1.8-3.5-0.5-3.1,1.3c1.2,7.1,4.9,13.5,9.7,19.1c-4.6-4.3-8.7-9.7-9.5-15.8
				c-0.3-2.3-3.8-3.3-4.4-0.7c-0.7,2.5-0.3,4.9,0.3,7.4c-0.8-1.6-1.8-3.3-2.5-4.9c-0.8-2.5-1.3-4.9-1.5-7.4c0-0.3-8.2-2.1,4.3,0.5
				c1.2,0.2,2-1.3,0.8-2c-3.9-1.8-4.6-3-7.2-4.8c-0.7-0.3-1.3-0.5-2-0.5c2.1-1.2,4.4-2.3,7.1-3.5c6.9,0.7,14,1.6,20.7,3.1
				c3,0.7,4.1-3.6,1.2-4.4c-17.4-4.6-26.8-10.2-43.7-1.3c-8.9,4.6-9.9,14.8-7.2,23.2c7.6,24.3,48.5,48,69.7,56.4
				c17.9,7.1,61.3,19.2,65.9-11.2c3.6-24.2-35-51.6-54.6-56.2C2283.1,172.9,2280.6,178.3,2284.4,180.6z"/>
			<path class="st4" d="M2197.6,137.7c-0.3,0-0.3,0.5,0,0.5S2197.9,137.7,2197.6,137.7z"/>
			<path class="st3" d="M2187.4,183.4c9.5,19.1,31.7,39.8,52.9,44.9c1.3,0.3,2.8-1.2,1.8-2.5c-7.7-10-20.1-15.9-29.8-23.8
				c-6.4-5.3-11.8-11.5-16.3-18.6c-8.1-12.7-4.9-32.5,12.7-33.7c2.3-0.2,2.3-3.6,0-3.6C2188.7,145.4,2178.8,166.5,2187.4,183.4z"/>
			<path class="st3" d="M1750.8,443.4c7.6,1.3,17.6-0.7,22.7-6.6c1.8-1.3,3.3-3,4.4-4.3c2.8-3.6,4.6-7.6,5.9-11.8
				c0.2-0.5,0.2-1,0.3-1.5c7.2-12.2,11-27.5,8.5-39.9c-0.7-3.6-5.6-2.3-6.1,0.8c0,0.3,0,0.7-0.2,1c-1.2-0.2-2.3,0.3-2.8,1.6
				c-1-0.5-2.1-0.3-3,0.7c-0.7-0.3-1.5-0.5-2.3-0.3c-0.8-3.1-5.8-3-5.8,0.7c0,2,0.3,3.8,0.8,5.6c-0.2,0.3-0.3,0.8-0.3,1.3
				c0,0.2,0,0.5,0,0.7c-0.7-0.3-1.5-0.3-2.1-0.2c0-1,0-1.8-0.2-2.8c0-2.8-4.3-2.8-4.3,0c-0.2,4.3-0.2,8.5,0.2,12.7
				c-0.5-0.3-1-0.5-1.5-0.5c-2-6.6-2.5-13.6,1.3-18.9c1.8-2.6-2.5-5.9-4.4-3.5c0,0,0,0.2-0.2,0.2c-1.2-0.7-3-0.5-3.6,1.3
				c-2,5.1-2.8,10.5-3.1,15.9c-0.2-0.3-0.3-0.7-0.7-1c-0.2-4.1-0.7-8.4-0.7-12.5c0.3-0.2,0.5-0.2,0.8-0.2c3-0.2,3.9-4.8,0.7-5.4
				c-0.2,0-0.2,0-0.3,0c1.3-3.5,2.8-6.7,4.9-10.2c1.3-2.3-2.1-4.3-3.6-2.1c-0.2,0.2-0.2,0.3-0.2,0.3c-0.2,0-0.2-0.2-0.3,0
				c-4.4,0.5-5.4,6.4-5.9,11c-0.3,0.7-0.7,1.5-1,2.1c-1.3,1-2.1,2.3-2.8,3.9c0.2-1.3,0.2-2.6,0.3-3.9c0.7-0.8,1.5-1.5,2.3-2.1
				c2-1.5,0.8-4.4-1.2-4.4c0.5-2.1,1.3-3.5,2.3-3.5c3,0,2.8-4.3,0-4.6c-1-0.2-1.8,0-2.6,0.2c2-3.8,4.3-6.7,6.2-7.1
				c2-0.3,2.8-2.1,2.1-3.5c5.6-2.6,11.8-3.9,18.7-4.3c0.5,0,0.7-0.7,0.3-1c-16.3-10-32.7,1.6-42.4,15.3c-2.3,3.1-4.1,6.4-5.4,10
				c-8.9,12.7-4.9,36.8,0,48.5C1731.7,431.8,1738.8,441.3,1750.8,443.4z M1775.5,418.1c-0.2,0.2-0.3,0.5-0.5,0.7
				c-0.5-0.7-1-1.3-1.5-2.1C1774.2,417.3,1774.8,417.8,1775.5,418.1z M1768.2,407.8v0.2C1768.2,407.9,1768.2,407.9,1768.2,407.8
				C1768.2,407.9,1768.2,407.8,1768.2,407.8z M1765.3,426.8c-0.3,0.2-0.8,0.3-1.2,0.3c-0.3-0.5-0.7-1.2-1-1.6
				C1763.8,426.2,1764.6,426.5,1765.3,426.8z M1756.2,410.4c0.2,1.2,0.5,2.3,0.7,3.5c-0.7-1.8-1.3-3.5-2-5.4
				C1755.4,409.2,1755.9,409.9,1756.2,410.4z M1732.6,401.2c0.2,5.3,2.1,10.4,4.6,15.1c-0.3-0.5-0.5-0.8-0.8-1.3
				c-3.8-5.9-5.1-12.3-4.9-18.7C1731.9,397.9,1732.2,399.5,1732.6,401.2z"/>
			<path class="st3" d="M2423.1,322.8c2.3,1.5,4.6-1,4.3-3.3c-1.3-9.2-7.7-14.6-3.1-25c4.8-10.5,15.8-10,24.7-5.8
				c10.5,5.1,17.8,16.8,27.9,23.2c2.6,1.6,4.6-2.3,2.3-3.9c-9.2-7.1-13-18.9-22.8-25.5c-8.4-5.6-16.6-8.2-26.3-4.9
				C2411.1,283.8,2406.3,311.9,2423.1,322.8z"/>
			<path class="st3" d="M2473.1,324.7c-1.2-0.8-2.8,0.2-2.8,1.6c0.2,3.6,2.5,10.8,4.4,18.4c-0.3,0-0.5,0.2-0.8,0.2
				c-0.7-1.5-1.2-3-1.6-4.3c-0.3-1.3-2-1.5-3-0.8c-1-1.3-2-2.8-3-4.1c-0.7-1-1.6-1.2-2.5-0.8c-1.3-0.5-3.1,0.5-2.6,2.3
				c0.8,4.3,2.1,8.4,3.9,12.3c-3.1-4.3-5.9-9-8.1-13.6c-0.7-1.6-3.3-0.5-2.8,1.2c0.7,2.6,1.5,5.3,2.3,7.9c-3.1-4.1-5.8-8.7-7.4-13.3
				c-0.8-2.5-4.8-2.1-4.8,0.7c0,0.8,0,1.6,0.2,2.6c-1.2-2.3-2-4.8-2.5-7.4c-0.3-1.2-2-1-2.3,0c-0.2,0.5-0.2,0.8-0.3,1.3
				c-1.5-6.9-2.1-14-3.6-20.9c-0.5-2.3-4.3-2.3-4.8,0c-2.8,16.4,2.6,34.4,11.7,47.8c5.9,8.9,20.5,22.7,32.5,20.1
				C2495.9,371.4,2484.9,332.6,2473.1,324.7z"/>
			<path class="st3" d="M2474.7,398.1c-15.9-3.6-27.6-7.7-39.3-20.1c-10.2-10.7-17.6-24.5-24.7-37.5c-0.5-0.8-2-0.5-2,0.5
				c2,25.3,35.8,73.5,65.9,64.8C2478.3,404.8,2478.7,398.9,2474.7,398.1z"/>
			<path class="st3" d="M2546.4,556.5c-0.7-1.5-3-2.8-4.6-2.6c-2.5,0.2-4.8,0.5-7.1,1c-2.1,0.3-3.1,2.5-3.3,4.4
				c-0.7,3.1-1.2,6.2-1.8,9.5c-1,3.8,4.4,6.1,6.2,2.6c1.3-2.6,2.1-3.9,2.6-5.3c5.1,6.6,2.6,24,1.6,30.9
				c-1.8,11.2-14.1,20.1-16.3,4.1c-1.6-13.3-6.4-25.1-0.7-38.5c12.8-30.2,6.6-58.8-7.2-88.4c-0.5-1-1.8-0.2-1.6,0.7
				c3,16.8,6.4,33.4,7.7,50.3c1.2,16.8-7.4,28.4-12,43.7c-3.5,11.5,3,27.9,4.3,39.3c0.8,6.1,0.8,12.3,6.7,15.8
				c11,6.4,23.3-6.2,26.6-15.5C2553.6,592,2554.1,572.5,2546.4,556.5z"/>
			<path class="st4" d="M2041.9,977.3c-0.3,0-0.3,0.5,0,0.5C2042.3,977.8,2042.3,977.3,2041.9,977.3z"/>
			<path class="st3" d="M1980.4,641.8c0.8-1,1.3-2,2.1-3.1c1.2-1.6-1-3.1-2.5-2.5c-1.3,0.7-4.6-0.2-6.1-1.6c-2.1-2-3-4.9-3.9-7.6
				c-0.8-2.6-1.3-5.6-0.7-7.7c0-0.3,1.3-1.6,0.5-1.2c0.7-0.5,2.1-0.8,3.3-1.3c1.2-0.7,1.6-1.8,1.6-3c4.1-0.3,8.4,0,11.7,0.7
				c2.6,0.7,3.6-3.1,1.2-3.9c-5.6-2-10.2-5.3-16.3-5.8c-6.2-0.5-11.7,3.1-16.1,7.1c-2.1,1.8-3.5,4.3-4.4,6.9
				c-3.1,3.8-3.3,8.5-1.8,13c0,1.6,0.2,3.1,0.5,4.6c1.3,8.7,5.3,16.9,12.8,21.9c5.6,3.6,16.1,3.6,20.1-2.5c3.5-1,6.4-3.5,7.4-6.6
				c4.4-2,8.4-5.4,11-10.7c1-1.8-1.5-3.9-3-2.3C1993.6,640.7,1986.7,642.2,1980.4,641.8z M1959.7,626.4c0-0.2,0-0.3,0-0.3
				c0,0.3,0.2,0.7,0.2,1C1959.9,626.9,1959.7,626.7,1959.7,626.4z"/>
			<path class="st3" d="M2248.5,465.8c-0.2-1.6-1.8-2.5-3.1-1.3c-6.2,5.3-8.4,11.7-16.8,14.6c-8.4,3-17.9,3-27.1,1.8
				c0-0.2,0-0.3,0-0.5c12,0.8,24-2.3,28.8-12.3c0.8-1.8-1.2-3.3-2.6-2.1c-3.9,3.1-11.8,3.9-19.4,3.8c2.3-0.5,4.6-1.2,6.9-2.1
				c2-0.8,1-3.3-0.5-3.9c-6.9-2.8-14.6-1.5-21.4-4.4c-5.8-2.5-18.2-7.9-16.8-15.8c0.5-2.8,8.4-5.8,7.4-9.2c2-0.3,3.9-0.5,5.6-0.8
				c1.8-0.3,1.6-3.1,0-3.5c-15-3.8-30.6-3.9-38.5,11.7c-2.3,4.6-2.5,9.5-1.2,14.3c-4.4-9.5-1-21.2,0.5-30.7c0.3-2-1.3-4.8-3.8-3.8
				c-20.2,8.4-10.5,40.3,1.2,51.9c21.2,21.4,59,24.2,86.3,18.4c1.6-0.3,2.1-2.5,1.3-3.6C2244.3,484.4,2250,477.3,2248.5,465.8z
				 M2183.1,477.5c-7.7-1.8-14.1-6.2-18.7-12.3c5.4,5.4,12.5,9.4,19.9,12.7C2183.9,477.6,2183.6,477.5,2183.1,477.5z"/>
			<path class="st3" d="M2158,485.8c-3.6-2-6.6-4.9-9.4-7.9c-2.3-2.5-3.5-4.8-6.7-5.8c-1.3-0.5-2.6,0.5-3.1,1.8
				c-2.8,7.7,7.1,15.6,12.7,19.2c7.2,4.9,16.1,7.2,24.5,4.1c1.5-0.5,2.3-3,0.5-3.8C2170.3,490.9,2163.9,489,2158,485.8z"/>
			<path class="st3" d="M2422.9,808.2c-12,13.2-18.9,29.1-30.1,42.6c-13.3,15.9-41.1,26.1-60.2,25.8c-13.5-0.2-28.8,9.5-39.5,16.8
				c-8.9,6.1-25.3,30.1-37.1,16.6c-0.5-0.5-1.5-0.2-1.5,0.7c-0.2,8.1,5.9,12,14.1,9.9c18.4-4.9,30.1-21.5,47.7-29.4
				c14.5-6.6,22.8-0.2,35.8-4.4c10.4-3.5,18.4-10.2,28.1-15.1c25.5-13,33.9-36.5,46.2-60.7C2427.9,808.8,2424.8,806.2,2422.9,808.2z
				"/>
			<path class="st3" d="M2367.2,834.2c-5.4,4.4-12.2,7.2-18.7,9c-5.1,1.5-12.8,2.3-14.8,7.7c-0.5,1.2,0.5,2.3,1.5,2.6
				c3.1,1,5.4-0.3,8.4-1.3c3.9-1.2,8.1-2.1,12-3.5c7.2-2.3,11.8-5.9,14.3-13.3C2370.2,834,2368.2,833.2,2367.2,834.2z"/>
			<path class="st3" d="M1692.5,586.4c-1.3-0.3-2.6,0.5-3.1,1.8c-3.3,9.7-9.5,23.7-1,32.2c2.3,2.3,5.4-0.7,4.1-3.3
				c-0.7-3.5-1.3-6.9-2-10.4c-0.7-8.1,2.1-7.6,8.7,1.3c0.5,4.8,0.2,9.7,0.3,14.5c0.3,5.3,0.7,10.4,0.7,15.5c0,15-16.6-4.6-18.9-8.7
				c-9.2-15.5-2.8-27.9-4.9-44.2c-1.2-8.2-2.8-13.6-6.6-20.9c-8.1-15.3-4.1-29.4-0.5-45c0.3-1.6-1.8-2.1-2.5-0.7
				c-3.5,9.9-10.7,24.2-7.2,35.2c3.3,10.8,9.5,20.4,11.2,32.1c1,6.9-3.6,15.6-2.5,22.8c2.6,15.8,10.5,41.3,28.4,46.2
				C1716.5,660.6,1713.3,591.7,1692.5,586.4z"/>
			<path class="st3" d="M1959.6,269.4c2.5-0.7,2.3-4.1,0-4.8c-18.6-5.9-38.6,6.6-51.4,19.1c-6.4,6.2-12.8,14.5-16.3,22.7
				c-3.9,9.5-7.9,27-20.5,28.1c-0.8,0-1.2,1.3-0.2,1.5c14,3.1,20.4-9.2,25.1-20.5c4.9-11.5,12-20.7,21-29.3
				C1930,274.3,1944,273.8,1959.6,269.4z"/>
			<path class="st3" d="M2055.2,120.4c18.6-2.1,34.8-7.6,54.1-6.1c0.8,0,1.6,0.2,2.5,0.2c-4.9,1.6-9.5,4.4-13.5,8.7
				c-1.8,2,1,4.6,2.8,3c14.1-12.2,37.5-5.9,53.9-2.8c6.7,1.3,11.8,1.8,16.9,1.3c3.8,1.3,7.4,2.6,11.3,4.3
				c13.5,5.9,26.1,8.2,40.6,9.4c24.3,1.8,48.2,8.7,72,13.5c4.6,1,6.4-5.6,2-7.1c-18.4-5.9-38.8-12.3-58-14.6
				c-12.7-1.5-25.1-2.1-37.8-4.8c-5.3-1.2-10.4-3.1-15.5-5.4c1-0.7,0.8-2.6-0.5-2.8c-2.3-0.3-4.4-0.5-6.4-0.3
				c-4.6-2.1-9.2-4.4-13.6-6.2c-17.8-7.2-37.8-5.8-56.5-6.9c-19.6-1.2-39.1-1-55.7,10.8C2051.3,116,2051.6,120.8,2055.2,120.4z"/>
			<path class="st3" d="M2165.5,986c-21.2-5.8-39.1-16.6-61.1-19.1c-25.5-2.8-55.7,1.2-79.4-10.4c-1.8-0.8-3.8,1.3-2.1,2.8
				c17.3,15.9,42.1,12.8,64.1,14.3c17.4,1.2,35,2.3,50,12c8.9,5.8,18.7,6.2,28.6,4.1C2167.5,989.3,2167.3,986.5,2165.5,986z"/>
			<path class="st3" d="M2094,991.8c-22.2-7.9-43.1-12.5-66.9-15c-17.8-1.8-37.6-0.5-54.4-7.7c-1.8-0.8-21-10.7-8.7-15.6
				c11.7-4.8,23.2-1.5,30.9,7.4c-4.1,0.2-8.2,0.5-12.3,0.8c-1,0-1.3,1.2-0.8,1.8c5.1,6.1,12.7,4.4,20.1,4.4c3,0,4.8-3.3,3.3-5.8
				c-8.7-15-19.9-17.8-36.5-15.5c-10,1.3-23.2,6.1-15,17.4c9.7,13.3,34.7,16.4,49,18.1c17.4,2,34.7,2.5,51.9,5.4
				c13.5,2.3,25.6,6.1,39.3,5.3C2094.5,992.9,2094.5,992,2094,991.8z"/>
			<path class="st3" d="M1916.7,789.8c2.8,3,6.7-1.3,4.4-4.3c-10-12.3-22.2-20.1-37.1-25c-12.7-4.1-23.2-6.9-30.7-18.7
				c-4.6-7.2-7.6-15.6-11.7-23c-0.8-1.3-2.6-0.3-2.3,1c3,14.3,8.1,29.1,20.4,38c6.6,4.8,15.3,6.7,22.7,9
				C1896.3,771,1906.5,779.2,1916.7,789.8z"/>
			<path class="st3" d="M1987.2,789.8c-5.9-12.5-32.4-33.7-46.8-25.3c-13,7.6,7.6,23.5,14.5,25c4.3,0.8,6.2-5.6,1.8-6.6
				c-4.9-1.2-19.9-15-6.7-13c7.2,1.2,14.8,7.4,20.2,11.8c2.8,2.3,24.5,26.3,4.3,27.1c-6.9,0.3-15.1-3.6-21.5-5.9
				c-18.1-6.2-37.8-6.6-53.4-19.1c-6.9-5.6-11.5-9.4-20.7-9.2c-1.5,0-1.5,1.8-0.3,2.3c15.3,6.2,26,19.1,42.1,25.1
				c15.1,5.8,32.7,10,48.5,13.8C1988.2,820.3,1994.6,805.2,1987.2,789.8z"/>
			<path class="st3" d="M1900.9,486.8c0.8-1.2-0.3-2.8-1.6-2.8c-5.6-0.3-10.2,0.8-15.1-3.1s-7.2-11.2-7.7-17.3
				c-1-12,9.4-27.9,21.7-29.3c2.6-0.3,2.6-3.6,0-3.9c-18.4-2-30.4,19.1-29.4,35.5C1869.5,478.9,1888.6,503.8,1900.9,486.8z"/>
		</g>
	</g>
	<g id="abSpaceMan">
		<g id="abCabel">
			<path class="st5" d="M1390.9,1093.5c13.2,19,6.9,71.7-3.5,121.3c-13.3,64.2-28.4,137,1.6,170.2c15,16.7,57,60.4,76.5,55.9
				c40.4-9.3,61.9,43.6,63.3,41.5l2.7,0.1c-0.4,0.5-27.1-54.4-65-45.7c-18,4.1-59.4-41.9-73.4-57.4c-28.1-31-13.4-101.8-0.3-164.4
				c11-53,18.1-108.9,1.1-128.8L1390.9,1093.5z"/>
			<path class="st5" d="M1394.5,1086.9c-11.7-20-1.3-72,12.9-120.7c18.3-63,39-134.4,11.7-169.8c-13.7-17.8-30.8-25.2-50.6-22.2
				c-41,6.1-79.3,54-80.9,56l3.7,4c0.4-0.5,38.1-47.5,76.6-53.3c18.3-2.7,34,4.3,46.7,20.8c25.6,33.1,5.4,102.5-12.5,163.9
				c-15.1,52-26.5,107.2-11.1,128.3L1394.5,1086.9z"/>
		</g>
		<g id="abHandTwo">
			<g>
				<path class="st5" d="M1281.9,754.8c-43.2-3.9-62-48.1-62-48.1l-2.3,1.4c-2.5-8.2-7.4-15.5-13.2-20.8c-0.9-0.8-1.8-1.5-2.9-1.9
					s-2.4-0.4-3.5,0.4c-1.3,0.8-2.1,2.4-2.4,4s0,3.1,0.3,4.5c0.7,2.8,1.8,5.4,3.5,7.6c0.7,0.9,3.2,3.6,1.4,5.5
					c-1,1.1-2.6,0.3-3.4-0.7s-1.2-2.4-1.9-3.4c-1.6-2.1-5.1-2.1-5,2.5c0,1.3,0.5,2.3,1.1,3.4c2.1,4,3.7,8,6.4,11h-0.1
					c0,0,26.4,61.5,73.9,61.2C1292,781,1289.8,755.5,1281.9,754.8z"/>
			</g>
			<path class="st6" d="M1223.2,709.8l-21.9,14.8c-1.4,0.9-3.3,0.6-4.3-0.8l0,0c-0.9-1.4-0.6-3.3,0.8-4.3l21.9-14.8
				c1.4-0.9,3.3-0.6,4.3,0.8l0,0C1224.9,707,1224.6,708.9,1223.2,709.8z"/>
		</g>
		<path class="st1" d="M1382.8,892.6c1.8-4-0.1-8.6-4.1-10.3l-12.5-5.4c-0.1,0-0.1,0-0.1,0c-0.1-0.1-0.2-0.2-0.3-0.2
			c-21.8-7.8-37.7-19.9-49-31.6c4-10.6,5-23.4,2.3-37.8c-6.2-32.4-17.6-48.9-31.7-55.8l1-0.2c1.2-0.2,2-1.4,1.8-2.6l-1-5.5
			c-0.2-1.2-1.4-2-2.6-1.8l-1.2,0.2c7.1-9,10.4-20.9,8.1-33c-4.2-21.9-25-36.4-46.8-32.8c-0.4,0-0.8,0.1-1.1,0.2
			c-22.3,4.2-36.9,25.7-32.7,48c1.3,6.9,4.3,13.1,8.4,18.2c3.2,3.9,7,7.1,11.2,9.6l-1.2,0.2c-0.6,0.1-1,0.4-1.4,0.9
			c-0.3,0.5-0.5,1.1-0.4,1.7l0.9,4.7c-7.8,6.3-13.4,15.6-15.5,29.1c-1.5,9.7-1.3,21.7,1.3,36.4c0.1,0.8,0.2,1.5,0.4,2.2
			c3.4,17.9,11.3,31.4,21.7,39.9c-1.3,15.2-1.4,35.6,1.5,61.3c-11.8,3.9-20,15.4-19.3,28.4l50.6-2.8c4.3-0.3,7.6-4,7.4-8.3
			l-0.7-13.3c-0.1-2.1-1.2-4-2.7-5.2c-1.6-18.1-1.7-35-1.1-49.2c1.8-0.1,3.5-0.4,5.2-0.7c4.7-0.9,9.1-2.4,13.1-4.4
			c12.5,11,29.8,23.4,53.3,35.4c-2.7,12.9,3.9,26.3,16.4,31.8l0.3,0.2L1382.8,892.6z"/>
		<path class="st7" d="M1233,793.4l3.4,18.1c0.9,4.6-2.1,9.1-6.8,10l-12.1,2.3c-2.6-14.5-2.8-26.2-1.3-35.9l6.7-1.3
			C1227.6,785.8,1232.1,788.8,1233,793.4z"/>
		<path class="st6" d="M1287.2,831.2l-63.9,12.1c-1.9,0.4-3.8-0.9-4.1-2.8l0,0c-0.4-1.9,0.9-3.8,2.8-4.1l63.9-12.1L1287.2,831.2z"/>
		<path class="st6" d="M1274.2,930.9l-35.4,0.2c-2,0-3.6-1.6-3.6-3.6l0,0c0-2,1.6-3.6,3.6-3.6l35.4-0.2c2,0,3.6,1.6,3.6,3.6l0,0
			C1277.8,929.4,1276.2,930.9,1274.2,930.9z"/>
		<path class="st6" d="M1364.4,877.8l-19.9,29.2c-1.1,1.6-3.3,2.1-5,0.9l0,0c-1.6-1.1-2.1-3.3-0.9-5l19.9-29.2
			c1.1-1.6,3.3-2.1,5-0.9l0,0C1365.1,873.9,1365.5,876.1,1364.4,877.8z"/>
		<path class="st7" d="M1222.8,742.8c-4.1-5.1-7.1-11.3-8.4-18.1c-0.3-1.8-0.6-3.5-0.6-5.3c-0.1-1.3-0.1-2.5,0-3.7
			c0.1-1.1,0.1-2.2,0.2-3.2c0.3-2.8,0.9-5.4,1.8-8c4.4-13.8,16.1-24.8,31.4-27.7c0.4-0.1,0.8-0.1,1.1-0.2c0.9,2.5,1.6,5.2,2.1,7.9
			c0.5,2.8,0.9,5.6,0.9,8.3c0.1,2.5,0,5.1-0.2,7.5c-0.1,1.1-0.3,2.2-0.4,3.3c-0.2,1.3-0.5,2.7-0.8,4
			C1246.1,722.5,1236.4,735.3,1222.8,742.8z"/>

			<ellipse transform="matrix(0.9825 -0.1862 0.1862 0.9825 -119.1464 243.4203)" class="st7" cx="1236.3" cy="756" rx="1.8" ry="1.8"/>

			<ellipse transform="matrix(0.9825 -0.1862 0.1862 0.9825 -118.8128 244.5723)" class="st7" cx="1242.6" cy="754.8" rx="1.8" ry="1.8"/>

			<ellipse transform="matrix(0.9825 -0.1863 0.1863 0.9825 -118.5144 245.8429)" class="st7" cx="1248.8" cy="753.5" rx="1.8" ry="1.8"/>

			<ellipse transform="matrix(0.9825 -0.1862 0.1862 0.9825 -118.1473 246.8578)" class="st7" cx="1255.1" cy="752.4" rx="1.8" ry="1.8"/>

			<ellipse transform="matrix(0.9825 -0.1863 0.1863 0.9825 -117.8653 248.15)" class="st7" cx="1261.4" cy="751.2" rx="1.8" ry="1.8"/>
		<ellipse transform="matrix(0.9825 -0.1862 0.1862 0.9825 -117.48 249.162)" class="st7" cx="1267.7" cy="750" rx="1.8" ry="1.8"/>

			<ellipse transform="matrix(0.9825 -0.1863 0.1863 0.9825 -117.1958 250.474)" class="st5" cx="1274.1" cy="748.8" rx="1.8" ry="1.8"/>

			<ellipse transform="matrix(0.9825 -0.1863 0.1863 0.9825 -116.862 251.6267)" class="st5" cx="1280.4" cy="747.6" rx="1.8" ry="1.8"/>
		<path class="st6" d="M1310.9,859.9l-11,2.1c-8.4,1.6-16.5-3.9-18.1-12.3l-15.7-82.8c-2.3-12.1,5.6-23.8,17.7-26l0,0
			c12.1-2.3,23.8,5.6,26,17.7l15.3,80.5C1326.9,848.7,1320.5,858,1310.9,859.9z"/>
		<path class="st8" d="M1278.7,742.8l0.1,0.6l-49,9.3c0.3-0.4,0.8-0.8,1.4-0.9L1278.7,742.8z"/>
		<g id="abHandOne">
			<g>
				<path class="st5" d="M1260.2,773.7c-51.1-7.9-77-55.7-77-55.7l-2.5,1.2c-3.6-8.8-10-16.9-17.4-22.9c-1.1-0.9-2.3-1.8-3.6-2.3
					c-1.3-0.5-2.9-0.6-4.1,0.1c-1.4,0.8-2.3,2.3-2.5,3.9c-0.2,1.6,0.2,3.2,0.7,4.7c1,3,2.7,5.8,4.7,8.3c0.9,1.1,4,4.1,2.2,5.8
					c-1.1,1-3.1,0-4.1-1.1s-1.5-2.6-2.5-3.7c-2.1-2.3-6.2-2.7-5.7,2.2c0.1,1.3,0.8,2.5,1.5,3.6c2.9,4.4,5.1,8.7,8.6,12.1h-0.1
					c0,0,36.4,66.6,92.2,70.4C1274.5,801.9,1269.5,775.2,1260.2,773.7z"/>
			</g>
			<path class="st6" d="M1184.4,722.3l-21.9,14.8c-1.4,0.9-3.3,0.6-4.3-0.8l0,0c-0.9-1.4-0.6-3.3,0.8-4.3l21.9-14.8
				c1.4-0.9,3.3-0.6,4.3,0.8l0,0C1186.1,719.5,1185.8,721.4,1184.4,722.3z"/>
		</g>
		<path class="st9" d="M1251.1,700.3l-37,12.1c0.3-2.8,0.9-5.4,1.8-8l35.6-11.6C1251.4,695.3,1251.2,697.8,1251.1,700.3z"/>
		<path class="st9" d="M1249.8,707.6l-35.9,11.8c-0.1-1.3-0.1-2.5,0-3.7l36.8-12C1250.4,704.9,1250.1,706.3,1249.8,707.6z"/>
		<path class="st5" d="M1390.6,1096.2"/>
	</g>
	<text id="abTitle" transform="matrix(1 0 0 1 1203.674 183.1478)" class="st1 st14 st15">About</text>
	<g id="abDescription">
		<rect x="1215.9" y="237" class="st2" width="368.2" height="145.1"/>
		<text transform="matrix(1 0 0 1 1215.9465 251.5489)" class="st1 st16 st17">Learn about my skills,</text>
		<text transform="matrix(1 0 0 1 1215.9465 295.5489)" class="st1 st16 st17">experiences and interests!</text>
	</g>
</g>
</svg>
