<?xml version="1.0" encoding="utf-8"?>
<!-- Generator: Adobe Illustrator 21.0.2, SVG Export Plug-In . SVG Version: 6.00 Build 0)  -->
<svg version="1.1" id="Experiments" xmlns="http://www.w3.org/2000/svg" xmlns:xlink="http://www.w3.org/1999/xlink" x="0px" y="0px"
	 viewBox="0 0 1920 1080" style="enable-background:new 0 0 1920 1080;" xml:space="preserve">
<style type="text/css">
	.st0{fill:#F2F2F2;}
	.st1{fill:none;}
	.st2{fill:#1F1F1F;}
	.st3{font-family:'ComicSansMS';}
	.st4{font-size:24.0483px;}
	.st5{opacity:0.5;fill:none;stroke:#FFFFFF;stroke-miterlimit:10;enable-background:new    ;}
	.st6{fill:#57A5D9;}
	.st7{fill:#2B86C7;}
	.st8{fill:#FFFFFF;}
	.st9{fill:#B0B0B0;}
	.st10{fill:#989695;}
	.st11{fill:#E2E2E2;}
	.st12{fill:#008DD0;}
	.st13{fill:#CAC8C8;}
	.st14{fill:#807F7D;}
	.st16{font-family:'Lato', Fallback, sans-serif; font-weight: 100;font-size:8em;}
	.st17{font-family:'Lato', Fallback, sans-serif; font-weight: 300;font-size:2.5em;}
	@media only screen and (min-width: 800px) {
	.st16{font-size:100px;}
	.st17{font-size:30px;}
	}
</style>
<g id="Blog">
	<circle id="exCircle" class="st5" cx="1972.9" cy="558.5" r="665.2"/>
	<g id="exBluePlanet">
		<circle class="st6" cx="1986" cy="518.7" r="429"/>
		<path class="st7" d="M1599.7,331.9c-11.7,24.2-21.2,49.7-28.3,76.2c432.9,60.6,703.1,32.3,831.3,8.1
			c-6.4-26.2-15.2-51.4-26.2-75.4C2242.6,363,1989,383.7,1599.7,331.9z"/>
		<path class="st7" d="M1561.3,579.5c3,20.9,7.5,41.4,13.3,61.3c341.4,69.3,668.3,26.9,823.3-1.9c5.8-19.7,10.1-40.1,13-60.9
			C2259.6,603.7,1916.1,645.8,1561.3,579.5z"/>
		<path class="st7" d="M1679.3,218.7c314.7,18.4,501.6-15.6,576-34c-73.6-59.4-167.3-95.1-269.3-95.1
			C1865.8,89.7,1757.2,139.1,1679.3,218.7z"/>
		<path class="st7" d="M1984.1,777.7c-55.8,5.8-112.3,1.7-167.1-12.1c-46.6-11.8-92.3-30.6-139.9-33.2c-20.1-1.1-40.2,0.8-59.9,5.6
			c24.9,41.7,56.6,78.9,93.7,109.9c79.9-8.9,160.6-8.4,240.5,1.6c13,1.6,26.2,3.5,39.1,1s25.8-10,32.7-23.2
			c7-13.3,6.2-32.8-3.9-42.8C2009.9,775.2,1996.3,776.4,1984.1,777.7z"/>
		<path class="st7" d="M1697,483.1c12.9,0.2,24.9,1.3,32.9,1.2c12.9-0.1,26-0.2,38.4,3.5c15.4,4.5,27.8,14.7,30.7,30.8
			c10.2,57.6-114.2,35-141.3,29.1c-0.4-0.1-0.9-0.2-1.3-0.3c-20.7-4.7-26.8-25.9-18.3-44.3C1646.3,485.2,1673,482.7,1697,483.1z"/>
		<path class="st7" d="M2139.1,720.3c-10.3,1.2-23.1,4.7-24.9,15c-2.2,12.7,14.2,19.8,27.1,20.9c24.5,2,46.1-3.5,70-6.1
			c11-1.2,33.6-3,40.2,8.3c6.1,10.4-3.4,15.7-12,18.4c-16.8,5.3-44,4.4-52.3,24.7c-16.6,40.9,66,34.5,84.5,31c3-0.6,6-1.4,9-2.1
			c42.5-40.2,76.8-88.9,100.1-143.4C2304.1,711.6,2219.9,710.9,2139.1,720.3z"/>
		<path class="st7" d="M2229.7,248.1c-17.5,0.6-34.8,7.6-51.9,10.5c-10.9,1.8-21.9,3-32.7,5.5c-16.6,3.7-51.2,13.9-32.6,36.4
			c18,21.9,43.7,20,70.3,20c23.4,0,50.3,4.7,73.4,0.3c29.4-5.6,39.7-47,12.5-61.4c-8.1-4.3-16.5-8.5-25.5-10.2
			C2238.7,248.2,2234.2,247.9,2229.7,248.1z"/>
	</g>
	<g id="exSattelite">

			<ellipse transform="matrix(0.4817 -0.8764 0.8764 0.4817 22.3601 1469.6421)" class="st8" cx="1253.6" cy="715.9" rx="4" ry="4.1"/>

			<ellipse transform="matrix(0.4819 -0.8762 0.8762 0.4819 -115.4703 1368.1675)" class="st8" cx="1099.2" cy="781.7" rx="4" ry="4.1"/>
		<path class="st8" d="M1099.4,647.6c2.6-4.8,8.5-6.7,13.1-4.1c4.6,2.6,6.2,8.6,3.6,13.4c-2.6,4.8-8.5,6.7-13.1,4.1
			C1098.4,658.5,1096.8,652.5,1099.4,647.6z"/>
		<path class="st9" d="M1022.3,819.2l44.7-28.4c-1.9,1.2-2.7,3.7-2.6,7.2c0,2.2,0.5,4.9,1.2,7.9c0.6,2,1.2,4.2,2,6.4
			c1,2.7,2.2,5.7,3.7,8.7c2.4,5.2,5.4,10.7,9,16.3c13.8,21.6,30.1,35.9,36.5,31.9l-44.7,28.4L1022.3,819.2z"/>
		<path class="st9" d="M1067,790.9l49.8,78.5c-6.4,4-22.7-10.2-36.5-31.9C1066.4,815.8,1060.5,794.9,1067,790.9z"/>

			<ellipse transform="matrix(0.8444 -0.5358 0.5358 0.8444 -274.7468 714.2129)" class="st10" cx="1091.9" cy="830" rx="13.7" ry="46.5"/>
		<path class="st9" d="M1022.9,818.8c1.9-1.2,4.4-0.9,7.6,0.7c2,1,4.2,2.5,6.6,4.4c1.7,1.3,3.3,2.8,5,4.5c2.1,2.1,4.2,4.4,6.4,7
			c3.7,4.4,7.4,9.6,10.9,15.1c13.8,21.6,19.7,42.5,13.3,46.6c-0.2,0.2-0.4,0.2-0.6,0.3c-6.8,2.8-22.5-11.3-35.9-32.2
			c-3.5-5.6-6.6-11.2-9-16.3c-1.4-3-2.6-6-3.7-8.7c-0.8-2.2-1.5-4.4-2-6.4c-0.7-3-1.2-5.7-1.2-7.9c-0.1-3.1,0.6-5.5,1.9-6.7
			C1022.5,819.1,1022.7,818.9,1022.9,818.8z"/>
		<path class="st11" d="M1071.4,793.6c2.1-1.3,5.4-0.1,9.3,2.8c4.7,3.4,10.5,9.4,16.2,17.1c2.2,2.9,4.3,6,6.4,9.3
			c12.3,19.4,18,38,12.8,41.4c-5.3,3.4-19.7-9.7-32-29.1c-2.1-3.3-4-6.6-5.7-9.8c-4.5-8.4-7.5-16.2-8.6-22
			C1069,798.4,1069.4,794.9,1071.4,793.6z"/>
		<polygon class="st12" points="1226.9,810.4 1338.6,1002 1263.4,1051.4 1141.6,866.3 		"/>
		<polygon class="st11" points="1326.1,980.3 1327,981.9 1250.6,1032.1 1249.7,1030.6 		"/>
		<polygon class="st11" points="1279,1041.1 1277.5,1042 1161.6,853.2 1163.1,852.3 		"/>
		<polygon class="st11" points="1302.8,1025.5 1297.5,1028.9 1172.6,825.6 1177.9,822 		"/>
		<polygon class="st11" points="1322,1012.9 1320.4,1013.9 1204.5,825 1206.1,824.1 		"/>
		<polygon class="st11" points="1314.2,958.4 1315.1,960 1236.9,1011.3 1236.1,1009.8 		"/>
		<polygon class="st11" points="1301,937.6 1301.9,939 1223.3,990.6 1222.4,989.2 		"/>
		<polygon class="st11" points="1288.5,916.1 1289.4,917.5 1209.7,969.9 1208.8,968.4 		"/>
		<polygon class="st11" points="1276,894.6 1276.9,896.2 1196.1,949.2 1195.2,947.7 		"/>
		<polygon class="st11" points="1263.5,873.3 1264.3,874.8 1182.5,928.5 1181.6,927 		"/>
		<polygon class="st11" points="1250.9,851.9 1251.8,853.3 1168.8,907.7 1168,906.3 		"/>
		<polygon class="st11" points="1238.5,830.4 1239.5,831.8 1155.2,887.1 1154.3,885.6 		"/>
		<path class="st9" d="M1326,998.6c-0.4-0.8-104-163.7-104-163.7l2.5-7.5L1326,998.6z"/>

			<rect x="1082.6" y="747.9" transform="matrix(0.8444 -0.5358 0.5358 0.8444 -243.1729 742.1616)" class="st11" width="146.5" height="83.5"/>
		<path class="st13" d="M1069.9,803.2l129.1-81.9l12.4,19.6l-132.9,84.4C1074,816.8,1071,809,1069.9,803.2z"/>
		<path class="st10" d="M1020.4,826l44-28c0.1,5.7,2.5,13.8,6.9,23l-44,28C1022.9,839.9,1020.5,831.6,1020.4,826z"/>

			<ellipse transform="matrix(0.8444 -0.5358 0.5358 0.8444 -210.9119 770.5225)" class="st9" cx="1220.8" cy="748.3" rx="11.4" ry="46.5"/>

			<ellipse transform="matrix(0.8444 -0.5358 0.5358 0.8444 -208.2864 774.0161)" class="st10" cx="1228.1" cy="745.5" rx="13.6" ry="55.6"/>
		<path class="st14" d="M1021.6,833.9l44-27.9c0.6,2,1.2,4.2,2,6.4l-44,28C1022.8,838,1022.1,835.9,1021.6,833.9z"/>
		<path class="st9" d="M1223.8,729.2l15.1-9.5c-0.7,0.4-1,1.2-0.9,2.3c0,0.7,0.1,1.5,0.3,2.6c0.1,0.6,0.3,1.4,0.6,2
			c0.3,0.8,0.7,1.8,1.1,2.8c0.7,1.6,1.7,3.3,2.8,5.2c4.3,6.8,9.5,11.1,11.7,9.8l-15.1,9.5L1223.8,729.2z"/>
		<path class="st9" d="M1224,729c0.7-0.4,1.5-0.3,2.5,0.1c0.7,0.3,1.4,0.8,2.1,1.4c0.6,0.4,1,0.8,1.5,1.4c0.6,0.7,1.3,1.4,2.1,2.2
			c1.1,1.3,2.4,3,3.4,4.8c4.3,6.8,6,13.4,3.9,14.8c-0.1,0.1-0.1,0.1-0.2,0.1c-2.2,0.9-7.3-3.4-11.5-10c-1.1-1.7-2.1-3.5-2.8-5.2
			c-0.4-1-0.8-1.9-1.1-2.8c-0.2-0.7-0.4-1.4-0.6-2c-0.2-0.9-0.3-1.7-0.3-2.6C1223.3,730.2,1223.5,729.4,1224,729
			C1223.8,729.1,1223.9,729.1,1224,729z"/>
		<path class="st10" d="M1223.1,731.3l14.9-9.5c0,1.8,0.7,4.4,2,7.3l-14.9,9.5C1223.8,735.7,1223,733.1,1223.1,731.3z"/>
		<path class="st14" d="M1223.4,733.8l14.9-9.5c0.1,0.6,0.3,1.4,0.6,2l-14.8,9.4C1223.7,735.2,1223.6,734.5,1223.4,733.8z"/>
		<path class="st11" d="M1242.2,734.6c24.8,39.1,76.6,50.7,115.7,25.9L1268,618.9C1228.9,643.8,1217.4,695.5,1242.2,734.6z"/>
		<path class="st13" d="M1271.9,625l6.9,10.9c-37,23.5-51.3,68.2-33.9,102.5c-1.3-1.7-2.6-3.4-3.8-5.3
			C1219.1,698.4,1232.8,649.9,1271.9,625z"/>
		<path class="st10" d="M1267.5,617.9c6.3-4,31.3,24.1,56.1,62.9c0.3,0.3,0.5,0.8,0.7,1.1c0.9,1.5,1.9,2.9,2.8,4.5
			c23.3,37.5,37,70.3,30.9,74.2s-29.9-22.5-54-59.6c-0.9-1.4-1.9-2.9-2.8-4.4c-0.3-0.3-0.5-0.8-0.7-1.1
			C1275.9,656.6,1261.1,621.9,1267.5,617.9z"/>
		<path class="st10" d="M1268.9,617c6.3-4,31.3,24.1,56.1,62.9c0.3,0.3,0.5,0.8,0.7,1.1c0.9,1.5,1.9,2.9,2.8,4.5
			c23.3,37.5,37,70.3,30.9,74.2s-29.9-22.5-54-59.6c-0.9-1.4-1.9-2.9-2.8-4.4c-0.3-0.3-0.5-0.8-0.7-1.1
			C1277.4,655.6,1262.5,621.1,1268.9,617z"/>
		<path class="st14" d="M1300.5,695.4l25.9-16.5l3.5,5.6L1304,701c-0.9-1.4-1.9-2.9-2.8-4.4C1300.9,696.2,1300.6,695.9,1300.5,695.4
			z"/>

			<ellipse transform="matrix(0.8443 -0.5359 0.5359 0.8443 -158.0341 818.3693)" class="st11" cx="1329.2" cy="681.1" rx="8.8" ry="8.8"/>

			<rect x="1161" y="825.8" transform="matrix(0.8443 -0.5358 0.5358 0.8443 -260.5139 759.6339)" class="st11" width="32.3" height="4.7"/>
		<polygon class="st12" points="1164.6,717.1 1061.2,524.4 965.1,592.2 1081.6,772.4 		"/>
		<polygon class="st11" points="1074,548.2 1073.1,546.7 976.9,610.4 977.9,611.8 		"/>
		<polygon class="st11" points="991.2,573.9 989.7,575 1101,759.4 1102.5,758.4 		"/>
		<polygon class="st11" points="1014.4,558.5 1009.2,561.9 1129.1,760.8 1134.2,757.3 		"/>
		<polygon class="st11" points="1033,546.1 1031.5,547 1142.8,731.5 1144.3,730.6 		"/>
		<polygon class="st11" points="1085.3,569.5 1084.5,568 990.2,630.5 991,631.9 		"/>
		<polygon class="st11" points="1096.8,590.7 1096,589.3 1003.1,650.9 1003.9,652.4 		"/>
		<polygon class="st11" points="1108.1,612.1 1107.3,610.7 1016.1,671.1 1017.1,672.6 		"/>
		<polygon class="st11" points="1119.6,633.4 1118.8,632 1029.3,691.3 1030.1,692.8 		"/>
		<polygon class="st11" points="1131,654.7 1130.2,653.2 1042.5,711.5 1043.3,713 		"/>
		<polygon class="st11" points="1142.4,676.1 1141.4,674.6 1055.4,731.9 1056.3,733.3 		"/>
		<polygon class="st11" points="1153.9,697.2 1153.1,695.8 1068.5,752.1 1069.4,753.6 		"/>
		<path class="st9" d="M1046.9,548.3c0.4,0.8,95.1,163.2,95.1,163.2l7.5,0.7L1046.9,548.3z"/>

			<rect x="1113.9" y="751.1" transform="matrix(0.8443 -0.5359 0.5359 0.8443 -227.8115 722.9086)" class="st11" width="32.3" height="4.7"/>
	</g>
	<text id="exTitle" transform="matrix(1 0 0 1 1119.0498 209.5476)" class="st8 st15 st16">Experiments</text>
	<rect x="1131.1" y="243.1" class="st1" width="368.2" height="145.1"/>
	<g id="exDescription">
		<text transform="matrix(1 0 0 1 1131.1205 267.6348)" class="st8 st15 st17">Here are my ideas</text>
		<text transform="matrix(1 0 0 1 1131.1205 311.6348)" class="st8 st15 st17"> and small projects!</text>
	</g>
</g>
</svg>
