<?xml version="1.0" encoding="utf-8"?>
<!-- Generator: Adobe Illustrator 21.0.2, SVG Export Plug-In . SVG Version: 6.00 Build 0)  -->
<svg version="1.1" id="Layer_1" xmlns="http://www.w3.org/2000/svg" xmlns:xlink="http://www.w3.org/1999/xlink" x="0px" y="0px"
	 viewBox="0 0 1920 1080" style="enable-background:new 0 0 1920 1080;" xml:space="preserve">
<style type="text/css">
	.st0{fill:#C54C31;}
	.st1{fill:#FFFFFF;}
</style>
<g id="FlagTop_1_">
	<path class="st0" d="M1613,494.9c0,0,96.2-31.1,112.4-11.8c16.3,19.2,51.4,6.6,51.4,6.6v94c0,0-67.8,17.6-67.3-3
		c0.3-17-94.4,5.9-94.4,5.9L1613,494.9z"/>
	<path class="st1" d="M1733,580.2c-8.5,0-12.5-0.9-14.2-1.6c-0.3-3.1-1.7-6.1-4-8.3c-4.2-4.2-10.6-6.1-20.3-6.1
		c-13.9,0-58.1,7-70.4,10.1l-1.6-72.9c11.8-4.2,62.9-15.5,81.6-15.5c10,0,13,2.6,13.7,3.3c7.4,8.7,20.3,12.8,39.3,13
		c11.9,0.2-0.2,1.3,9.8-0.6v74.3C1754.1,578.4,1752.2,580.2,1733,580.2z"/>
</g>
</svg>
