<?xml version="1.0" encoding="utf-8"?>
<!-- Generator: Adobe Illustrator 21.0.2, SVG Export Plug-In . SVG Version: 6.00 Build 0)  -->
<svg version="1.1" id="popUpSvg" xmlns="http://www.w3.org/2000/svg" xmlns:xlink="http://www.w3.org/1999/xlink" x="0px" y="0px"
	 viewBox="0 0 1920 1080" style="enable-background:new 0 0 1920 1080;" xml:space="preserve">
<style type="text/css">
	.st0{fill:#515151;}
	.st1{fill:#F46464;}
	.st2{fill:#F2DA66;}
	.st3{fill:#64F980;}
	.st4{fill:#000035;}
	.st5{fill:#FFFFFF;}
	.st6{fill:#666666;}
	.st7{fill:#333333;}
	.st8{fill:#CCCCCC;}
	.st9{fill:#1A1A1A;}
	.st10{fill:#999999;}
	.st11{fill:#DDFF63;}
	.st12{fill:#D5FF3F;}
	.st13{fill:#2EBD33;}
	.st14{fill:#B3B3B3;}
	.st15{fill:#33CC33;}
	.st16{fill:#5FDE35;}
	.st17{fill:#FF8B95;}
	.st18{fill:#A43737;}
	.st19{fill:#E6E6E6;}
	.st20{fill:#999933;}
	.st21{fill:#AEAE33;}
	.st22{fill:#185F64;}
	.st23{fill:#40797D;}
	.st24{fill:#649296;}
	.st25{fill:none;}
	.st26{font-family:'Lato', Fallback, sans-serif; font-weight: 300;}
	.st27{font-size:32.9818px;}
	.st28{fill:url(#SVGID_1_);}
	.st29{fill:none;stroke:#303030;stroke-width:0.25;stroke-miterlimit:10;}
	.st30{fill:#262626;}
	.st31{font-size:24px; font-family:'Lato', Fallback, sans-serif; font-weight: 300;
	-webkit-user-select: none; /* Safari */
	-khtml-user-select: none; /* Konqueror HTML */
	-moz-user-select: none; /* Firefox */
	-ms-user-select: none; /* Internet Explorer/Edge */
	user-select: none;
	}
</style>
<filter id="dropshadow" height="130%">
  <feGaussianBlur in="SourceAlpha" stdDeviation="30"/> <!-- stdDeviation is how much to blur -->
  <feOffset dx="0" dy="50" result="offsetblur"/> <!-- how much to offset -->
  <feComponentTransfer>
    <feFuncA type="linear" slope="0.5"/> <!-- slope is the opacity of the shadow -->
  </feComponentTransfer>
  <feMerge>
    <feMergeNode/> <!-- this contains the offset blurred image -->
    <feMergeNode in="SourceGraphic"/> <!-- this contains the element that the filter is applied to -->
  </feMerge>
</filter>
<g id="popUp" style="filter:url(#dropshadow)">
	<g>
		<g>
			<path class="st0" d="M1354.9,750.5H523c-6.6,0-12-5.4-12-12V276c0-6.6,5.4-12,12-12h831.9c6.6,0,12,5.4,12,12v462.5
				C1366.9,745.1,1361.5,750.5,1354.9,750.5z"/>
		</g>
	</g>
	<circle class="st1" cx="531.2" cy="279.3" r="3.7"/>
	<circle class="st2" cx="543.6" cy="279.3" r="3.7"/>
	<circle class="st3" cx="555.9" cy="279.3" r="3.7"/>
	<g>
		<path class="st4" d="M1122.7,503.1c136.4,0,247,110.7,247,247H875.8C875.8,613.8,986.3,503.1,1122.7,503.1L1122.7,503.1z"/>
		<path class="st4" d="M926,631.2c65.8,0,119.1,53.2,119.1,118.9h-238C807.1,684.4,860.2,631.2,926,631.2L926,631.2z"/>
		<path class="st5" d="M1224.7,543.5c2.3,0,4.1,1.9,4.1,4.1c0,2.3-1.9,4.1-4.1,4.1s-4.1-1.9-4.1-4.1S1222.4,543.5,1224.7,543.5
			L1224.7,543.5z"/>
		<path class="st5" d="M1302.6,610.6c2.3,0,4.1,1.9,4.1,4.1s-1.9,4.1-4.1,4.1s-4.1-1.9-4.1-4.1S1300.4,610.6,1302.6,610.6
			L1302.6,610.6z"/>
		<path class="st5" d="M1211.9,623.7c2.3,0,4.1,1.9,4.1,4.1c0,2.4-1.9,4.1-4.1,4.1c-2.3,0-4.1-1.7-4.1-4.1
			C1207.8,625.6,1209.7,623.7,1211.9,623.7L1211.9,623.7z"/>
		<path class="st5" d="M1023.3,536.6c2.3,0,4.1,1.7,4.1,4.1c0,2.3-1.9,3.9-4.1,3.9c-2.3,0-4.1-1.7-4.1-3.9
			C1019.2,538.2,1021,536.6,1023.3,536.6L1023.3,536.6z"/>
		<path class="st5" d="M936.9,677.5c2.3,0,4.1,1.7,4.1,3.9c0,2.4-1.9,4.1-4.1,4.1s-4.1-1.7-4.1-4.1
			C932.7,679.1,934.6,677.5,936.9,677.5L936.9,677.5z"/>
		<path class="st5" d="M1284.4,635c1.1,0,2.1,0.9,2.1,2.1s-0.9,2.1-2.1,2.1s-2.1-0.9-2.1-2.1S1283.3,635,1284.4,635L1284.4,635z"/>
		<path class="st5" d="M1282.4,593.9c1.1,0,2.1,0.9,2.1,2.1c0,1.1-0.9,2.1-2.1,2.1s-2.1-0.9-2.1-2.1
			C1280.3,594.8,1281.2,593.9,1282.4,593.9L1282.4,593.9z"/>
		<path class="st5" d="M1184.3,535.4c1.1,0,2.1,0.8,2.1,2.1c0,1.1-0.9,2.1-2.1,2.1s-2.1-0.9-2.1-2.1
			C1182.2,536.2,1183.2,535.4,1184.3,535.4L1184.3,535.4z"/>
		<path class="st5" d="M1020.3,606.3c1.1,0,2.1,0.9,2.1,2.1s-0.9,2.1-2.1,2.1s-2.1-0.9-2.1-2.1S1019.2,606.3,1020.3,606.3
			L1020.3,606.3z"/>
		<path class="st5" d="M994.7,565.9c1.1,0,2.1,0.9,2.1,2.1c0,1.1-0.9,2.1-2.1,2.1s-2.1-0.9-2.1-2.1
			C992.7,566.8,993.6,565.9,994.7,565.9L994.7,565.9z"/>
		<path class="st5" d="M863,677.1c1.1,0,2.1,0.9,2.1,2.1c0,1.1-0.9,2.1-2.1,2.1s-2.1-0.9-2.1-2.1C861,678,861.9,677.1,863,677.1
			L863,677.1z"/>
		<path class="st5" d="M948.7,719.9c1.1,0,2.1,0.9,2.1,2.1s-0.9,2.1-2.1,2.1s-2.1-0.9-2.1-2.1S947.6,719.9,948.7,719.9L948.7,719.9z
			"/>
		<path class="st5" d="M971.6,693.6c1.3,0,2.1,0.8,2.1,2.1c0,1.1-0.8,2.1-2.1,2.1c-1.1,0-1.9-0.9-1.9-2.1
			C969.7,694.4,970.5,693.6,971.6,693.6L971.6,693.6z"/>
	</g>
	<g>
		<path class="st6" d="M1113.4,651.8l29.3,24.4l29.5,24.6c12.2,10,14,28.1,3.7,40.3c-5.7,6.9-13.8,10.4-22,10.4l0,0h-59.2h-59
			c-15.9,0-28.9-12.8-28.9-28.7c0-9.8,4.9-18.5,12.6-23.8l27.5-22.8l29.5-24.6C1087.4,642.6,1102.9,642.9,1113.4,651.8L1113.4,651.8
			z"/>
		<path class="st7" d="M1151.5,683.5l20.7,17.3l0,0H1017c0.8-0.6,1.6-1.2,2.4-1.8l18.7-15.5H1151.5z"/>
		<path class="st8" d="M1126.1,657.9l-4.3,5.3l-10.6-8.9l4.3-5.3L1126.1,657.9z M1111.8,646.3l-3.5,5.9h-0.2V652h-0.2l0,0l-0.2-0.2
			h-0.2l0,0l-0.2-0.2l0,0l-0.2-0.2h-0.2l0,0l-0.2-0.2h-0.2l0,0l-0.2-0.2l0,0h-0.2h-0.2v-0.2h-0.2h-0.2v-0.2h-0.2l0,0l-0.2-0.2h-0.2
			l0,0h-0.2l-0.2-0.2l0,0h-0.2h-0.2V650h-0.2l0,0h-0.2l-0.2-0.2l0,0h-0.2h-0.2v-0.2h-0.2h-0.2l0,0h-0.2l-0.2-0.2l0,0h-0.2h-0.2l0,0
			l-0.2-0.2h-0.2l0,0h-0.2h-0.2V649h-0.2h-0.2l0,0h-0.2h-0.2v-0.2h-0.2h-0.2l0,0h-0.2h-0.2l0,0l-0.2-0.2h-0.2l0,0h-0.2h-0.2l0,0
			h-0.2h-0.2h-0.2v-0.2h-0.2h-0.2l0,0h-0.2h-0.2l0,0h-0.2h-0.2l0,0h-0.2l0,0l0.4-6.9h0.2h0.2h0.2l0,0h0.2h0.2h0.2h0.2h0.2l0.2,0.2
			h0.2l0,0h0.2h0.2h0.2h0.2l0.2,0.2h0.2l0,0h0.2h0.2h0.2h0.2l0.2,0.2h0.2l0,0h0.2h0.2l0.2,0.2h0.2h0.2h0.2l0,0l0.2,0.2h0.2h0.2h0.2
			l0.2,0.2h0.2l0,0h0.2l0.2,0.2h0.2h0.2h0.2v0.2h0.2h0.2l0.2,0.2h0.2h0.2l0,0l0.2,0.2h0.2h0.2l0.2,0.2h0.2l0,0l0.2,0.2h0.2h0.2
			l0.2,0.2l0,0h0.2l0.2,0.2h0.2l0.2,0.2l0,0h0.2l0.2,0.2h0.2h0.2v0.2h0.2l0.2,0.2h0.2l0.2,0.2l0,0h0.2l0.2,0.2h0.2l0.2,0.2l0,0
			l0.2,0.2h0.2l0.2,0.2l0,0h0.2L1111.8,646.3L1111.8,646.3z M1089.5,641.8l1.2,6.9h-0.2l0,0h-0.2h-0.2v0.2h-0.2h-0.2l0,0h-0.2h-0.2
			l0,0l-0.2,0.2h-0.2h-0.2l0,0h-0.2h-0.2v0.2h-0.2h-0.2l0,0h-0.2h-0.2v0.2h-0.2h-0.2l0,0h-0.2l-0.2,0.2l0,0h-0.2h-0.2v0.2h-0.2h-0.2
			l0,0l-0.2,0.2h-0.2l0,0h-0.2v0.2h-0.2h-0.2l0,0l-0.2,0.2h-0.2l0,0l-0.2,0.2h-0.2l0,0h-0.2l-0.2,0.2l0,0h-0.2l-0.2,0.2l0,0h-0.2
			v0.2h-0.2h-0.2v0.2h-0.2h-0.2v0.2h-0.2l0,0l-0.2,0.2h-0.2l0,0l-0.2,0.2h-0.2v0.2h-0.2l0,0l-0.2,0.2h-0.2v0.2h-0.2l0,0l-0.2,0.2
			h-0.2v0.2h-0.2l0,0l-0.2,0.2h-0.2v0.2l0,0l-4.1-5.5l0,0l0.2-0.2l0,0l0.2-0.2l0.2-0.2h0.2v-0.2h0.2l0.2-0.2h0.2v-0.2h0.2l0.2-0.2
			h0.2l0.2-0.2l0,0l0.2-0.2h0.2l0.2-0.2l0,0l0.2-0.2h0.2h0.2l0.2-0.2l0,0l0.2-0.2h0.2l0.2-0.2h0.2l0,0l0.2-0.2h0.2l0.2-0.2h0.2v-0.2
			h0.2h0.2l0.2-0.2h0.2h0.2v-0.2h0.2l0.2-0.2h0.2h0.2l0.2-0.2l0,0h0.2l0.2-0.2h0.2h0.2l0.2-0.2l0,0h0.2h0.2l0.2-0.2h0.2h0.2V643h0.2
			h0.2h0.2l0.2-0.2h0.2h0.2l0,0l0.2-0.2h0.2h0.2h0.2l0.2-0.2h0.2l0,0h0.2h0.2l0.2-0.2h0.2h0.2h0.2l0,0l0.2-0.2h0.2h0.2h0.2h0.2h0.2
			L1089.5,641.8L1089.5,641.8z M1070.1,652.4l4.3,5.3l-10.6,8.9l-4.3-5.3L1070.1,652.4z M1054.1,665.6l4.3,5.3l-9.4,7.9l-1.2,1
			l-4.3-5.3l1.2-1L1054.1,665.6z M1038.2,678.8l4.3,5.3l-10.4,8.9l-4.5-5.3L1038.2,678.8z M1022.3,692.1l4.5,5.3l-5.3,4.3h-0.2v0.2
			h-0.2l0,0l0,0l-0.2,0.2l0,0h-0.2v0.2l0,0h-0.2l0,0v0.2h-0.2l0,0l-0.2,0.2l0,0l0,0h-0.2v0.2h-0.2l0,0v0.2h-0.2l0,0v0.2h-0.2l0,0
			l0,0l-0.2,0.2l0,0h-0.2v0.2l0,0h-0.2v0.2l0,0h-0.2v0.2l0,0h-0.2v0.2l0,0h-0.2v0.2h-0.2l0,0v0.2h-0.2l0,0v0.2h-0.2l0,0v0.2h-0.2
			l0,0v0.2h-0.2l0,0v0.2h-0.2l0,0v0.2h-0.2l0,0v0.2l0,0h-0.2l-5.1-4.5l0,0l0.2-0.2l0,0l0.2-0.2l0,0l0,0l0.2-0.2l0,0l0.2-0.2l0,0
			v-0.2h0.2v-0.2h0.2l0,0l0.2-0.2l0,0v-0.2h0.2v-0.2h0.2l0,0l0.2-0.2l0,0v-0.2h0.2l0,0l0.2-0.2l0,0l0.2-0.2l0,0l0.2-0.2l0,0h0.2
			v-0.2l0,0l0.2-0.2l0,0h0.2V698h0.2l0,0l0.2-0.2l0,0l0.2-0.2l0,0h0.2v-0.2h0.2v-0.2h0.2l0,0V697h0.2l0,0l0.2-0.2l0,0h0.2v-0.2h0.2
			v-0.2h0.2l0,0l0.2-0.2l0,0L1022.3,692.1z M1007.1,707.7l6.1,3.3l0,0l-0.2,0.2l0,0l0,0v0.2h-0.2v0.2l0,0v0.2l0,0h-0.2v0.2l0,0v0.2
			l0,0l-0.2,0.2l0,0v0.2l0,0l0,0l-0.2,0.2l0,0v0.2l0,0v0.2h-0.2v0.2l0,0l0,0v0.2l0,0l-0.2,0.2l0,0v0.2l0,0v0.2l0,0l-0.2,0.2l0,0l0,0
			v0.2l0,0v0.2h-0.2v0.2l0,0v0.2l0,0v0.2l0,0l-0.2,0.2l0,0v0.2l0,0l0,0v0.2l0,0l-0.2,0.2l0,0v0.2l0,0v0.2l0,0v0.2l0,0l-0.2,0.2l0,0
			v0.2l0,0v0.2l0,0v0.2l0,0v0.2l0,0l-0.2,0.2l0,0v0.2l0,0l0,0v0.2l0,0v0.2l0,0v0.2l0,0l-0.2,0.2l0,0v0.2l0,0v0.2l0,0v0.2l0,0v0.2
			l0,0v0.2l0,0v0.2l0,0v0.2l0,0l-0.2,0.2l0,0v0.2l0,0v0.2l0,0v0.2l0,0v0.2l0,0v0.2v0.2l0,0v0.2l0,0v0.2l0,0v0.2l0,0v0.2l0,0v0.2l0,0
			h-6.9v-0.2l0,0v-0.2V722l0,0v-0.2v-0.2l0,0v-0.2l0,0v-0.2V721l0,0v-0.2v-0.2l0,0v-0.2v-0.2l0,0V720v-0.2h0.2v-0.2v-0.2l0,0v-0.2
			l0,0V719v-0.2l0,0v-0.2v-0.2l0,0v-0.2l0.2-0.2l0,0v-0.2l0,0v-0.2v-0.2l0,0v-0.2V717l0,0l0.2-0.2l0,0v-0.2v-0.2l0,0v-0.2V716l0,0
			l0.2-0.2l0,0v-0.2v-0.2l0,0v-0.2l0,0V715l0.2-0.2l0,0v-0.2l0,0v-0.2v-0.2h0.2V714v0l0,0v-0.2l0,0l0.2-0.2v-0.2l0,0v-0.2l0,0
			l0.2-0.2v-0.2l0,0v-0.2l0,0v-0.2h0.2v-0.2V712l0,0l0.2-0.2l0,0v-0.2v-0.2l0,0l0.2-0.2l0,0V711l0,0l0.2-0.2v-0.2l0,0v-0.2l0,0
			l0.2-0.2l0,0V710v-0.2h0.2v-0.2l0,0v-0.2h0.2v-0.2V709l0,0l0.2-0.2l0,0v-0.2h0.2v-0.2l0,0v-0.2l0.2-0.2l0,0v-0.2l0,0L1007.1,707.7
			z M1004.2,730.3l6.7-1.6h0.2v0.2v0.2v0.2l0,0l0.2,0.2v0.2v0.2l0,0l0.2,0.2v0.2v0.2l0,0v0.2l0.2,0.2v0.2l0,0v0.2l0.2,0.2v0.2l0,0
			l0.2,0.2v0.2v0.2l0,0l0.2,0.2v0.2l0,0l0.2,0.2v0.2v0.2h0.2v0.2v0.2h0.2v0.2v0.2l0.2,0.2l0,0v0.2l0.2,0.2l0,0v0.2l0.2,0.2l0,0
			l0.2,0.2v0.2l0,0l0.2,0.2v0.2h0.2v0.2v0.2h0.2v0.2l0.2,0.2l0,0l0.2,0.2v0.2l0,0l0.2,0.2v0.2h0.2v0.2h0.2v0.2l0.2,0.2l0,0v0.2
			l0.2,0.2l0,0l0.2,0.2l0,0l0.2,0.2v0.2h0.2v0.2h0.2v0.2l0,0l-5.1,4.5l0,0l-0.2-0.2v-0.2h-0.2l-0.2-0.2v-0.2l-0.2-0.2h-0.2v-0.2
			l-0.2-0.2v-0.2l-0.2-0.2h-0.2V742l-0.2-0.2v-0.2h-0.2v-0.2l-0.2-0.2l-0.2-0.2v-0.2l-0.2-0.2l0,0l-0.2-0.2v-0.2l-0.2-0.2v-0.2
			l-0.2-0.2l0,0l-0.2-0.2v-0.2l-0.2-0.2v-0.2l-0.2-0.2l0,0l-0.2-0.2v-0.2l-0.2-0.2v-0.2l-0.2-0.2v-0.2l-0.2-0.2l0,0l-0.2-0.2v-0.2
			v-0.2l-0.2-0.2v-0.2l-0.2-0.2v-0.2v-0.2l-0.2-0.2v-0.2h-0.2V735v-0.2l-0.2-0.2v-0.2v-0.2l-0.2-0.2v-0.2l-0.2-0.2v-0.2v-0.2
			l-0.2-0.2v-0.2v-0.2v-0.2l-0.2-0.2V732v-0.2l-0.2-0.2l0,0v-0.2v-0.2l-0.2-0.2v-0.2v-0.2v-0.2L1004.2,730.3z M1017,749l3.9-5.5h0.2
			v0.2h0.2h0.2v0.2h0.2l0.2,0.2l0,0l0.2,0.2h0.2l0,0l0.2,0.2h0.2v0.2h0.2h0.2v0.2h0.2h0.2v0.2h0.2l0.2,0.2l0,0h0.2l0.2,0.2h0.2l0,0
			l0.2,0.2h0.2l0,0l0.2,0.2h0.2l0,0l0.2,0.2h0.2h0.2v0.2h0.2h0.2l0,0l0.2,0.2h0.2h0.2v0.2h0.2h0.2h0.2v0.2h0.2h0.2h0.2v0.2h0.2h0.2
			h0.2v0.2h0.2h0.2h0.2h0.2v0.2h0.2h0.2h0.2l0,0h0.2l0.2,0.2h0.2l0,0h0.2h0.2h0.2l0.2,0.2l0,0h0.2h0.2h0.2h0.2l0,0l-1,6.9l0,0h-0.2
			h-0.2l-0.2-0.2h-0.2h-0.2h-0.2h-0.2h-0.2l-0.2-0.2h-0.2h-0.2h-0.2h-0.2l-0.2-0.2h-0.2h-0.2h-0.2l-0.2-0.2h-0.2h-0.2h-0.2l-0.2-0.2
			h-0.2h-0.2l-0.2-0.2h-0.2h-0.2l-0.2-0.2h-0.2h-0.2h-0.2l-0.2-0.2h-0.2h-0.2l-0.2-0.2h-0.2v-0.2h-0.2h-0.2l-0.2-0.2h-0.2h-0.2
			l-0.2-0.2h-0.2l-0.2-0.2h-0.2h-0.2l-0.2-0.2l0,0l-0.2-0.2h-0.2l-0.2-0.2h-0.2h-0.2l-0.2-0.2h-0.2l-0.2-0.2l0,0l-0.2-0.2h-0.2
			l-0.2-0.2h-0.2l-0.2-0.2h-0.2v-0.2h-0.2l-0.2-0.2h-0.2l-0.2-0.2h-0.2v-0.2h-0.2l-0.2-0.2h-0.2l-0.2-0.2l-0.2-0.2l0,0L1017,749z
			 M1038.6,754.9V748h13.8v6.9H1038.6z M1059.3,754.9V748h13.8v6.9H1059.3z M1079.9,754.9V748h13.8v6.9H1079.9z M1100.6,754.9V748
			h14v6.9H1100.6z M1121.4,754.9V748h13.8v6.9H1121.4z M1142.1,754.9V748h8.5h3.3v3.1v0.2v0.2v3v0.4h0.2l1.8-1.8l1.6-1.6v3.3h-3.5
			L1142.1,754.9L1142.1,754.9z M1150.5,748L1150.5,748h3.3h0.2l0,0h0.2l0,0h0.2l0,0l0,0h0.2l0,0h0.2l0,0h0.2l0,0l0,0h0.2l0,0h0.2
			l0,0l0,0l0.4,3.3 M1157.4,751.3v0.2 M1157.4,751.3h-3.5 M1163.5,753.3l-2-6.5l0,0l0,0h0.2v-0.2h0.2l0,0l0,0h0.2l0,0h0.2v-0.2h0.2
			l0,0l0,0h0.2l0,0h0.2v-0.2l0,0h0.2l0,0h0.2l0,0V746h0.2l0,0h0.2l0,0l0,0l0.2-0.2l0,0h0.2l0,0l0,0h0.2v-0.2h0.2l0,0l0,0h0.2l0,0
			l0.2-0.2l0,0l0,0h0.2l0,0v-0.2h0.2l0,0h0.2l0,0V745h0.2l0,0h0.2l0,0v-0.2h0.2l0,0l0,0h0.2v-0.2h0.2l0,0l0,0l0.2-0.2l0,0h0.2l0,0
			l0,0l0.2-0.2l0,0l0,0h0.2V744h0.2l0,0l0,0h0.2v-0.2l0,0h0.2l0,0v-0.2h0.2l0,0h0.2v-0.2l0,0h0.2l0,0v-0.2h0.2l0,0l0,0l0.2-0.2l0,0
			h0.2v-0.2l0,0h0.2l0,0v-0.2h0.2l0,0l0,0l0.2-0.2l0,0l0,0l0.2-0.2l0,0l0,0h0.2V742l0,0h0.2v-0.2h0.2l0,0l0,0l0.2-0.2l0,0l0,0
			l0.2-0.2l0,0l0,0l0.2-0.2l0,0l0,0h0.2V741l0,0h0.2v-0.2l0,0h0.2v-0.2l0,0h0.2v-0.2l0,0l4.9,4.9l0,0l-0.2,0.2l0,0h-0.2v0.2l0,0
			l-0.2,0.2l0,0h-0.2v0.2h-0.2v0.2l0,0h-0.2v0.2h-0.2v0.2h-0.2l0,0v0.2h-0.2l0,0l-0.2,0.2l0,0l-0.2,0.2l0,0l0,0l-0.2,0.2l0,0h-0.2
			v0.2h-0.2l0,0l-0.2,0.2l0,0v0.2h-0.2l0,0l-0.2,0.2l0,0h-0.2v0.2h-0.2l0,0l-0.2,0.2l0,0l0,0l-0.2,0.2l0,0h-0.2v0.2h-0.2l0,0
			l-0.2,0.2l0,0h-0.2l0,0l-0.2,0.2l0,0l0,0l-0.2,0.2l0,0h-0.2v0.2h-0.2l0,0h-0.2v0.2h-0.2l0,0l-0.2,0.2l0,0h-0.2v0.2h-0.2l0,0h-0.2
			v0.2h-0.2l0,0h-0.2v0.2h-0.2l0,0v0.2h-0.2l0,0h-0.2v0.2h-0.2l0,0h-0.2v0.2h-0.2l0,0h-0.2v0.2h-0.2l0,0h-0.2v0.2h-0.2l0,0h-0.2l0,0
			l-0.2,0.2l0,0h-0.2l0,0l-0.2,0.2h-0.2l0,0h-0.2l0,0l-0.2,0.2l0,0h-0.2l0,0h-0.2v0.2h-0.2l0,0h-0.2l0,0l-0.2,0.2l0,0h-0.2l0,0h-0.2
			v0.2h-0.2l0,0h-0.2l0,0h-0.2v0.2h-0.2l0,0h-0.2L1163.5,753.3L1163.5,753.3z M1181.4,739.3l-5.9-3.5l0,0l0.2-0.2v-0.2l0,0l0.2-0.2
			V735l0.2-0.2l0,0v-0.2l0.2-0.2l0,0v-0.2l0.2-0.2l0,0l0.2-0.2v-0.2v-0.2h0.2v-0.2V733h0.2v-0.2v-0.2l0.2-0.2l0,0v-0.2V732l0.2-0.2
			l0,0v-0.2l0.2-0.2l0,0v-0.2V731l0.2-0.2l0,0v-0.2v-0.2l0.2-0.2l0,0V730v-0.2v-0.2h0.2v-0.2v-0.2V729l0,0l0.2-0.2v-0.2v-0.2l0,0
			v-0.2l0.2-0.2v-0.2l0,0v-0.2v-0.2v-0.2l0,0l0.2-0.2v-0.2v-0.2v-0.2l0,0v-0.2V726v0h0.2v-0.2v-0.2v-0.2l0,0v-0.2V725v-0.2v-0.2l0,0
			v-0.2l0,0l6.9,0.4l0,0v0.2v0.2v0.2v0.2v0.2v0.2v0.2v0.2l-0.2,0.2v0.2v0.2v0.2v0.2v0.2v0.2l-0.2,0.2v0.2v0.2v0.2v0.2v0.2l-0.2,0.2
			v0.2v0.2v0.2l0,0l-0.2,0.2v0.2v0.2v0.2l-0.2,0.2v0.2v0.2v0.2l-0.2,0.2v0.2v0.2v0.2l-0.2,0.2v0.2v0.2l-0.2,0.2v0.2v0.2l-0.2,0.2
			v0.2l0,0l-0.2,0.2v0.2v0.2l-0.2,0.2v0.2v0.2l-0.2,0.2v0.2l-0.2,0.2v0.2v0.2l-0.2,0.2v0.2h-0.2v0.2v0.2l-0.2,0.2v0.2l-0.2,0.2v0.2
			l-0.2,0.2v0.2l-0.2,0.2v0.2h-0.2v0.2l-0.2,0.2v0.2l-0.2,0.2v0.2L1181.4,739.3L1181.4,739.3z M1185.5,717.1l-6.9,1.2l0,0v-0.2v-0.2
			v-0.2l0,0v-0.2l-0.2-0.2v-0.2l0,0v-0.2v-0.2v-0.2h-0.2v-0.2v-0.2v-0.2l0,0l-0.2-0.2v-0.2v-0.2l0,0l-0.2-0.2v-0.2v-0.2l0,0v-0.2
			l-0.2-0.2v-0.2l0,0l-0.2-0.2v-0.2l0,0v-0.2l-0.2-0.2v-0.2l0,0l-0.2-0.2v-0.2l0,0v-0.2l-0.2-0.2v-0.2l0,0l-0.2-0.2v-0.2l0,0
			l-0.2-0.2v-0.2l0,0l-0.2-0.2V711l-0.2-0.2l0,0v-0.2l-0.2-0.2l0,0v-0.2l-0.2-0.2l0,0l-0.2-0.2v-0.2l0,0l-0.2-0.2v-0.2h-0.2V709
			l-0.2-0.2l0,0v-0.2l-0.2-0.2l0,0l-0.2-0.2V708h-0.2v-0.2l-0.2-0.2l0,0l-0.2-0.2l0,0v-0.2l5.3-4.1h0.2v0.2l0.2,0.2l0.2,0.2l0,0
			l0.2,0.2v0.2l0.2,0.2l0.2,0.2v0.2h0.2v0.2l0.2,0.2v0.2l0.2,0.2v0.2h0.2v0.2l0.2,0.2l0.2,0.2v0.2l0.2,0.2v0.2h0.2v0.2v0.2l0.2,0.2
			v0.2l0.2,0.2v0.2l0.2,0.2l0,0l0.2,0.2v0.2l0.2,0.2v0.2v0.2l0.2,0.2v0.2l0.2,0.2v0.2l0,0l0.2,0.2v0.2l0.2,0.2v0.2v0.2l0.2,0.2v0.2
			v0.2l0.2,0.2v0.2v0.2h0.2v0.2v0.2l0.2,0.2v0.2v0.2v0.2l0.2,0.2v0.2v0.2l0.2,0.2v0.2v0.2v0.2l0.2,0.2v0.2v0.2v0.2l0.2,0.2l0,0v0.2
			v0.2v0.2l0.2,0.2v0.2L1185.5,717.1L1185.5,717.1L1185.5,717.1z M1173.9,697.6l-4.3,5.3L1159,694l4.3-5.3L1173.9,697.6z
			 M1158,684.5l-4.3,5.3l-10.6-8.9l4.3-5.3L1158,684.5z M1142.1,671.1l-4.3,5.3l-10.6-8.7l4.3-5.3L1142.1,671.1z"/>
		<path class="st6" d="M1032.5,683.5h9.6l0.4,0.6l-10.4,8.9l-4.5-5.3L1032.5,683.5z M1146.2,683.5h10.8l1,1l-4.3,5.3L1146.2,683.5z
			 M1171.4,700.8h-4.5l-7.9-6.7l4.3-5.3l10.6,8.9L1171.4,700.8z M1022.7,700.8H1012l0,0l0.2-0.2l0,0v-0.2h0.2v-0.2h0.2l0,0l0.2-0.2
			l0,0v-0.2h0.2v-0.2h0.2l0,0l0.2-0.2l0,0v-0.2h0.2l0,0l0.2-0.2l0,0l0.2-0.2l0,0l0.2-0.2l0,0h0.2v-0.2l0,0l0.2-0.2l0,0h0.2V698h0.2
			l0,0l0.2-0.2l0,0l0.2-0.2l0,0h0.2v-0.2h0.2v-0.2h0.2l0,0V697h0.2l0,0l0.2-0.2l0,0h0.2v-0.2h0.2v-0.2h0.2l0,0l0.2-0.2l0,0l5.1-4.1
			l4.5,5.3L1022.7,700.8z"/>
		<path class="st7" d="M1144,741.7L1144,741.7h9.8c5.7,0,10.8-2.6,14.6-6.9c6.5-7.9,5.5-19.9-2.6-26.6l-58.8-49l0,0
			c-7.1-5.9-17.3-6.1-24.4-0.2l-57.4,47.8l-0.4,0.4c-5.1,3.5-8.3,9.2-8.3,15.5c0,10.4,8.5,18.9,19.1,18.9L1144,741.7L1144,741.7z"/>
		<polygon points="1156.8,700.8 1136.2,683.5 1053.3,683.5 1032.5,700.8 		"/>
		<path class="st9" d="M1094.7,654.8c-4.3,0-8.5,1.4-12,4.3l-57.4,47.8l-0.4,0.4c-5.1,3.5-8.3,9.2-8.3,15.5
			c0,10.4,8.5,18.9,19.1,18.9h59V654.8z"/>
		<polygon points="1053.3,683.5 1032.5,700.8 1094.7,700.8 1094.7,683.5 		"/>
		<path class="st10" d="M1150.9,704.3c9.6,0,17.3,7.9,17.3,17.3c0,9.6-7.7,17.3-17.3,17.3c-9.4,0-17.1-7.7-17.1-17.3
			C1133.8,712.2,1141.5,704.3,1150.9,704.3L1150.9,704.3z"/>
		<path class="st10" d="M1038.4,704.3c9.4,0,17.1,7.9,17.1,17.3c0,9.6-7.7,17.3-17.1,17.3c-9.6,0-17.3-7.7-17.3-17.3
			C1021.1,712.2,1028.8,704.3,1038.4,704.3L1038.4,704.3z"/>
		<path class="st8" d="M1150.9,704.3c9.6,0,17.3,7.9,17.3,17.3v0.2h-34.4v-0.2C1133.8,712.2,1141.5,704.3,1150.9,704.3L1150.9,704.3
			z"/>
		<path class="st8" d="M1038.4,704.3c9.4,0,17.1,7.9,17.1,17.3v0.2h-34.4v-0.2C1021.1,712.2,1028.8,704.3,1038.4,704.3L1038.4,704.3
			z"/>
		<path class="st8" d="M1094.7,658.5c9.4,0,17.3,7.7,17.3,17.1c0,9.6-7.9,17.3-17.3,17.3s-17.3-7.7-17.3-17.3
			C1077.3,666.2,1085.2,658.5,1094.7,658.5L1094.7,658.5z"/>
		<path class="st11" d="M1094.7,510.9L1094.7,510.9c36.2,0,65.9,29.5,65.9,65.9V673h-131.8v-96.2
			C1028.8,540.5,1058.5,510.9,1094.7,510.9L1094.7,510.9z"/>
		<path class="st12" d="M1151.5,673h-122.8v-96.2c0-33.6,25.6-61.8,58.2-65.5c35.6,0.8,64.5,30.1,64.5,65.9V673H1151.5z"/>
		<path class="st13" d="M1053,624.3c15.9-32.3,67.9-32.3,83.8,0H1053z"/>
		<path class="st14" d="M1024.2,630.2h140.9c8.3,0,15.1,6.7,15.1,15v33.6c0,8.3-6.9,15.1-15.1,15.1h-140.9
			c-8.3,0-15.1-6.9-15.1-15.1v-33.6C1009.1,636.8,1016,630.2,1024.2,630.2L1024.2,630.2z"/>
		<path class="st8" d="M1024.2,630.2h140.9c8.3,0,15.1,6.7,15.1,15V664c-3.5,3.9-8.9,6.3-15,6.3H1024c-6.1,0-11.4-2.4-15-6.3v-18.9
			C1009.1,636.8,1016,630.2,1024.2,630.2L1024.2,630.2z"/>
		<path class="st6" d="M1007.1,644.1h10c2.6,0,4.5,2.2,4.5,4.5v26.6c0,2.6-2,4.5-4.5,4.5h-10c-2.4,0-4.3-2-4.3-4.5v-26.6
			C1002.8,646.3,1004.8,644.1,1007.1,644.1L1007.1,644.1z"/>
		<path class="st7" d="M1005,644.1h4.9c1.4,0,2.4,1.2,2.4,2.4v30.9c0,1.4-1,2.4-2.4,2.4h-4.9c-1.2,0-2.2-1-2.2-2.4v-30.9
			C1002.8,645.3,1003.8,644.1,1005,644.1L1005,644.1z"/>
		<path class="st6" d="M1002.6,666.6h3.3c0.8,0,1.6,0.8,1.6,1.6v6.5c0,0.8-0.8,1.4-1.6,1.4h-3.3c-1,0-1.6-0.6-1.6-1.4v-6.5
			C1001,667.3,1001.6,666.6,1002.6,666.6L1002.6,666.6z"/>
		<path class="st6" d="M1002.6,647.9h3.3c0.8,0,1.6,0.6,1.6,1.4v6.5c0,1-0.8,1.6-1.6,1.6h-3.3c-1,0-1.6-0.6-1.6-1.6v-6.5
			C1001,648.5,1001.6,647.9,1002.6,647.9L1002.6,647.9z"/>
		<path class="st14" d="M1027.6,624.3h134.2c0.8,0,1.4,0.8,1.4,1.4v3.1c0,0.8-0.6,1.4-1.4,1.4h-134.2c-0.8,0-1.4-0.6-1.4-1.4v-3.1
			C1026.2,625,1026.8,624.3,1027.6,624.3L1027.6,624.3z"/>
		<path class="st15" d="M1050.6,556.4c-2.6,14-2.6,37.8,2.2,43.5c15.7,19.7,68.3,19.7,84.2,0c4.5-5.7,4.5-29.5,2-43.5
			C1135.6,539.1,1053.9,539.1,1050.6,556.4L1050.6,556.4z"/>
		<path class="st16" d="M1050.6,556.4c-2.6,14-2.6,37.8,2.2,43.5c7.9,9.8,25,14.8,42.1,14.8v-71.2
			C1073.6,543.4,1052.4,547.7,1050.6,556.4L1050.6,556.4z"/>
		<path d="M1080.5,573.9c2.2,0,3.7,1.8,3.7,3.9c0,2.2-1.6,3.9-3.7,3.9c-2.2,0-3.9-1.8-3.9-3.9S1078.3,573.9,1080.5,573.9
			L1080.5,573.9z"/>
		<path d="M1109.2,573.9c2.2,0,3.7,1.8,3.7,3.9c0,2.2-1.6,3.9-3.7,3.9c-2.2,0-3.9-1.8-3.9-3.9
			C1105.3,575.7,1107.1,573.9,1109.2,573.9L1109.2,573.9z"/>
		<path class="st17" d="M1060.2,587.1c4.9,0,8.9,3.9,8.9,8.9s-3.9,8.9-8.9,8.9c-4.9,0-9-3.9-9-8.9S1055.3,587.1,1060.2,587.1
			L1060.2,587.1z"/>
		<path class="st17" d="M1129.5,587.1c4.9,0,8.9,3.9,8.9,8.9s-3.9,8.9-8.9,8.9s-9-3.9-9-8.9S1124.6,587.1,1129.5,587.1L1129.5,587.1
			z"/>
		<path d="M1099,591.8c5.1,0,9.2,4.1,9.2,9.2h-18.3C1089.9,595.9,1094.1,591.8,1099,591.8L1099,591.8z"/>
		<path class="st16" d="M1076,527.9c2.4,0,4.1,2,4.1,4.3c0,2.2-1.8,4.1-4.1,4.1s-4.1-2-4.1-4.1
			C1071.8,529.8,1073.6,527.9,1076,527.9L1076,527.9z"/>
		<polygon class="st16" points="1075,533.2 1076,533.2 1077,533.2 1077.7,552.3 1076,552.3 1074.2,552.3 		"/>
		<path class="st15" d="M1113.7,527.9c2.2,0,4.1,2,4.1,4.3c0,2.2-2,4.1-4.1,4.1c-2.4,0-4.3-2-4.3-4.1
			C1109.4,529.8,1111.4,527.9,1113.7,527.9L1113.7,527.9z"/>
		<polygon class="st15" points="1112.8,533.2 1113.7,533.2 1114.5,533.2 1115.5,552.3 1113.7,552.3 1111.8,552.3 		"/>
		<path class="st18" d="M1052,606.6L1052,606.6c2,0,3.7,1.8,3.7,3.7v7.9c0,2.2-1.8,3.7-3.7,3.7l0,0c-2.2,0-3.9-1.6-3.9-3.7v-7.9
			C1048,608.3,1049.8,606.6,1052,606.6L1052,606.6z"/>
		<path class="st18" d="M1137.2,606.6L1137.2,606.6c2,0,3.7,1.8,3.7,3.7v7.9c0,2.2-1.8,3.7-3.7,3.7l0,0c-2.2,0-3.9-1.6-3.9-3.7v-7.9
			C1133.2,608.3,1135,606.6,1137.2,606.6L1137.2,606.6z"/>
		<path class="st16" d="M1052,610.3c4.9,0,9,4.1,9,9c0,5.1-4.1,9-9,9c-5.1,0-9-3.9-9-9C1042.9,614.4,1046.9,610.3,1052,610.3
			L1052,610.3z"/>
		<path class="st15" d="M1137.2,610.3c4.9,0,9,4.1,9,9c0,5.1-4.1,9-9,9c-5.1,0-9-3.9-9-9C1128.1,614.4,1132,610.3,1137.2,610.3
			L1137.2,610.3z"/>
		<path class="st5" d="M1137.2,533.2c3.9,0,7.1,3.3,7.1,7.3c0,3.9-3.1,7.1-7.1,7.1s-7.1-3.1-7.1-7.1S1133.2,533.2,1137.2,533.2
			L1137.2,533.2z"/>
		<rect x="1035.8" y="712.2" class="st19" width="5.1" height="19.5"/>
		<rect x="1141.3" y="719.3" class="st19" width="19.5" height="5.1"/>
		<path class="st5" d="M1165.3,637h2.6c2.6,0,4.7,2.2,4.7,4.7l0,0c0,2.6-2.2,4.7-4.7,4.7h-2.6c-2.6,0-4.7-2.2-4.7-4.7l0,0
			C1160.6,639.2,1162.7,637,1165.3,637L1165.3,637z"/>
		<path class="st5" d="M1113.4,637h29.3c2.6,0,4.7,2.2,4.7,4.7l0,0c0,2.6-2.2,4.7-4.7,4.7h-29.3c-2.6,0-4.7-2.2-4.7-4.7l0,0
			C1108.6,639.2,1110.8,637,1113.4,637L1113.4,637z"/>
		<rect x="1149" y="748" class="st8" width="8.5" height="6.9"/>
	</g>
	<g>
		<rect x="822.8" y="741.1" class="st20" width="569.9" height="18.9"/>
		<rect x="822.8" y="741.1" class="st21" width="569.9" height="9"/>
		<path class="st21" d="M1329.6,722.2c-4.5,4.9-15,15.7-27.7,18.9c-15.9,3.7,33.8,5.3,33.8,7.1c0,0.8,3.9,0.8,8.7,0.4
			c4.7,0.4,8.5,0.4,8.5-0.4c0-1.8,49.8-3.3,33.8-7.1c-12.6-3.1-23.2-14-27.5-18.9H1329.6z"/>
		<path class="st21" d="M1276.6,730.5c-1.6,3.3-5.7,10.8-10.6,13c-6.1,2.6,13.2,3.7,13.2,4.9c0,0.6,1.4,0.6,3.1,0.2
			c2,0.4,3.3,0.4,3.3-0.2c0-1.2,19.3-2.4,13.2-4.9c-4.9-2.2-9-9.6-10.6-13H1276.6z"/>
		<path class="st21" d="M951.8,730.5c-1.8,3.3-5.7,10.8-10.6,13c-6.3,2.6,13.2,3.7,13.2,4.9c0,0.6,1.4,0.6,3.1,0.2
			c2,0.4,3.3,0.4,3.3-0.2c0-1.2,19.3-2.4,13.2-4.9c-4.9-2.2-9-9.6-10.8-13H951.8z"/>
		<path class="st21" d="M872,721.2c-2.6,5.1-8.7,16.3-16.1,19.5c-9.2,3.9,19.9,5.5,19.9,7.5c0,0.8,2.2,0.8,4.9,0.4
			c2.8,0.4,4.9,0.4,4.9-0.4c0-2,28.9-3.5,19.7-7.5c-7.3-3.1-13.4-14.4-15.9-19.5H872z"/>
	</g>
	<g>
		<path class="st22" d="M853.7,539.7c24.8-24.8,64.9-24.8,89.7,0s24.8,64.9,0,89.7s-64.9,24.8-89.7,0
			C828.9,604.6,828.9,564.5,853.7,539.7L853.7,539.7z"/>
		<path class="st23" d="M853.7,539.7c24.8-24.8,64.9-24.8,89.7,0s24.8,64.9,0,89.7L853.7,539.7z"/>
		<path class="st24" d="M884,539.5c7.3-7.1,18.9-7.1,26,0c7.1,7.3,7.1,18.9,0,26s-18.7,7.1-26,0C876.9,558.4,876.9,546.7,884,539.5
			L884,539.5z"/>
		<path class="st23" d="M871,625.6c2.8-2.8,7.1-2.8,9.8,0c2.8,2.8,2.8,7.1,0,9.8c-2.8,2.8-7.1,2.8-9.8,0S868.2,628.4,871,625.6
			L871,625.6z"/>
		<path class="st24" d="M865.7,537.7c2-1.8,5.1-1.8,6.9,0c2,2,2,5.1,0,6.9c-1.8,2-4.9,2-6.9,0C863.9,542.8,863.9,539.7,865.7,537.7
			L865.7,537.7z"/>
		<path class="st24" d="M931.8,559.3c3.9-4.1,10.6-4.1,14.8,0c3.9,4.1,3.9,10.6,0,14.8c-4.1,4.1-10.8,4.1-14.8,0
			C927.6,570,927.6,563.5,931.8,559.3L931.8,559.3z"/>
	</g>
	<rect x="558.6" y="336.9" class="st25" width="582.4" height="210.9"/>
	<text transform="matrix(1 0 0 1 558.6289 360.9639)" class="st5 st26 st27">Sorry, this page is not ready yet, but it </text>
	<text transform="matrix(1 0 0 1 558.6289 400.5639)" class="st5 st26 st27">will be published soon :)</text>

		<linearGradient id="SVGID_1_" gradientUnits="userSpaceOnUse" x1="559.7" y1="453.8" x2="748.2" y2="453.8" gradientTransform="matrix(1 0 0 -1 0 1080)">
		<stop  offset="0" style="stop-color:#66E391"/>
		<stop  offset="1" style="stop-color:#29ABE2"/>
	</linearGradient>
	<path class="st28" id="returnBack" d="M714.1,660.3H593.8c-18.9,0-34.1-15.3-34.1-34.1l0,0c0-18.9,15.3-34.1,34.1-34.1h120.3
		c18.9,0,34.1,15.3,34.1,34.1l0,0C748.2,645,732.9,660.3,714.1,660.3z"/>
	<line class="st29" x1="511" y1="291" x2="1367" y2="291"/>
	<rect x="576.6" y="617.5" class="st25" width="155.4" height="17.5"/>
	<text transform="matrix(1 0 0 1 595.1875 634.9854)" class="st30 st26 st31">return back</text>
</g>
</svg>
