<?xml version="1.0" encoding="utf-8"?>
<!-- Generator: Adobe Illustrator 21.0.2, SVG Export Plug-In . SVG Version: 6.00 Build 0)  -->
<svg version="1.1" id="Layer_1" xmlns="http://www.w3.org/2000/svg" xmlns:xlink="http://www.w3.org/1999/xlink" x="0px" y="0px"
	 viewBox="0 0 512 512" style="enable-background:new 0 0 512 512;" xml:space="preserve">
<style type="text/css">
	.st0{fill:#D12028;}
</style>
<g>
	<g>
		<g>
			<path class="st0" d="M506,309.8H6c-3.3,0-6,2.7-6,6v29.7c0,23,18.7,41.7,41.7,41.7h147.1l-18.3,75.5h-22.6
				c-9.9,0-17.9,8-17.9,17.9c0,9.9,8,17.9,17.9,17.9h216.3c9.9,0,17.9-8,17.9-17.9c0-9.9-8-17.9-17.9-17.9h-22.6l-18.3-75.5h147.1
				c23,0,41.7-18.7,41.7-41.7v-29.7C512,312.5,509.3,309.8,506,309.8z"/>
			<path class="st0" d="M374,214.6h-81.9c-6.6,0-11.9,5.3-11.9,11.9s5.3,11.9,11.9,11.9H374c6.6,0,11.9-5.3,11.9-11.9
				C385.9,219.9,380.6,214.6,374,214.6z"/>
			<path class="st0" d="M374,169.2h-81.9c-6.6,0-11.9,5.3-11.9,11.9s5.3,11.9,11.9,11.9H374c6.6,0,11.9-5.3,11.9-11.9
				C385.9,174.6,380.6,169.2,374,169.2z"/>
			<path class="st0" d="M239.3,169.2H138c-6.6,0-11.9,5.3-11.9,11.9v45.4c0,6.6,5.3,11.9,11.9,11.9h101.3c6.6,0,11.9-5.3,11.9-11.9
				v-45.4C251.2,174.6,245.8,169.2,239.3,169.2z"/>
			<path class="st0" d="M470.6,13.7L470.6,13.7l-0.3,0c-9,0-414.7,0-428.7,0h-0.3v0C18.5,13.9,0,32.4,0,55.3V280c0,3.3,2.7,6,6,6
				c9,0,480.4,0,500.1,0c3.3,0,6-2.7,6-6V55.3C512,32.4,493.5,13.9,470.6,13.7z M440.8,256.2c0,3.3-2.7,6-6,6H77.2c-3.3,0-6-2.7-6-6
				V43.4c0-3.3,2.7-6,6-6h357.6c3.3,0,6,2.7,6,6L440.8,256.2L440.8,256.2z"/>
			<path class="st0" d="M374,61.2H138c-6.6,0-11.9,5.3-11.9,11.9v58.5c0,6.6,5.3,11.9,11.9,11.9H374c6.6,0,11.9-5.3,11.9-11.9V73.2
				C385.9,66.6,380.6,61.2,374,61.2z"/>
		</g>
	</g>
</g>
</svg>
