<?xml version="1.0" encoding="utf-8"?>
<!-- Generator: Adobe Illustrator 21.0.2, SVG Export Plug-In . SVG Version: 6.00 Build 0)  -->
<svg version="1.1" id="Capa_1" xmlns="http://www.w3.org/2000/svg" xmlns:xlink="http://www.w3.org/1999/xlink" x="0px" y="0px"
	 viewBox="0 0 512 512" style="enable-background:new 0 0 512 512;" xml:space="preserve">
<style type="text/css">
	.st0{fill:#D12028;}
</style>
<g>
	<g>
		<circle class="st0" cx="255.7" cy="113.5" r="113.5"/>
		<path class="st0" d="M45.5,267.8v23.6c0.2,0,0.4,0,0.6,0c16.2,0,31.4,6.3,42.8,17.7s17.7,26.6,17.7,42.8
			c0,16.2-6.3,31.4-17.7,42.8c-11.4,11.4-26.6,17.7-42.8,17.7c-0.2,0-0.4,0-0.6,0v81.2c0,7.9,6.4,14,14,14c1,0,1.9-0.1,2.9-0.3
			c21.3-4.3,52.9-7.1,88.3-7.1c46.6,0,86.7,4.8,105.1,11.7c18.3-6.9,58.5-11.7,105.1-11.7c35.4,0,67,2.7,88.3,7.1
			c1,0.2,1.9,0.3,2.9,0.3c7.6,0,14-6.1,14-14v-81.2c-16.2,0-31.4-6.3-42.8-17.7c-11.4-11.4-17.7-26.6-17.7-42.8
			c0-16.2,6.3-31.4,17.7-42.8c11.4-11.4,26.6-17.7,42.8-17.7v-23.6c0-6.1-4-11.6-9.8-13.3c-16.7-5.3-53.1-14.9-95.3-14.9
			c-58,0-105.1,18.3-105.1,18.3s-47.1-18.3-105.1-18.3c-42.2,0-78.6,9.6-95.3,14.9C49.5,256.3,45.5,261.7,45.5,267.8z"/>
		<path class="st0" d="M37.1,312.6c-2.9,0.7-5.8,1.6-8.4,2.9c-13.6,6.5-23,20.4-23,36.5c0,16.1,9.4,29.9,23,36.5
			c2.6,1.3,5.5,2.2,8.4,2.9c2.7,0.6,5.6,1,8.4,1c0.2,0,0.4,0,0.6,0c22.3,0,40.4-18.1,40.4-40.4c0-22.3-18.1-40.4-40.4-40.4
			c-0.2,0-0.4,0-0.6,0C42.7,311.6,39.9,311.9,37.1,312.6z"/>
		<path class="st0" d="M425.5,351.9c0,22.3,18.1,40.4,40.4,40.4c2.9,0,5.7-0.3,8.4-0.9c2.9-0.6,5.8-1.6,8.4-2.8
			c13.9-6.4,23.6-20.4,23.6-36.7c0-16.3-9.6-30.3-23.6-36.7c-2.6-1.2-5.5-2.2-8.4-2.8c-2.7-0.6-5.6-0.9-8.4-0.9
			C443.6,311.6,425.5,329.7,425.5,351.9z"/>
	</g>
</g>
</svg>
