<?xml version="1.0" encoding="utf-8"?>
<!-- Generator: Adobe Illustrator 21.0.2, SVG Export Plug-In . SVG Version: 6.00 Build 0)  -->
<svg version="1.1" id="Layer_1" xmlns="http://www.w3.org/2000/svg" xmlns:xlink="http://www.w3.org/1999/xlink" x="0px" y="0px"
	 viewBox="0 0 512 512" style="enable-background:new 0 0 512 512;" xml:space="preserve">
<style type="text/css">
	.color{fill:#D12028;}
</style>
<g>
	<g>
		<path class="color" d="M391,401.2c0-4.3-0.4-8.5-0.9-12.6c-0.1-1.4-0.3-2.7-0.5-4.1c-0.4-2.6-0.9-5.4-1.4-8.2
			c-0.3-1.5-0.7-3.1-1.1-4.5c-0.7-2.6-1.2-5-2.1-7.4c-0.4-1.6-1-3.1-1.5-4.6c-0.8-2.4-1.7-4.8-2.7-7.1c-0.6-1.4-1.2-2.7-1.8-4.1
			c-1.2-2.8-2.6-5.5-4-8.2c-0.5-0.8-0.9-1.7-1.3-2.6c-2-3.3-4.1-6.6-6.4-9.7c-0.7-1.2-1.7-2.3-2.6-3.5c-1.5-2-3-4-4.7-5.9
			c-1-1.3-2.1-2.5-3.3-3.8c-1.5-1.7-3.1-3.4-4.7-5c-1.2-1.2-2.5-2.4-3.8-3.6c-0.3-0.3-0.7-0.6-1.1-0.9
			c-4.8,27.7-12.2,54.2-22.5,78.4l-0.3,0.8c7.4,4.2,14.5,9,21.1,14.5c0.4,0.2,0.7,0.5,0.9,0.7c3.7,3.1,7.3,6.5,10.6,10.2
			c0.3,0.2,0.7,0.7,0.9,1c3.1,3.4,6,6.9,8.8,10.6c0.2,0.3,0.6,0.7,0.8,1.1c2.7,3.7,5.2,7.7,7.5,11.7c0.5,0.7,1,1.7,1.4,2.6
			c2.2,4,4.4,8.3,6.2,12.6C388.2,434.5,391.2,418.2,391,401.2z"/>
	</g>
</g>
<g>
	<g>
		<path class="color" d="M337,226.2c-0.7-42.9-7.6-83.2-19.2-118.4c0.4,0.1-4.5-12.6-4.5-12.6c-7.6-20.2-16.8-38.5-27.3-54.4
			c-0.1-0.2-0.2-0.3-0.2-0.4c-2.5-3.6-5-7.2-7.5-10.6c-0.2-0.3-0.5-0.7-0.8-1.1c-2.3-3.2-4.7-6.1-7.3-9l-1.4-1.7
			c-2.3-2.7-4.8-5.3-7.2-7.7c-0.6-0.7-1.2-1.3-1.8-1.9c-3.1-3-6.1-5.9-9.4-8.5c-0.4,0.4-0.8,0.9-1.2,1.2v0.1
			c-12.3,11-23.6,24.9-33.4,40.9c-9.9,16.1-18.4,34.4-25.4,54.6c0,0,0,0,0,0.1l-0.1,0.2l-3.6,11.4c-10.9,35.8-16.8,76.7-16.3,120
			c0.2,23.5,2.5,46.1,6.3,67.6c5.5,30.3,14.2,58.1,25.4,82.6c2.1,4.5,4.1,9.2,6.4,13.4c2.2-0.7,4.5-1.2,6.7-1.9v17.5h12.5
			c-7.8,9.9-24.8,44.2,26.1,104.2v0.2c0,0,0-0.1,0.1-0.1l0.1,0.1v-0.2c55-65.1,30.6-97.6,24.4-104.2h15.1V388
			c3.5,0.7,7,1.6,10.3,2.6c2.1-4.3,4-8.8,5.9-13.4c10.5-24.9,18.5-53,23.1-83.5C335.6,272.3,337.2,249.6,337,226.2z M253.2,474.4
			c0,0-31.6-44.7-12.4-66.9h25.6l-2.5,0.1C267.8,411.6,287,435,253.2,474.4z M253.4,186.3h-0.5c-20.2,0-36.7-16-37-35.8
			c-0.1-9.7,3.6-18.9,10.6-25.9c6.9-6.9,16.1-10.8,25.9-11h0.6c20,0,36.7,16.1,36.9,35.8C290.2,169.5,273.8,186,253.4,186.3z"/>
	</g>
</g>
<g>
	<g>
		<path class="color" d="M186.8,385.3c-10.9-23.9-19.1-49.9-24.7-77.4c-25.7,24.5-41.6,58.8-41.1,96.9c0.3,16.9,3.8,33.2,9.9,48.1
			c10.7-27.9,30.7-51.2,56.3-66.6C187.1,386,186.9,385.7,186.8,385.3z"/>
	</g>
</g>
</svg>
